<svg width="117" height="106" viewBox="0 0 117 106" version="1.1" xmlns="http://www.w3.org/2000/svg" xmlns:xlink="http://www.w3.org/1999/xlink">
<title>arkansas-icon</title>
<desc>Created using Figma</desc>
<g id="Canvas" transform="translate(2311 387)">
<g id="arkansas-icon">
<use xlink:href="#path0_fill" transform="translate(-2311 -387)" fill="#B5B5B5"/>
</g>
</g>
<defs>
<path id="path0_fill" fill-rule="evenodd" d="M 115.43 13.2677L 115.409 13.4821L 115.928 14.1616L 116.592 14.7339L 117 15.5646L 116.871 16.1178L 116.506 16.0547L 115.777 15.5857L 115.259 15.6919L 114.851 15.9484L 114.53 16.3523L 114.358 16.8825L 115.001 17.116L 115.67 17.5209L 115.928 18.0099L 114.551 19.3699L 111.116 21.2419L 110.812 21.6458L 110.859 22.155L 111.266 22.7962L 111.995 23.581L 112.016 23.9418L 111.652 24.4308L 111.287 24.7936L 111.159 25.0692L 111.287 25.3898L 111.695 25.899L 112.081 26.5574L 111.866 26.9412L 111.352 27.1326L 110.769 27.2599L 110.211 27.4724L 109.954 27.792L 109.889 28.2801L 109.954 29.0027L 109.868 29.4927L 109.632 29.9827L 109.31 30.4287L 108.148 31.5753L 107.891 32.0442L 107.849 32.7257L 107.998 34.0225L 108.148 34.5737L 108.753 35.9557L 109.097 37.1272L 109.182 38.2737L 108.753 39.0394L 108.256 39.0394L 107.613 38.9341L 107.034 38.9973L 106.841 39.5093L 106.841 40.0816L 106.734 40.5707L 106.519 41.0377L 106.197 41.4215L 105.379 41.9967L 104.843 42.2723L 104.392 42.3996L 104.157 42.6331L 104.371 42.9518L 104.456 43.0791L 105.271 43.8878L 105.336 45.0784L 104.628 46.1207L 103.574 46.9294L 101.017 48.1841L 100.782 48.587L 100.931 49.054L 101.257 49.6082L 101.408 50.1173L 101.103 50.5231L 100.91 50.7988L 100.417 50.9902L 99.8815 51.0112L 99.4097 50.7567L 99.109 50.8839L 98.8306 51.4802L 98.5048 52.5205L 98.3975 53.7322L 99.0017 55.6683L 98.9592 58.0925L 99.0452 59.0917L 98.9379 59.9214L 98.2254 60.8134L 97.3891 61.3676L 96.8748 61.6221L 95.8849 61.8126L 95.6055 61.8126L 95.4131 61.7284L 95.0911 61.5159L 95.0051 61.6853L 95.0051 61.9408L 95.1337 62.3457L 95.3918 62.8548L 95.4556 63.2156L 95.3918 63.452L 95.1124 64.0033L 95.0486 64.3009L 94.9626 64.4302L 94.7267 64.4091L 94.3197 64.2579L 93.9929 64.3009L 93.843 64.3641L 93.757 64.5364L 93.0068 66.7032L 92.7284 66.9597L 92.3639 67.13L 91.2231 67.9579L 90.9447 68.2785L 91.0298 69.0853L 92.8357 69.7878L 92.9855 70.8702L 92.7071 71.4023L 92.3426 71.6598L 91.8708 71.766L 91.3092 71.8081L 90.7726 71.9354L 89.4868 72.7231L 88.2387 73.1049L 88.0453 73.3174L 88.1739 73.7203L 88.4311 73.8926L 88.753 73.9988L 89.0962 74.1472L 89.5506 74.9109L 89.2722 75.6115L 88.8603 76.2958L 89.0962 77.272L 89.4008 77.6979L 89.5931 78.229L 89.3369 78.8683L 89.0962 78.9736L 88.4533 79.0588L 88.1952 79.144L 87.9603 79.3344L 87.5098 79.8886L 87.3599 79.9948L 87.1666 80.2073L 86.3264 81.5443L 85.8972 81.8859L 85.554 82.1195L 85.5115 82.398L 86.0258 82.843L 87.0592 83.2469L 87.4663 83.5886L 87.6171 84.3102L 87.445 84.9064L 87.0592 85.2251L 86.5401 85.3735L 85.961 85.4156L 85.5965 85.6491L 85.7473 86.1181L 86.1544 86.564L 86.5623 86.7344L 87.0167 86.8636L 87.531 87.2244L 88.4098 87.9882L 88.4746 88.5002L 88.5597 89.3089L 88.5597 90.1578L 88.4746 90.7119L 87.6596 91.9657L 87.445 92.6031L 87.8307 93.1352L 88.1101 93.1572L 88.8603 93.3687L 89.2074 93.6023L 89.3795 93.942L 89.5081 95.368L 89.8513 96.3021L 89.9586 96.772L 89.8513 97.3023L 89.5506 97.5166L 89.0537 97.687L 88.6032 97.9406L 88.4311 98.3024L 88.5384 101.28L 88.1952 101.344L 83.8776 101.684L 79.5378 102.022L 75.2028 102.343L 70.8843 102.662L 66.5657 102.978L 62.2259 103.298L 57.8871 103.598L 53.5724 103.895L 49.2335 104.169L 44.8937 104.447L 40.5752 104.725L 36.2354 105.001L 31.9004 105.255L 27.5606 105.51L 23.242 105.767L 18.9032 106L 18.6673 102.577L 18.4527 99.1743L 18.238 95.77L 18.0234 92.3696L 17.9161 90.4995L 17.9161 90.4784L 17.6802 90.3932L 17.2945 90.242L 16.5829 89.7539L 16.1537 90.0095L 15.6394 90.0516L 15.1676 89.9664L 14.3275 89.5424L 13.9843 89.6908L 13.6836 89.9884L 13.3414 90.1367L 12.1571 89.6056L 11.7501 89.6487L 11.5142 90.0095L 11.3643 90.4574L 11.1497 90.733L 10.6354 90.4784L 10.1423 90.7541L 9.687 90.6909L 9.51588 90.4143L 9.79431 90.1157L 9.79431 89.9243L 9.19395 90.0516L 8.59359 89.9004L 8.1218 89.5214L 7.92942 88.9462L 7.67226 88.4361L 7.23915 88.3509L 7.06706 82.1434L 6.89594 75.911L 6.70259 69.7007L 6.53147 63.4941L 6.33812 57.2618L 6.167 51.0533L 5.99588 44.8449L 5.80253 38.6345L 5.07359 34.6819L 4.33981 30.7474L 3.61087 26.7909L 2.9032 22.8593L 2.17039 18.9029L 1.44145 14.9674L 0.733776 11.0368L 0 7.08032L 6.40289 6.76162L 12.8048 6.44388L 19.2029 6.08115L 25.6048 5.72034L 32.0077 5.3356L 38.3835 4.95374L 44.7864 4.5288L 51.1883 4.10483L 57.5864 3.67798L 63.9671 3.20902L 70.3477 2.74197L 76.7467 2.25387L 83.1274 1.74472L 89.5293 1.23269L 95.9061 0.69961L 102.287 0.148344L 103.899 0L 103.942 0.0631659L 103.984 0.127289L 104.135 0.338799L 104.414 0.957059L 104.477 1.04128L 104.585 1.12646L 104.714 1.19058L 104.799 1.25375L 104.843 1.35998L 104.885 1.48727L 104.949 1.93517L 104.993 2.08352L 105.035 2.23282L 105.121 2.36011L 105.207 2.44433L 106.021 2.84821L 106.155 2.93243L 106.262 3.01761L 106.347 3.12384L 106.433 3.23007L 106.498 3.35928L 106.562 3.50858L 106.562 3.67798L 106.562 3.84738L 106.476 4.55081L 106.476 4.72021L 106.648 5.54807L 106.669 5.69833L 106.648 5.84667L 106.605 5.99597L 106.562 6.12326L 106.476 6.25246L 106.412 6.3587L 106.305 6.44388L 106.176 6.5281L 105.614 6.76162L 105.507 6.8468L 105.421 6.95303L 105.4 7.08032L 105.357 7.6536L 105.314 7.80194L 105.25 7.95029L 105.185 8.05843L 105.079 8.16563L 104.371 8.63458L 103.878 8.88916L 103.574 9.01645L 103.466 9.07962L 103.252 9.24997L 103.166 9.35621L 103.08 9.4835L 103.037 9.63184L 103.016 9.78018L 102.994 10.0348L 102.994 10.1841L 102.951 10.3554L 102.887 10.4827L 102.822 10.61L 102.715 10.6951L 102.609 10.7803L 102.48 10.8435L 102.008 10.9947L 101.901 11.0799L 101.794 11.1641L 101.708 11.2703L 101.579 11.5038L 101.322 11.8436L 100.996 12.5222L 100.803 12.8217L 100.116 14.4793L 100.053 14.777L 100.074 14.8832L 100.116 15.0105L 100.267 15.0316L 101.965 14.8402L 105.292 14.4583L 108.625 14.0764L 111.931 13.6735L 115.259 13.2888L 115.301 13.2888L 115.344 13.2677L 115.387 13.2677L 115.43 13.2677Z"/>
</defs>
</svg>
