<svg width="107" height="49" viewBox="0 0 107 49" version="1.1" xmlns="http://www.w3.org/2000/svg" xmlns:xlink="http://www.w3.org/1999/xlink">
<title>maryland-icon</title>
<desc>Created using Figma</desc>
<g id="Canvas" transform="translate(1921 574)">
<g id="maryland-icon">
<use xlink:href="#path0_fill" transform="translate(-1921 -574)" fill="#B5B5B5"/>
</g>
</g>
<defs>
<path id="path0_fill" fill-rule="evenodd" d="M 105.613 37.1393L 105.872 35.7847L 106.067 35.3898L 106.261 34.8261L 106.347 34.2623L 106.305 33.8252L 106.045 33.5756L 105.785 33.6169L 105.483 33.7417L 105.159 33.7004L 105.224 33.6385L 105.332 33.5344L 105.418 33.4302L 105.375 33.2633L 105.202 33.3055L 105.159 33.0972L 105.289 32.6807L 104.9 32.5128L 103.88 32.4293L 104.226 32.117L 104.619 32.117L 105.029 32.2417L 105.44 32.2633L 105.808 32.117L 105.785 31.9284L 105.224 31.345L 105.569 31.3872L 105.808 31.345L 105.872 31.1583L 105.829 31.0129L 105.289 31.117L 104.075 31.3872L 102.324 31.7821L 100.593 32.1611L 98.8168 32.5335L 97.0839 32.9096L 95.3345 33.2848L 93.5802 33.6591L 91.8259 34.0334L 91.4372 32.7849L 91.07 31.4913L 90.508 29.5317L 89.942 27.5524L 89.38 25.5928L 88.8189 23.6145L 88.2783 21.6549L 87.7172 19.6747L 86.5893 15.7339L 86.0272 13.7762L 85.4876 11.7979L 84.9217 9.83827L 84.3596 7.87868L 83.7976 5.89752L 83.2365 3.93794L 82.6706 1.95959L 82.13 0L 79.5769 0.543131L 77.0015 1.08345L 74.4484 1.6247L 71.8954 2.16783L 69.3414 2.71097L 66.7659 3.23065L 64.2129 3.7719L 61.6374 4.29439L 59.0844 4.81595L 56.5313 5.35721L 53.9559 5.85625L 51.4018 6.37593L 48.8274 6.89842L 46.2695 7.42092L 43.694 7.91996L 41.1195 8.44058L 38.5655 8.9415L 35.991 9.44335L 33.4156 9.9424L 30.8625 10.4414L 28.2871 10.9198L 25.7116 11.4217L 23.1586 11.9226L 20.5831 12.401L 18.0087 12.8794L 15.4332 13.3578L 12.8578 13.8391L 10.2833 14.3193L 7.70784 14.7977L 5.1285 15.2555L 2.57545 15.7339L 0 16.1936L 2.46733 30.2202L 2.53162 30.3056L 2.63974 30.285L 2.83845 30.1367L 3.07612 29.9079L 5.17135 27.3217L 5.34864 27.2391L 6.23504 26.9061L 6.40745 26.802L 6.47272 26.6772L 6.6237 26.0525L 6.73182 25.7823L 6.96949 25.4474L 7.50913 24.863L 8.44229 24.1351L 8.55042 24.0516L 8.61568 23.9269L 8.80952 23.531L 9.17674 23.1548L 9.24201 23.0507L 9.3063 22.9466L 9.35013 22.8218L 9.39299 22.7393L 9.52254 21.9879L 9.5654 21.8631L 9.63066 21.7177L 9.73878 21.6136L 10.4995 21.0517L 10.6719 20.987L 10.8668 20.9664L 11.2768 21.0517L 11.6869 21.1765L 12.1837 21.4889L 12.4438 21.5714L 12.6211 21.5714L 12.8149 21.5301L 13.0312 21.3847L 13.1607 21.26L 13.225 21.1343L 13.3984 20.7581L 14.4562 19.1963L 14.6725 18.8004L 14.802 18.382L 14.8673 18.2779L 14.9364 18.1747L 15.0231 18.0912L 15.1089 18.0059L 15.217 17.943L 15.5842 17.7976L 15.7137 17.7151L 15.7576 17.6335L 15.7137 17.5687L 15.6066 17.4233L 15.5628 17.3192L 15.5413 17.1738L 15.5628 17.0069L 15.6066 16.8821L 15.8433 16.3399L 15.9086 16.0894L 15.9729 15.8634L 15.9953 15.7564L 16.0595 15.6504L 16.1248 15.6092L 16.2329 15.6092L 16.4268 15.7133L 16.5135 15.8193L 16.7511 15.9863L 17.0317 16.111L 17.0969 16.1936L 17.0969 16.2564L 16.9888 16.3183L 16.8154 16.4665L 16.794 16.5284L 16.7511 16.6119L 16.7511 16.7161L 16.7726 16.8202L 16.794 16.9027L 16.794 16.9449L 16.8378 16.9656L 16.9888 17.111L 17.0531 17.1532L 17.1398 17.1945L 18.0087 17.4027L 18.4402 17.5894L 18.5483 17.6541L 18.6779 17.7151L 19.2613 17.7976L 21.1238 17.7357L 21.1666 17.6335L 21.8796 17.2564L 23.5258 17.1532L 24.1093 16.55L 24.1736 16.2358L 24.0226 16.1317L 23.5472 16.0688L 23.5472 15.672L 23.893 15.4844L 24.3255 15.4009L 24.5885 15.2555L 23.8064 14.5482L 24.0012 14.3606L 24.195 14.2987L 24.6538 14.2987L 24.8476 14.2359L 25.3658 13.8391L 25.7983 13.6721L 26.7276 13.6721L 27.164 13.5895L 27.315 13.4207L 27.6169 12.8588L 27.8332 12.6093L 28.3299 11.7125L 28.4819 11.5671L 28.6757 11.4217L 28.9134 11.2969L 30.0843 11.1506L 31.2298 11.5877L 33.2646 12.9001L 33.7614 13.0877L 34.2835 13.1712L 34.7812 13.0877L 35.0832 12.8382L 35.2994 12.7134L 35.9686 12.7547L 36.0768 12.6505L 36.142 12.4217L 36.4011 12.3185L 36.7294 12.3185L 36.9671 12.3598L 37.3771 12.7134L 37.3557 13.1505L 37.0109 13.5708L 36.4878 13.8184L 36.6817 14.0905L 37.2262 15.0473L 37.3557 15.006L 37.3557 14.7349L 37.421 14.4235L 37.5505 14.2152L 37.7668 14.2565L 37.9606 14.5276L 37.9392 14.7565L 37.8311 14.9225L 37.8525 15.1101L 38.1983 15.3803L 38.5226 15.3202L 38.8899 15.1308L 39.2834 15.0266L 39.3263 15.2142L 39.0409 15.3409L 38.9327 15.5885L 38.998 15.884L 39.2181 16.1936L 38.8032 16.6326L 39.1529 16.8408L 40.2546 17.0697L 40.5575 17.4862L 40.5361 18.0059L 40.4708 18.549L 40.6003 19.0499L 41.0328 19.5077L 41.0757 19.5077L 41.5559 19.6325L 42.679 19.4036L 43.1115 19.4036L 44.1528 19.5705L 45.2106 19.6118L 45.4912 19.7779L 46.0746 20.382L 46.5549 20.5714L 47.0945 20.6127L 47.5698 20.7168L 47.9156 21.093L 47.9371 21.6549L 47.6994 22.1333L 47.0945 22.9053L 47.0292 23.4072L 47.2455 23.8021L 47.6127 24.0929L 48.0238 24.3218L 48.9784 24.9465L 49.5833 25.1144L 51.5967 24.9043L 52.3525 24.9671L 53.0656 25.1791L 53.6753 25.5722L 53.8906 25.9277L 54.0854 26.3442L 54.3017 26.6772L 54.6465 26.7607L 54.9709 26.7607L 55.792 26.8639L 56.5089 26.8433L 56.7904 26.9886L 57.1352 27.2804L 58.4532 25.1557L 61.6812 28.013L 60.1646 30.6377L 60.2727 31.0954L 60.7909 31.7202L 60.7267 31.9716L 60.6614 32.1611L 60.5747 32.3046L 60.4451 32.4087L 60.7909 32.9096L 60.5961 33.2848L 59.7536 33.721L 59.473 33.9527L 59.322 34.1169L 59.1925 34.327L 59.1058 34.5972L 59.1272 35.0775L 59.0201 35.5559L 58.9762 36.0343L 58.8895 36.2219L 58.6733 36.3466L 58.1726 36.4095L 58.0431 36.492L 57.8921 36.6609L 57.7625 36.7444L 57.6544 36.8485L 57.5892 37.0764L 57.5892 37.3701L 57.6544 37.5577L 57.784 37.5577L 58.0002 37.3907L 58.1941 37.537L 57.633 37.9319L 57.4382 38.098L 56.9628 38.3484L 56.8333 38.9328L 56.8118 39.5154L 56.6609 39.809L 56.5742 40.1833L 56.7466 40.9318L 57.0495 41.7245L 57.2658 42.2263L 57.633 42.6625L 58.1512 43.1409L 58.7171 43.3698L 59.1711 43.0997L 59.3649 42.8708L 59.8188 42.5584L 60.0351 42.247L 60.2942 41.2029L 59.9912 40.9112L 59.8617 40.8071L 59.7107 40.7442L 59.9484 40.4741L 60.2075 40.2452L 60.2727 40.2874L 60.2942 40.3287L 60.337 40.3493L 60.4237 40.3906L 60.4666 40.5988L 60.3809 40.8277L 60.488 41.1194L 60.7267 41.3708L 60.9897 41.4768L 61.2702 41.3708L 61.5079 41.0979L 61.767 40.5163L 61.8322 40.2874L 61.8751 40.0379L 61.8751 39.7874L 61.8322 39.5154L 62.3076 39.8503L 62.7615 40.4741L 63.8456 42.3511L 64.2771 42.8089L 66.161 44.0799L 66.8526 44.3313L 67.3065 44.2066L 67.2627 43.5162L 66.9179 42.7667L 66.5506 42.1635L 65.7246 41.0772L 66.5506 41.3708L 67.1555 41.808L 67.587 42.4759L 67.89 43.4739L 68.0195 43.7263L 68.2611 44.0593L 68.7793 44.5808L 69.1904 44.8097L 69.5362 44.8519L 71.6353 44.1653L 72.4564 44.0799L 73.1734 44.352L 73.5406 44.5808L 73.8864 44.7262L 74.2322 44.9345L 74.5994 45.3303L 74.8156 45.6624L 75.1176 46.3097L 75.2043 46.5404L 75.554 46.6652L 75.6621 46.4138L 75.6407 45.6624L 76.267 46.1014L 76.6128 46.2478L 76.6995 45.8294L 76.7862 45.6624L 76.8505 45.4129L 76.8291 45.1427L 76.7638 44.9551L 76.5485 44.5808L 76.4833 44.3313L 77.0882 44.685L 77.4554 45.5377L 77.7359 46.3932L 78.0866 46.7487L 78.7343 46.8322L 80.7049 47.9344L 80.5968 47.5395L 80.402 47.3312L 80.1818 47.1652L 79.987 46.9363L 79.9441 46.4992L 80.0094 45.9354L 80.0094 45.3716L 79.7717 44.9139L 78.8425 44.0377L 78.108 43.6428L 77.9132 43.4739L 77.6502 42.9749L 77.6931 42.5378L 77.8012 42.1222L 77.8226 41.6204L 77.4982 41.2461L 76.98 41.3296L 76.3966 41.5997L 75.8998 41.7245L 75.3777 41.5378L 74.8799 41.1607L 74.4698 40.6823L 74.2536 40.2039L 73.9945 40.0791L 72.3698 39.7049L 71.4629 39.203L 70.7284 38.5773L 70.1411 37.7237L 69.7953 36.7228L 69.7086 36.5342L 69.5362 36.4095L 69.6657 36.16L 69.4066 35.7847L 69.1904 35.2022L 68.6283 33.2426L 68.5855 32.9312L 68.5202 32.7229L 68.5202 32.5128L 68.9098 33.1385L 70.4645 37.1599L 70.6417 37.3494L 70.9223 37.4742L 72.8451 39.0163L 73.2815 39.2236L 74.0374 39.2236L 74.2974 39.2865L 74.729 39.4112L 74.9238 39.5801L 74.9881 39.7255L 75.0533 39.8915L 75.2257 40.1204L 75.6621 40.4741L 76.0293 40.5575L 76.8076 40.3699L 77.2615 40.0379L 77.2391 39.4947L 76.9372 38.9122L 76.6128 38.431L 75.7702 37.6411L 73.8221 36.2219L 73.1519 35.2651L 72.9746 34.66L 72.7808 32.9096L 72.586 32.4293L 72.3269 31.9491L 72.1321 31.4284L 72.1545 30.784L 71.3762 30.2615L 71.009 29.8478L 70.858 29.3047L 71.009 28.8657L 71.7434 28.1997L 71.9597 27.7194L 71.9597 27.1143L 71.722 27.1556L 71.1385 27.6772L 70.8794 27.5346L 70.9875 26.5731L 70.707 26.4071L 70.5512 26.2607L 70.5083 26.1772L 70.4645 26.074L 70.9875 25.9493L 71.2252 25.9493L 71.4191 26.0525L 71.7006 25.6144L 71.3976 25.3433L 70.5512 25.0525L 70.2482 24.8002L 69.9901 24.4465L 69.9463 24.1135L 70.292 23.9475L 70.7927 24.1135L 71.7648 24.8002L 72.1973 24.9043L 72.3055 24.5947L 71.873 23.9888L 70.6632 22.8012L 70.0329 22.3415L 69.7738 22.1961L 69.2547 22.1127L 68.9956 21.9879L 68.7793 21.7384L 68.715 21.4673L 68.7793 21.2178L 69.0394 21.093L 69.2771 21.1765L 69.5576 21.4054L 70.0115 21.8631L 71.571 22.8659L 71.7434 22.7599L 71.8301 22.5498L 71.9597 22.425L 72.4779 22.2806L 72.8451 22.0714L 72.8665 21.7797L 72.4564 21.3641L 71.9811 21.1343L 70.6846 20.8416L 70.1625 20.8416L 69.9901 20.7788L 69.7953 20.6127L 69.6871 20.3613L 69.7738 20.1531L 69.9677 20.1531L 70.8366 20.5311L 71.0742 20.2778L 71.3762 20.2778L 71.6577 20.4457L 71.8301 20.7168L 72.0025 20.6746L 71.9811 20.049L 71.6139 19.5077L 71.1609 19.0087L 70.6203 18.0706L 70.3349 18.1532L 69.9034 18.5696L 69.6433 18.4655L 69.2332 18.0265L 69.0608 17.9646L 68.9527 17.8183L 68.8007 17.5275L 68.5202 17.2564L 67.8033 17.1738L 67.6299 17.0284L 67.4789 16.7995L 67.2198 16.5913L 67.0474 16.5913L 66.6364 16.5284L 66.313 16.4665L 66.4639 16.3605L 67.025 16.1936L 67.2198 16.0482L 67.3708 15.7986L 67.6737 15.9647L 68.9098 16.2358L 69.2547 16.4665L 69.6005 16.7367L 69.8381 16.9027L 69.9901 16.778L 70.1839 16.9656L 70.3135 16.7573L 70.5083 16.7161L 70.7499 16.7995L 70.9875 16.9656L 71.7873 16.2151L 71.7434 16.0482L 70.9447 16.111L 70.2482 15.7133L 69.6433 15.1101L 69.1251 14.4235L 69.9034 14.5069L 70.1187 14.6101L 70.6417 15.1514L 70.9008 15.3803L 71.2895 15.5257L 71.4629 15.2349L 71.4415 15.0473L 70.5083 14.2781L 70.2482 13.9845L 70.3563 13.7968L 71.6577 13.8184L 71.7006 13.6927L 71.4629 13.3794L 71.6577 13.129L 71.8954 13.067L 72.1106 12.9648L 72.2402 12.6299L 72.1106 12.6505L 72.0464 12.1515L 71.5281 12.0267L 70.8794 12.0267L 70.4645 11.8185L 72.0678 11.0446L 72.3922 11.13L 73.1305 12.2763L 73.563 13.506L 74.0598 12.5464L 74.2107 12.4217L 74.1893 12.2556L 73.9731 11.9648L 73.5406 11.5671L 73.3896 9.46399L 73.4977 9.31578L 73.5844 9.04562L 73.714 8.81674L 73.9302 8.75201L 74.1241 8.92086L 74.1679 9.14974L 74.1455 9.69287L 74.2536 10.8786L 74.4484 11.4001L 74.9023 11.6712L 75.3553 11.0652L 76.57 10.0043L 77.3911 8.75201L 77.4982 8.48185L 77.4554 8.12821L 77.2615 8.04472L 76.3966 7.9406L 76.0946 7.73235L 76.3537 6.08513L 76.5261 5.83561L 76.7424 5.66864L 77.0453 5.56545L 78.5619 5.27372L 78.7772 5.10768L 78.9934 4.37694L 79.1883 4.04206L 79.5341 3.87602L 79.5117 5.00356L 79.4474 5.5026L 79.2964 5.96225L 78.9068 6.85715L 78.821 7.42092L 79.0149 7.89932L 79.2964 7.35807L 80.5968 5.77276L 80.9211 5.27372L 81.1578 4.70995L 81.4608 4.23342L 81.9361 3.93794L 81.9147 4.58519L 81.8066 5.27372L 81.5251 5.87689L 81.0283 6.29338L 81.3527 6.69018L 81.7627 6.91906L 82.5196 7.14982L 82.541 7.31679L 81.9361 7.35807L 80.812 7.25394L 80.3377 7.40028L 80.0094 7.71171L 79.6198 8.23233L 78.9506 9.35799L 78.9934 9.87955L 79.5769 9.9424L 82.1085 9.42178L 82.7397 9.46399L 83.107 9.75479L 82.541 9.90018L 82.3676 9.90018L 81.3955 10.1506L 78.8639 10.6103L 76.98 11.2547L 76.9157 11.3795L 76.8933 12.0061L 76.8076 12.2556L 76.6128 12.401L 76.1589 12.5886L 75.965 12.8382L 75.9436 13.067L 76.0293 13.6308L 75.9865 13.901L 75.3339 16.0688L 75.1829 17.0903L 75.1176 17.278L 75.0533 17.6128L 75.1176 17.9224L 75.7059 18.0472L 75.9212 18.2573L 76.0946 18.5077L 76.1813 18.7169L 76.3966 19.9261L 76.5261 20.4045L 76.7862 20.6334L 77.1096 20.1943L 77.0667 19.1541L 77.1534 18.0472L 77.8226 17.4862L 77.8655 17.6747L 77.6064 17.943L 78.1947 18.0059L 78.6262 17.6935L 79.0149 17.2564L 79.4688 16.9449L 79.3178 17.4862L 78.5395 18.6531L 78.259 19.3623L 78.4752 19.5283L 78.2376 19.6531L 77.7145 19.8407L 77.844 20.0902L 77.9999 20.2778L 78.1723 20.4251L 78.3671 20.488L 78.41 21.0724L 78.108 21.4889L 77.6288 21.7797L 77.1534 21.9251L 76.5047 21.9673L 76.0732 21.8209L 75.3339 21.3425L 75.0747 21.2384L 74.7942 21.1971L 74.5994 21.2806L 74.5994 21.9457L 74.427 22.5911L 74.4046 22.8012L 74.4913 23.4897L 74.5351 25.6144L 74.6861 26.074L 75.0319 25.9906L 75.442 25.6144L 75.5978 25.2814L 75.442 25.1351L 75.1829 24.9465L 74.9881 24.6961L 74.9881 24.4259L 75.1614 24.197L 75.3339 24.1135L 76.0079 23.9269L 76.1589 23.8434L 76.3537 23.6773L 76.3537 23.5938L 76.4618 23.3237L 76.6128 23.0929L 76.6995 23.0929L 76.7638 22.5911L 77.1534 22.6746L 77.9999 23.1136L 77.9785 23.4691L 78.0213 23.9062L 78.1947 24.2805L 78.5181 24.3846L 78.6262 24.2176L 78.6477 23.531L 78.6915 23.365L 78.9934 23.3443L 79.0587 23.5732L 79.0373 24.1764L 79.2097 24.2392L 80.2247 24.4259L 79.8146 24.8424L 79.2525 25.1998L 78.821 25.6576L 78.9068 26.4483L 79.3607 27.0102L 79.836 26.9886L 80.2471 26.6144L 80.4448 26.1153L 80.6396 26.5318L 80.5315 27.0102L 80.2899 27.3864L 80.0523 27.574L 79.6198 27.6153L 79.1883 27.5524L 78.7772 27.3864L 78.41 27.135L 78.108 26.5525L 78.0213 26.4483L 77.7797 26.469L 77.6064 26.3855L 77.3044 26.0947L 76.9157 25.9906L 76.6128 26.2401L 76.116 26.8639L 76.116 27.0928L 76.0732 27.3864L 75.9865 29.0739L 75.8998 29.5936L 75.8998 29.9913L 75.9865 30.6592L 76.1589 30.784L 76.4404 30.6799L 76.7209 30.4304L 76.8719 30.1987L 76.6995 29.8263L 76.6128 29.1987L 76.6128 28.5327L 76.6995 28.0749L 76.9586 27.6772L 77.0453 27.907L 77.0882 29.0739L 77.3258 29.3047L 77.6502 28.8235L 78.1723 27.7607L 78.6477 27.8648L 78.6915 28.3244L 78.4324 29.2634L 78.7558 29.3854L 79.1016 29.9707L 79.3178 30.0739L 79.5555 29.8872L 79.6198 29.5523L 79.6412 29.1565L 79.7493 28.8028L 79.9013 29.0524L 79.9656 29.3235L 79.9227 29.5523L 79.8146 29.7625L 80.0951 30.0533L 80.4886 29.9707L 80.9426 29.7625L 81.4179 29.6358L 81.4608 29.8263L 81.1793 29.9913L 80.6611 30.3881L 80.4886 30.5964L 80.5315 30.784L 81.0069 30.8665L 81.3312 30.7418L 81.5689 30.5129L 81.8923 30.3056L 81.8923 30.8881L 82.4115 31.2624L 83.1284 31.4707L 83.6904 31.4913L 84.1658 31.2202L 84.4035 30.784L 84.6626 29.7203L 84.7921 29.6996L 84.8778 29.7625L 85.0074 29.8263L 84.8778 30.285L 84.9431 31.1583L 84.7707 31.6573L 84.5544 31.8862L 84.2301 32.0757L 83.5394 32.3046L 81.0721 31.9491L 80.6825 32.117L 80.402 32.0128L 80.1166 31.8449L 80.2471 31.7408L 80.5101 31.3872L 80.2032 31.5119L 79.685 31.8656L 79.3607 32.0128L 78.9934 32.0963L 77.9356 32.117L 78.2376 32.4087L 78.3671 32.5128L 78.5395 32.5747L 78.5834 32.7642L 78.2161 33.4302L 78.1294 33.8458L 78.4538 33.9527L 79.1444 33.8045L 79.4045 33.6591L 79.5983 33.4302L 79.685 33.2014L 79.6636 33.056L 79.7065 32.9518L 79.9441 32.8683L 80.138 32.8261L 80.2899 32.8261L 80.4234 32.8477L 80.5315 32.9312L 80.6825 33.2014L 80.402 33.6385L 80.5968 33.888L 80.2032 34.1994L 79.7279 34.4518L 79.3607 34.7632L 79.2964 35.2444L 79.3607 35.9517L 79.2311 36.3879L 78.9934 36.3673L 78.7558 35.7641L 78.4967 35.5559L 78.0866 35.5765L 77.7797 35.8476L 77.9356 36.4095L 78.0866 36.5342L 78.3457 36.6402L 78.5834 36.8063L 78.8639 37.3701L 79.0801 37.6618L 79.2964 37.9113L 79.4688 38.0361L 80.3591 38.9122L 80.9426 39.4947L 81.2231 40.2039L 81.3527 40.1833L 81.2884 39.5801L 80.7049 38.4104L 80.8987 38.1402L 81.3312 38.3062L 83.0417 39.642L 83.3661 40.0998L 83.5609 40.2452L 84.1872 40.2874L 84.4463 40.4534L 85.4662 41.5162L 85.7681 41.6626L 85.9191 41.3502L 86.0058 40.5988L 85.9191 40.2245L 85.7896 39.8709L 85.5743 39.642L 85.2928 39.5585L 85.5519 38.7846L 86.0272 37.9113L 86.525 37.4742L 86.8698 38.0361L 86.8269 38.4732L 86.2649 38.8888L 86.2006 39.2659L 86.3516 39.4947L 86.5893 39.6842L 86.8484 39.8296L 87.0218 39.975L 87.1075 40.2245L 87.1513 40.4947L 87.1942 40.7442L 87.3451 40.8699L 87.4533 40.5782L 87.6306 38.8475L 87.7387 38.598L 88.6027 37.0764L 88.6455 36.8063L 88.6241 36.4714L 88.6455 36.2012L 88.7751 36.0765L 89.078 36.0343L 89.1423 36.1384L 89.1209 36.2847L 89.1209 36.9104L 89.0128 37.3701L 88.5598 38.7021L 88.4303 39.3484L 88.4731 39.975L 88.8189 40.4741L 89.2728 40.6195L 90.2917 40.4741L 90.7028 40.5782L 89.942 41.1401L 89.078 41.5791L 88.4731 42.1841L 88.4079 43.2873L 88.5598 43.8304L 88.6894 44.0377L 88.8404 44.0799L 89.0128 43.9552L 89.0128 43.7263L 88.9699 43.4739L 89.0566 43.2657L 89.4881 43.0378L 90.5508 42.9336L 91.0262 42.6213L 91.3291 42.6213L 91.7178 42.4965L 92.0636 42.5171L 92.1931 42.7873L 92.0636 42.9749L 91.4148 43.2244L 91.1996 43.3914L 91.372 43.5368L 91.3291 43.8116L 91.1781 44.0593L 90.9833 44.2901L 90.7671 44.4354L 90.8323 44.6437L 90.9181 44.6643L 90.9619 44.685L 90.9619 44.7262L 91.0262 44.7891L 91.2638 44.5808L 91.5882 44.4561L 92.1503 44.352L 92.4561 44.1418L 92.6295 43.8116L 92.8233 43.5593L 93.1691 43.5593L 92.9753 44.1212L 92.1717 45.2675L 92.0197 45.6418L 91.8902 45.7665L 91.2853 45.9973L 91.1996 46.2271L 91.1557 46.5404L 90.8323 47.3734L 90.7028 47.5807L 90.7671 47.6014L 90.8323 47.6014L 90.8752 47.6229L 90.8966 47.7683L 91.0486 47.7271L 91.1129 47.5395L 91.221 47.3941L 91.3934 47.2899L 91.5882 47.2271L 91.5668 47.6014L 91.4148 47.8518L 91.2638 48.0591L 91.1781 48.2899L 91.1996 48.5404L 91.2853 48.6435L 91.372 48.727L 91.4587 48.9165L 91.6963 49L 92.085 48.6229L 92.6295 47.8725L 93.0396 47.4353L 93.5588 47.2693L 95.6365 46.9982L 96.0904 46.9982L 96.3709 47.0611L 96.4576 46.6239L 96.5443 46.1849L 96.6514 46.0189L 97.1921 45.8294L 98.1466 45.4964L 98.8811 45.2262L 99.9876 44.8519L 100.96 44.4974L 101.586 44.2901L 102.019 44.1212L 102.019 43.8923L 102.195 42.413L 102.04 42.2263L 102.152 42.08L 102.39 41.5378L 102.562 41.3502L 102.778 41.3089L 103.232 41.3708L 103.383 41.3296L 103.491 41.036L 103.534 40.1204L 103.6 39.9122L 103.772 39.6214L 103.708 37.9526L 103.859 37.5783L 104.096 37.2659L 104.727 36.7228L 104.576 37.3701L 104.705 37.5783L 105.44 37.3701L 105.613 37.1393ZM 106.887 31.5767L 106.715 30.8047L 106.412 30.8666L 106.412 30.8882L 106.564 31.7202L 106.564 33.3262L 106.693 34.1582L 106.956 33.5963L 107 32.6395L 106.887 31.5767ZM 106.261 35.8682L 105.851 38.036L 105.526 39.2236L 105.44 39.975L 105.526 40.7864L 105.483 41.0772L 105.008 42.1634L 104.749 43.1625L 104.9 43.0996L 105.116 43.0161L 105.18 42.746L 105.742 41.7244L 106.131 39.3071L 106.11 37.6617L 106.564 35.9929L 106.606 35.1403L 106.477 35.1815L 106.261 35.8682ZM 86.525 42.6841L 86.2863 42.4758L 85.8762 42.2676L 85.4009 42.4965L 85.1155 42.9542L 85.358 43.4533L 85.5957 43.4945L 86.4811 43.3914L 86.6759 43.1409L 86.6759 42.912L 86.525 42.6841ZM 87.6091 46.8941L 87.3452 46.7074L 87.0646 46.6239L 86.8698 46.7487L 86.8484 47.1436L 87.0432 47.4147L 87.6958 47.5807L 87.9978 47.789L 87.7173 47.9344L 87.0218 48.0385L 86.9351 48.2073L 87.1289 48.4156L 87.803 48.561L 88.0407 48.7692L 88.1488 48.2486L 88.2355 47.6229L 88.1059 47.1023L 87.6091 46.8941Z"/>
</defs>
</svg>
