<svg width="185" height="100" viewBox="0 0 185 100" version="1.1" xmlns="http://www.w3.org/2000/svg" xmlns:xlink="http://www.w3.org/1999/xlink">
<title>virginia-icon</title>
<desc>Created using Figma</desc>
<g id="Canvas" transform="translate(2013 525)">
<g id="virginia-icon">
<use xlink:href="#path0_fill" transform="translate(-2013 -525)" fill="#B5B5B5"/>
</g>
</g>
<defs>
<path id="path0_fill" fill-rule="evenodd" d="M 176.415 62.2035L 175.447 60.0034L 174.865 59.3704L 174.301 59.4332L 173.72 59.7711L 172.988 59.9406L 171.994 59.7711L 170.81 59.9187L 168.459 59.5598L 167.685 59.7293L 167.314 60.3642L 167.465 60.7869L 167.749 60.8926L 167.899 61.0211L 167.685 61.5704L 167.685 61.8864L 167.964 62.2035L 168.502 62.689L 168.115 62.7128L 167.685 62.5624L 167.379 62.2882L 167.358 61.9502L 166.798 61.7598L 166.152 61.7179L 165.506 61.8236L 164.921 62.0559L 164.491 62.4357L 164.125 62.8813L 163.694 63.2611L 163.112 63.4534L 163.048 63.2402L 163.607 62.6471L 163.844 62.2672L 163.931 61.9712L 163.715 61.6332L 163.436 61.3591L 163.328 61.0849L 163.651 60.7441L 163.629 60.5546L 162.053 60.0882L 161.688 59.8768L 161.493 59.814L 161.3 59.7711L 160.977 59.814L 160.827 59.7293L 160.827 59.5598L 160.869 59.497L 161.063 59.2856L 161.02 59.1171L 159.574 59.0324L 159.165 58.9058L 158.928 58.545L 158.541 56.8533L 157.873 55.2873L 157.654 55.0331L 157.374 55.2235L 156.9 56.1127L 156.47 56.2831L 155.996 56.0698L 155.045 55.3711L 154.7 55.2654L 152.586 55.69L 152.113 55.6034L 151.123 55.1597L 150.58 55.1388L 150.343 54.9284L 150.128 54.4001L 149.806 53.9126L 149.267 53.807L 149.095 53.9564L 148.535 54.6533L 148.298 54.8437L 148.058 54.6961L 147.821 54.4638L 147.67 54.3372L 145.707 54.738L 144.114 54.4848L 143.877 54.6114L 143.77 54.5476L 143.533 54.5267L 143.27 54.4419L 143.119 54.083L 143.619 53.3843L 144.07 53.7641L 144.436 53.8489L 145.384 53.6166L 145.535 53.6594L 145.991 53.8279L 146.249 53.8279L 146.464 53.7641L 146.895 53.49L 147.174 53.3215L 147.39 53.2558L 147.584 53.3215L 147.864 53.49L 147.971 53.6594L 148.212 53.9774L 148.449 54.2316L 148.492 54.083L 148.6 53.8698L 149.182 53.1501L 149.396 52.9816L 149.719 53.0026L 149.956 53.1711L 150.843 54.1259L 151.165 54.5695L 151.51 54.8008L 152.026 54.6323L 152.392 54.2106L 152.586 53.8917L 152.629 53.5956L 152.457 52.855L 152.479 52.5589L 152.673 52.3057L 152.866 52.7912L 152.974 53.4271L 153.129 53.9564L 153.474 54.1259L 153.818 54.1468L 154.743 54.3582L 155.153 54.3791L 155.346 54.4419L 155.522 54.6533L 155.652 54.9284L 155.803 55.1179L 156.061 55.2235L 156.146 55.055L 156.168 54.759L 156.254 54.5476L 156.664 54.3372L 157.589 54.0621L 157.873 53.807L 158.433 54.0621L 158.928 54.5905L 159.25 55.2873L 159.208 56.1127L 159.402 56.2831L 159.768 56.6001L 160.332 57.0009L 160.912 57.276L 161.322 57.1703L 163.715 58.4812L 164.081 58.8211L 164.576 59.8559L 164.921 59.8978L 165.248 59.6445L 165.764 58.9686L 166.045 58.7154L 166.432 58.5659L 166.991 58.4184L 167.379 58.1861L 167.598 57.6977L 167.662 57.1065L 167.641 56.5154L 167.443 55.7328L 167.164 55.6034L 166.281 56.028L 165.872 55.9432L 166.087 55.5405L 166.54 55.0969L 166.776 54.9284L 166.54 54.5476L 166.001 54.2316L 165.248 53.9355L 165.226 54.2734L 164.963 54.2525L 164.641 54.0621L 164.426 53.8279L 164.361 53.5747L 164.318 53.2139L 164.318 52.8969L 164.361 52.8331L 164.016 52.538L 163.607 52.6008L 162.678 52.9816L 162.183 52.9597L 161.58 52.8331L 160.525 52.4323L 158.755 51.4803L 157.094 50.2113L 156.405 49.4517L 155.996 49.069L 155.174 48.7738L 153.861 47.3145L 153.624 47.2297L 153.344 47.2088L 153.108 47.146L 152.974 46.9765L 152.931 46.6795L 152.931 46.3834L 152.995 46.1702L 153.194 46.0436L 154.593 46.9346L 155.544 48.0532L 156.125 48.5606L 156.685 48.7101L 157.094 48.8786L 158.95 50.7816L 159.143 50.8872L 159.445 50.8872L 159.681 50.9291L 159.983 51.269L 160.698 51.3766L 161.709 51.8411L 162.183 51.9049L 163.909 51.1214L 163.973 50.9291L 163.78 50.5912L 163.5 50.2532L 163.263 50.0847L 163.048 50.0638L 162.333 50.2751L 162.29 50.1057L 162.897 49.7258L 162.983 49.6411L 162.897 49.3879L 162.746 49.3032L 162.57 49.2822L 161.859 48.9633L 161.709 48.7529L 161.753 48.434L 161.924 48.2226L 162.161 48.1589L 162.419 48.1798L 162.678 48.2436L 162.548 48.0323L 162.398 47.8L 162.183 47.6315L 161.903 47.6105L 162.053 46.8689L 162.548 47.146L 163.521 48.2436L 163.952 48.2855L 164.254 48.0751L 164.512 47.9694L 164.662 48.3912L 165.85 49.346L 166.13 49.662L 166.259 49.6411L 166.152 48.7948L 166.345 47.1669L 166.174 46.2987L 165.872 45.8532L 165.614 45.8113L 165.334 45.8532L 165.071 45.7266L 165.007 45.4314L 165.162 45.0935L 165.42 44.7974L 165.635 44.608L 165.592 44.4366L 164.813 43.9302L 164.468 43.9511L 164.468 44.5661L 164.318 44.9031L 163.78 44.7974L 162.897 44.3947L 162.398 44.3947L 161.988 44.2472L 161.946 44.0149L 162.506 43.675L 163.543 43.358L 163.909 43.1257L 164.231 42.725L 163.241 42.6193L 162.269 42.725L 161.364 42.6193L 160.654 41.8986L 160.353 42.1319L 159.875 42.2394L 158.433 42.2394L 158.024 42.11L 157.654 41.8567L 157.202 41.3055L 156.878 40.841L 156.793 40.6306L 156.749 40.5878L 156.448 39.8043L 156.254 39.6358L 155.501 39.1484L 155.238 39.0636L 154.184 39.0846L 154.14 38.9998L 154.098 38.62L 154.055 38.5362L 153.947 38.5143L 153.861 38.5572L 153.774 38.5781L 153.474 38.4306L 152.91 38.3668L 152.781 38.2611L 152.5 37.9441L 152.371 37.9022L 152.134 37.7337L 151.402 36.9074L 151.23 36.6313L 151.058 36.1249L 150.843 35.9135L 150.064 35.7869L 149.741 35.6812L 149.332 35.449L 148.944 35.1538L 148.6 34.5817L 148.342 34.4741L 148.058 34.4103L 147.799 34.2837L 147.519 34.0514L 147.434 33.9039L 146.895 32.3817L 146.766 32.2332L 146.249 31.8724L 146.12 31.7457L 145.819 31.5344L 144.136 31.4716L 143.877 31.3231L 143.683 31.1336L 143.533 30.8804L 143.446 30.5215L 143.313 30.3292L 143.141 30.3501L 142.883 30.5424L 142.108 30.5843L 141.677 30.5006L 141.44 30.2235L 141.569 29.9065L 142 29.8646L 143.055 29.9065L 143.425 30.0122L 143.77 30.3501L 144.093 30.7538L 144.372 31.0489L 144.588 30.9642L 145.642 30.9642L 146.034 31.0917L 146.357 31.3021L 146.939 31.8724L 147.906 33.2489L 148.144 33.3965L 149.182 33.882L 149.677 34.7083L 151.209 35.13L 151.725 35.9345L 152.845 37.0978L 153.194 37.3091L 153.516 37.3939L 153.818 37.2882L 154.033 36.9502L 154.098 37.3729L 154.269 37.6071L 154.485 37.7337L 154.722 37.7965L 154.937 37.4776L 155.109 37.5852L 155.26 37.8394L 155.411 38.0288L 156.212 38.4096L 156.341 38.5572L 156.641 39.0636L 157.654 39.8909L 158.024 40.2926L 158.089 40.6087L 158.368 41.0952L 158.713 41.3693L 159.057 41.2427L 159.079 40.187L 159.208 39.7624L 159.595 40.1441L 159.703 40.3764L 159.961 40.6934L 160.176 40.8838L 160.263 40.9048L 160.353 40.7353L 160.633 40.8619L 160.934 41.0952L 161.063 41.2218L 162.398 41.4112L 163.07 41.3903L 163.371 40.9257L 163.07 41.0104L 162.941 40.841L 162.527 40.4821L 162.398 40.2289L 162.462 40.0175L 162.635 39.87L 162.725 39.6777L 162.506 39.3188L 162.746 39.3616L 163.026 39.3616L 163.284 39.2978L 163.457 39.1265L 163.349 38.8104L 162.506 38.3877L 162.248 38.0926L 162.269 37.966L 162.419 37.9441L 162.591 37.9441L 162.678 37.8813L 162.768 37.4776L 162.768 37.1825L 162.725 36.9293L 162.548 36.5256L 161.882 35.7022L 161.601 35.1957L 161.774 34.8978L 162.161 35.0034L 163.048 35.5965L 163.457 35.5546L 163.607 35.13L 163.565 34.4522L 163.284 33.2918L 163.048 33.0166L 162.591 32.8053L 162.075 32.6558L 159.832 32.3179L 158.885 31.9361L 157.697 31.7667L 157.417 31.661L 157.589 31.5982L 157.718 31.4506L 157.847 31.3868L 157.61 31.2183L 157.352 31.0917L 157.072 31.007L 156.793 31.007L 156.017 31.345L 155.888 31.3021L 155.781 30.9223L 155.738 30.8166L 155.953 30.4787L 155.932 30.0988L 155.544 29.7989L 154.657 29.44L 154.033 29.0602L 153.903 28.9545L 153.818 28.3634L 153.71 28.1739L 153.495 28.1311L 153.237 28.2367L 152.802 28.469L 152.544 28.5328L 152.35 28.49L 152.156 28.3843L 151.941 28.3005L 151.682 28.3005L 151.489 28.5109L 151.036 28.9336L 150.515 29.1868L 150.193 28.9336L 149.977 28.6166L 149.59 28.469L 149.138 28.49L 148.664 28.5537L 147.734 28.5747L 146.529 28.4052L 145.556 28.1101L 145.104 27.4752L 145.126 27.3038L 145.147 27.1343L 145.083 26.924L 144.867 26.7336L 144.631 26.6488L 144.394 26.586L 144.2 26.5013L 142.969 25.655L 142.84 25.634L 142.603 25.5065L 142.431 25.3589L 142.56 25.2532L 142.969 25.1904L 143.163 25.1266L 143.292 24.9981L 143.425 24.5545L 143.313 24.0899L 143.098 23.6682L 142.861 23.4149L 142.28 23.2226L 141.785 23.5625L 141.29 24.0899L 140.274 24.6601L 139.628 25.338L 139.241 25.5493L 137.815 26.0367L 136.804 25.9529L 135.723 26.0577L 135.681 25.8682L 135.917 25.7625L 136.675 25.655L 136.89 25.5065L 136.804 25.2961L 136.459 25.019L 136.222 24.7658L 135.271 24.1327L 134.948 23.8367L 135.25 23.5835L 135.572 23.7101L 136.137 24.1956L 135.723 23.2017L 135.723 21.9537L 135.853 20.8541L 135.788 20.3239L 135.745 20.1125L 135.917 20.0069L 136.287 19.627L 136.137 19.5213L 136.003 19.3528L 135.874 19.31L 136.111 18.9511L 136.287 18.4846L 136.351 17.9763L 136.33 17.5327L 136.395 17.089L 136.653 16.7939L 136.977 16.7301L 137.17 16.9624L 137.299 17.406L 137.449 17.5955L 137.686 17.5327L 138.031 17.2794L 138.267 17.0252L 138.44 16.7092L 138.396 16.435L 137.988 16.3055L 137.772 16.0523L 137.708 15.7144L 137.88 15.3955L 138.246 15.2479L 138.267 15.6277L 138.418 15.7991L 138.594 15.7572L 138.616 15.206L 138.789 15.1213L 139.025 15.1003L 139.241 14.9528L 139.607 14.572L 139.951 14.3825L 140.144 14.0865L 140.08 13.3877L 139.478 10.5308L 139.413 10.4042L 139.241 10.1091L 139.133 9.96154L 138.573 9.45509L 138.594 9.45509L 138.332 9.21995L 137.32 8.71349L 137.191 8.60592L 136.847 8.30985L 136.567 8.16229L 135.853 8.18324L 135.034 8.07852L 134.711 8.07852L 134.368 7.99379L 134.152 7.65584L 133.958 7.23316L 133.743 6.87236L 133.136 6.47348L 132.425 6.25833L 131.672 6.19455L 129.666 6.40779L 129.063 6.23739L 128.112 5.60337L 127.703 5.37108L 127.337 5.07597L 127.121 4.67518L 127.186 4.16587L 127.789 3.38239L 128.026 2.89688L 128.004 2.32664L 127.66 1.9449L 127.186 1.83923L 126.648 1.79734L 126.17 1.60504L 125.589 0.991965L 125.309 0.823464L 124.254 0.781577L 123.217 0.612124L 122.787 0.612124L 121.667 0.844408L 121.189 0.717794L 121.168 0.844408L 121.081 1.20616L 120.844 2.41137L 120.629 3.3405L 120.349 4.71707L 120.156 5.60337L 120.07 5.98321L 120.005 6.34496L 119.79 6.21549L 119.51 6.08888L 118.042 5.35014L 116.595 4.6114L 115.132 3.8679L 113.664 3.15011L 112.2 2.41137L 110.753 1.66978L 109.286 0.929134L 107.843 0.190396L 107.434 0L 107.15 0.21134L 106.935 0.760634L 106.87 1.05575L 106.87 1.28803L 106.935 1.5622L 107.241 2.36853L 107.305 2.64365L 107.327 2.98161L 107.327 3.15011L 107.283 3.46712L 107.064 4.0602L 106.569 5.1388L 106.525 5.26541L 106.504 5.41392L 106.504 5.54054L 106.525 5.66715L 106.569 5.79376L 106.612 5.90134L 106.698 6.19455L 106.72 6.34496L 106.72 6.51346L 106.655 6.97993L 106.655 7.14938L 106.655 7.33883L 106.698 7.48639L 106.741 7.61395L 106.914 7.99379L 106.956 8.12041L 106.978 8.26987L 106.956 8.37363L 106.87 8.54213L 106.332 9.5598L 105.579 10.4042L 104.89 11.6104L 104.648 12.2672L 104.627 12.3939L 104.627 12.4995L 104.671 12.5833L 104.713 12.689L 104.713 12.7946L 104.648 13.0479L 104.218 13.8732L 104.089 14.0236L 103.917 14.1921L 103.594 14.3825L 103.357 14.4673L 103.186 14.572L 103.077 14.6996L 102.992 14.9528L 102.862 15.5011L 102.733 15.7572L 102.647 15.9048L 102.497 16.0523L 102.018 16.3712L 101.846 16.456L 101.717 16.4978L 101.588 16.4769L 101.48 16.435L 101.394 16.3503L 101.309 16.2427L 101.222 16.158L 101.136 16.1161L 101.028 16.137L 100.92 16.2218L 100.554 17.0471L 100.059 18.1676L 99.4528 19.4795L 99.0005 20.5371L 98.8927 20.6847L 98.785 20.8113L 98.6132 20.7903L 97.731 20.4105L 96.6284 19.9221L 95.8752 19.6061L 95.7675 19.627L 95.6597 19.7536L 94.9667 21.1721L 94.8376 21.4472L 94.794 21.7004L 94.794 21.848L 94.7513 22.0165L 94.6872 22.2278L 94.4067 22.8428L 94.3427 23.096L 94.3213 23.2645L 94.4067 24.8715L 94.3854 24.9981L 94.299 25.1266L 94.1485 25.2961L 93.8477 25.5702L 93.6535 25.7835L 93.4604 26.0577L 93.3303 26.4165L 93.2663 26.6279L 93.2449 26.8183L 93.2012 27.7703L 93.1799 27.855L 93.1799 27.8969L 93.1799 28.0235L 93.1799 28.0892L 93.0294 29.1021L 92.9654 29.4191L 92.8567 29.6933L 92.5519 30.3083L 92.1423 31.1546L 91.561 32.3817L 91.4755 32.4864L 91.3678 32.5711L 91.1951 32.5921L 89.7052 32.4026L 88.457 32.2551L 87.3554 32.1046L 86.2354 31.9571L 86.1713 31.9361L 86.1286 31.9152L 86.15 31.8095L 86.1927 31.5772L 86.1927 31.4716L 86.1927 31.3868L 86.1713 31.345L 86.0849 31.2183L 84.9183 29.8437L 84.8319 29.7571L 84.7465 29.7152L 84.6815 29.6933L 82.6753 29.3563L 82.5248 29.3772L 82.4171 29.5248L 82.3307 29.7571L 82.2667 30.2654L 82.288 30.5424L 82.3094 30.7538L 82.353 30.9013L 82.3744 31.0698L 82.353 31.2183L 82.288 31.4506L 81.9871 32.1046L 81.9871 32.1703L 81.9871 32.5921L 82.1803 33.7554L 82.1589 33.9248L 82.0939 34.1143L 81.8144 34.6445L 81.7503 34.9187L 81.6639 35.7869L 81.5989 35.9554L 81.3844 36.1458L 80.9962 36.3781L 80.9108 36.4838L 80.8671 36.6523L 80.8244 36.9293L 80.738 37.1825L 80.5613 37.5014L 80.4759 37.7128L 80.4973 37.9869L 80.5613 38.1554L 80.6953 38.4096L 80.7593 38.5362L 80.803 38.6628L 80.7593 38.8523L 80.6953 39.0427L 80.3895 39.5092L 79.9373 39.9337L 79.7655 40.166L 79.3782 40.841L 78.495 41.9834L 78.4523 42.1319L 78.4309 42.2813L 78.4736 42.5136L 78.5813 42.7668L 78.5813 42.9572L 78.3659 44.608L 78.0174 45.7056L 77.5224 47.2726L 76.9624 48.2017L 75.9724 49.8106L 75.193 51.0367L 74.569 52.0734L 73.7944 53.2977L 73.7721 53.4062L 73.708 54.083L 73.6653 54.2944L 73.2296 55.5824L 72.6705 57.2332L 72.6278 57.5292L 72.6705 57.6349L 72.7132 57.6977L 72.7569 57.7406L 73.1005 57.951L 73.3596 58.0804L 74.0953 58.2918L 74.203 58.3755L 74.3108 58.5231L 74.3748 58.7792L 74.3535 58.9477L 74.3108 59.0952L 74.1167 59.3285L 73.708 59.6874L 73.3596 59.9406L 73.2296 60.0463L 73.0791 60.2148L 72.886 60.4908L 72.8209 60.7022L 72.7996 60.8926L 72.8209 61.0211L 72.8636 61.1477L 72.9287 61.2534L 73.0364 61.3381L 73.3383 61.4647L 73.4499 61.5704L 73.4926 61.8655L 73.4499 62.035L 73.3596 62.1825L 70.8584 64.1921L 70.277 64.9099L 70.1693 65.0366L 70.0402 65.1022L 69.9325 65.1232L 69.8034 65.1232L 69.6957 65.0813L 69.5879 65.0156L 69.5015 64.9099L 69.4375 64.7833L 69.4161 64.6358L 69.3725 64.4035L 69.3298 64.2978L 69.287 64.1921L 69.1793 64.1084L 68.9425 64.0865L 68.7697 64.1084L 68.2495 64.2559L 67.7322 64.5301L 66.8713 65.1232L 65.8551 65.8219L 64.9301 66.6035L 64.0042 67.3851L 63.9178 67.4498L 63.746 67.5346L 63.6557 67.5346L 63.5693 67.5136L 63.5043 67.4498L 63.4402 67.3423L 63.3539 67.2575L 63.2461 67.1947L 63.1384 67.1738L 62.7084 67.1528L 62.6007 67.11L 62.5366 67.0262L 62.493 66.7939L 62.4503 66.7301L 62.3639 66.6882L 62.2775 66.6673L 61.6107 66.6454L 61.4166 66.6673L 61.1972 66.7301L 60.8954 66.8986L 60.7449 67.0471L 60.6372 67.1738L 60.5731 67.3423L 60.5518 67.4927L 60.5295 67.6612L 60.5518 67.8087L 60.5731 67.9572L 60.6372 68.1067L 61.0895 68.6341L 61.1322 68.7826L 61.1322 68.9939L 61.0468 69.31L 60.9391 69.4795L 60.8527 69.627L 59.4968 70.7504L 59.3463 70.8132L 59.2172 70.8132L 58.8251 70.6028L 58.6524 70.6028L 58.4379 70.6656L 57.8565 71.0883L 57.6624 71.1721L 55.3553 71.8689L 53.65 73.1398L 53.4131 73.2455L 53.3491 73.2246L 53.2841 73.1827L 53.22 73.0979L 53.0909 72.9294L 53.0259 72.8238L 52.9182 72.76L 52.7037 72.6315L 51.3642 72.0803L 51.2565 72.0165L 51.0847 71.8899L 50.5247 71.3415L 50.417 71.2568L 50.2665 71.193L 50.0734 71.193L 49.7715 71.2568L 49.5988 71.4044L 49.5133 71.531L 49.4697 71.6576L 49.3843 72.146L 49.3192 72.3563L 49.2328 72.6105L 49.0135 72.9713L 48.8417 73.1398L 48.6913 73.2455L 47.808 73.4987L 47.4644 73.6472L 47.2917 73.7738L 47.1626 73.9005L 46.1901 75.3399L 46.0387 75.4884L 45.8882 75.5931L 45.3505 75.7197L 43.9247 75.8254L 43.6452 75.7835L 42.9998 75.4665L 42.1165 75.1923L 41.9874 75.1285L 41.7681 74.9581L 41.3808 74.5564L 41.2731 74.4726L 41.1654 74.386L 41.0149 74.3222L 40.8858 74.2803L 40.6704 74.2375L 40.154 74.2594L 39.8522 74.3222L 39.5464 74.3441L 39.461 74.3222L 39.1592 74.2165L 38.9223 74.048L 38.836 73.9633L 38.7505 73.8576L 38.4487 73.3721L 38.3633 73.2664L 38.2555 73.1608L 38.0187 73.0132L 36.7871 72.4411L 36.6793 72.3563L 36.5929 72.2516L 36.5075 72.125L 36.4862 71.9746L 36.4425 71.827L 36.4211 71.1302L 36.3998 70.9826L 36.3784 70.8341L 36.3134 70.6866L 36.2494 70.56L 36.1843 70.4543L 36.0979 70.3677L 35.9912 70.3048L 35.0866 69.925L 34.9789 69.8403L 34.9148 69.7327L 34.8934 69.6061L 34.9361 69.4576L 34.9789 69.3528L 35.4739 68.8454L 35.4739 68.8245L 35.4962 68.7607L 35.4962 68.6341L 35.5175 68.4865L 35.4739 68.318L 35.4311 68.1914L 35.3448 68.0648L 35.2594 67.9782L 35.0216 67.8087L 33.9199 69.0777L 32.2156 71.0036L 31.0101 72.3992L 29.1107 74.5564L 27.385 76.5013L 26.89 76.9468L 25.3613 78.0045L 23.6784 79.1678L 21.4353 80.7109L 20.4453 81.642L 20.0746 82.1065L 19.9241 82.4045L 19.9455 82.5949L 20.0959 83.0166L 20.226 83.6288L 20.226 83.7982L 20.226 83.9686L 20.1823 84.1381L 20.1173 84.2647L 20.0532 84.3913L 19.8378 84.5836L 17.9655 85.8716L 17.4656 86.359L 17.2725 86.6332L 17.1861 86.8893L 17.2502 87.332L 17.2939 87.4805L 17.3579 87.7965L 17.3793 88.2192L 17.3793 88.3668L 17.3366 88.5143L 17.3152 88.6647L 17.2502 88.7914L 17.1648 88.918L 16.8416 89.1503L 15.5284 89.8909L 14.1899 90.6515L 13.1999 90.82L 13.0485 90.8838L 12.9369 90.9705L 12.5496 91.5188L 12.2478 92.4927L 12.1401 92.7668L 11.9032 93.1048L 11.8605 93.2105L 11.8605 93.318L 11.9469 93.5713L 11.9683 93.7188L 11.9469 93.8454L 11.8178 93.974L 11.6451 94.1015L 9.33798 94.8193L 7.07361 95.9398L 6.23406 96.5757L 5.97588 96.8708L 5.82447 96.9975L 5.58377 97.1031L 3.38831 97.6524L 1.46752 98.691L 1.31708 98.7329L 0.88226 99.008L 0 100L 2.41481 99.662L 4.83059 99.325L 9.66022 98.6282L 12.076 98.2883L 14.4908 97.9266L 16.9066 97.5677L 19.3214 97.2088L 21.7362 96.8499L 24.152 96.491L 26.5668 96.1302L 28.9816 95.7713L 31.3761 95.3886L 33.7909 95.0297L 36.2066 94.6499L 38.6215 94.291L 39.7444 94.1015L 39.9172 93.9958L 40.3472 93.4865L 40.5413 93.4028L 40.7354 93.3599L 42.332 93.1676L 44.2906 92.9144L 46.4696 92.6402L 46.6627 92.9353L 46.7705 92.9991L 46.9471 93.0201L 47.4644 92.9353L 51.4933 92.3023L 55.5484 91.6901L 59.5831 91.0333L 63.612 90.3764L 67.6681 89.7433L 71.7019 89.0865L 75.7317 88.4087L 79.7655 87.7337L 83.7992 87.0578L 87.8291 86.38L 91.8628 85.6812L 95.8966 84.9844L 99.9303 84.2856L 103.96 83.5659L 107.994 82.8481L 112.028 82.1284L 116.036 81.4078L 120.07 80.6691L 124.082 79.9303L 128.112 79.1887L 132.146 78.4271L 136.158 77.6665L 140.166 76.9049L 144.2 76.1214L 148.212 75.3399L 152.22 74.5564L 156.233 73.7738L 160.263 72.9713L 164.275 72.1669L 168.288 71.3625L 172.295 70.56L 175.683 69.8403L 176.286 69.7117L 176.157 69.4795L 176.007 69.2891L 175.855 69.0777L 175.748 68.6979L 176.716 69.627L 177.776 69.4157L 177.732 69.3738L 177.216 67.8935L 176.889 64.9737L 176.932 64.6567L 177.195 64.6358L 177.496 64.7624L 177.69 64.889L 177.905 65.166L 178.83 67.0262L 178.981 67.1947L 179.325 67.4927L 179.476 67.6821L 179.54 68.0201L 179.519 68.339L 179.563 68.656L 179.761 68.9939L 180.062 68.9302L 180.385 68.8673L 179.89 67.7668L 176.415 62.2035ZM 184.785 24.6602L 184.634 24.7239L 184.59 24.8924L 184.199 25.655L 183.919 26.3747L 183.833 26.7336L 183.726 27.7065L 183.639 27.9607L 183.575 28.2786L 183.424 28.49L 183.187 28.6375L 182.907 28.7223L 182.865 28.8489L 183.058 29.0393L 183.467 29.3982L 183.295 29.5457L 183.079 29.6724L 182.842 29.7361L 182.584 29.778L 182.649 29.9913L 183.36 29.778L 183.876 29.0812L 184.199 28.152L 185 24.5754L 184.785 24.6602ZM 181.483 25.8683L 180.859 26.0786L 179.89 26.4385L 178.787 26.8183L 178.055 27.0925L 177.104 27.4305L 176.566 27.6228L 176.459 27.7913L 176.372 28.2368L 176.286 28.6804L 176.523 28.7432L 176.307 29.1021L 175.963 29.3135L 175.275 29.6095L 174.801 30.0551L 174.345 30.6053L 174.388 30.7748L 174.93 30.5634L 175.619 30.5634L 176.092 30.7957L 176.265 31.1756L 176.157 31.4288L 176.221 31.6611L 176.372 31.8934L 176.631 32.1047L 176.394 32.2123L 175.855 32.2332L 175.705 32.297L 175.619 32.614L 175.705 32.9329L 175.877 33.2071L 176.136 33.3965L 174.844 33.8611L 174.559 33.7983L 174.259 33.6507L 174 33.6717L 173.828 34.0724L 174.388 34.4313L 174.474 34.7921L 174.259 35.2167L 173.871 35.6813L 173.914 35.8926L 174.388 35.787L 174.474 35.9345L 173.871 36.9712L 173.893 37.2054L 174.129 37.6071L 173.612 37.7338L 173.204 37.9023L 172.924 38.2193L 172.774 38.7048L 173.225 39.0427L 172.988 39.256L 172.537 39.4883L 172.187 39.8253L 172.514 39.9757L 172.537 40.208L 172.364 40.5031L 172.102 40.8201L 173.117 41.0105L 172.666 41.4113L 172.295 41.9225L 172.102 42.5984L 172.209 43.4L 172.644 43.0839L 172.88 43.1896L 172.924 43.5056L 172.364 43.9512L 172.187 44.3948L 172.123 44.9241L 172.166 45.4105L 172.343 45.3677L 172.343 45.1783L 172.429 45.1354L 172.558 45.1354L 172.601 45.0935L 172.644 45.3677L 172.558 45.7485L 172.385 46.1283L 172.058 46.4044L 172.252 46.7424L 172.231 47.2936L 172.016 48.3912L 172.209 48.2646L 172.317 48.2227L 172.644 48.2646L 172.343 48.6892L 172.123 49.3879L 172.231 50.0419L 172.816 50.4437L 172.859 50.6122L 172.816 51.0158L 173.591 51.7565L 173.893 52.2848L 174.151 52.876L 174.495 53.0026L 174.822 52.7913L 175.017 52.3267L 175.017 52.0735L 174.909 51.0577L 174.952 50.7607L 175.102 50.4227L 175.296 50.2533L 175.404 50.338L 175.576 51.5432L 175.812 51.8412L 176.307 51.4594L 176.114 51.1843L 175.877 50.5912L 175.726 50.3799L 175.834 49.8315L 175.834 49.1537L 175.468 46.6158L 175.468 46.2778L 175.533 45.9379L 175.855 45.1783L 175.963 44.7975L 175.963 44.5871L 175.877 44.3738L 175.726 43.9302L 175.748 43.5694L 176.049 42.8935L 176.114 42.6612L 176.351 42.408L 178.034 41.7302L 177.797 41.475L 177.474 41.4113L 177.126 41.4322L 176.802 41.3903L 176.91 40.9467L 177.195 40.4402L 177.518 40.187L 177.732 40.5031L 177.948 40.9686L 178.227 41.2428L 178.55 41.4541L 178.809 41.7511L 179.175 41.2218L 179.498 40.5459L 179.761 39.8043L 179.868 39.1265L 179.455 38.979L 179.39 38.2402L 179.519 37.3301L 179.761 36.42L 179.803 35.3643L 180.836 31.366L 181.483 30.2445L 181.547 29.778L 181.202 29.2716L 181.568 29.0393L 181.59 28.8708L 181.439 28.7014L 181.31 28.3843L 181.138 27.7065L 181.073 27.261L 181.117 26.924L 181.375 26.5861L 181.698 26.3538L 181.934 26.0577L 181.913 25.6969L 181.483 25.8683ZM 178.723 43.8436L 178.852 43.2105L 178.852 42.5555L 178.68 42.5984L 178.55 42.9354L 178.206 44.5214L 178.206 44.6718L 178.25 44.8822L 178.4 44.8403L 178.723 43.8436ZM 176.588 49.8106L 176.415 49.8316L 176.459 50.021L 177.216 49.7887L 177.474 49.3032L 177.453 48.5816L 177.237 47.6525L 177.083 47.6944L 176.997 48.2227L 177.018 48.8367L 176.954 49.4298L 176.588 49.8106ZM 178.443 68.6769L 178.12 68.9939L 178.335 69.2681L 178.335 69.31L 178.701 69.2262L 179.11 69.1415L 178.809 68.4237L 178.443 68.6769Z"/>
</defs>
</svg>
