<svg width="214" height="66" viewBox="0 0 214 66" version="1.1" xmlns="http://www.w3.org/2000/svg" xmlns:xlink="http://www.w3.org/1999/xlink">
<title>logo-ko</title>
<desc>Created using Figma</desc>
<g id="Canvas" transform="translate(1475 160)">
<g id="logo-ko">
<use xlink:href="#path0_fill" transform="translate(-1475 -162)" fill="#FFFFFF"/>
</g>
</g>
<defs>
<path id="path0_fill" d="M 4.1748 10.9199L 5.18555 5.71973C 5.3125 5.0459 5.37598 4.57227 5.37598 4.29883C 5.37598 4.23047 5.36133 4.18164 5.33203 4.15234C 5.3125 4.11328 5.19043 4.0791 4.96582 4.0498C 4.74121 4.01074 4.39453 3.99121 3.92578 3.99121C 3.4082 3.99121 3.04199 4.07422 2.82715 4.24023C 2.6123 4.39648 2.38281 4.74805 2.13867 5.29492C 2.11914 5.34375 2.07031 5.36816 1.99219 5.36816C 1.86523 5.36816 1.76758 5.33398 1.69922 5.26562L 2.34375 3.1709C 2.71484 3.27832 3.02246 3.33203 3.2666 3.33203C 3.64746 3.33203 4.14062 3.34668 4.74609 3.37598C 5.35156 3.40527 5.84473 3.41992 6.22559 3.41992C 6.60645 3.41992 7.10938 3.40527 7.73438 3.37598C 8.35938 3.34668 8.8623 3.33203 9.24316 3.33203C 9.45801 3.33203 9.78027 3.27832 10.21 3.1709L 10.0635 5.26562C 9.97559 5.33398 9.86328 5.36816 9.72656 5.36816C 9.63867 5.36816 9.59473 5.34375 9.59473 5.29492C 9.59473 4.76758 9.49707 4.4209 9.30176 4.25488C 9.11621 4.0791 8.79395 3.99121 8.33496 3.99121C 7.36816 3.99121 6.85059 4.06445 6.78223 4.21094C 6.64551 4.50391 6.50879 4.99219 6.37207 5.67578L 5.34668 10.9639C 5.23926 11.501 5.18555 11.9404 5.18555 12.2822C 5.18555 12.3604 5.24902 12.4336 5.37598 12.502C 5.5127 12.5605 5.64453 12.5996 5.77148 12.6191L 5.97656 12.6484C 5.99609 12.6484 6.00586 12.668 6.00586 12.707C 6.00586 12.8145 5.97656 12.9268 5.91797 13.0439C 5.01953 12.9951 4.51172 12.9707 4.39453 12.9707C 4.375 12.9707 3.83789 12.9951 2.7832 13.0439C 2.76367 13.0244 2.75391 12.9854 2.75391 12.9268C 2.75391 12.7412 2.78809 12.6484 2.85645 12.6484C 2.97363 12.6484 3.14941 12.6191 3.38379 12.5605C 3.61816 12.4922 3.75488 12.4141 3.79395 12.3262C 3.94043 11.9941 4.06738 11.5254 4.1748 10.9199ZM 11.4307 6.62793C 11.587 6.62793 11.709 6.70117 11.7969 6.84766C 11.8848 6.98438 11.9288 7.16504 11.9288 7.38965C 11.9288 7.60449 11.8995 7.86328 11.8409 8.16602L 11.6065 9.39648C 11.8506 8.82031 12.212 8.21484 12.6905 7.58008C 13.1788 6.94531 13.5889 6.62793 13.9209 6.62793C 14.253 6.62793 14.5215 6.78418 14.7266 7.09668C 14.7266 7.75098 14.5459 8.07812 14.1846 8.07812C 14.1065 8.07812 14.0137 8.01953 13.9063 7.90234C 13.7989 7.77539 13.6866 7.71191 13.5694 7.71191C 13.2862 7.71191 12.8614 8.13672 12.295 8.98633C 11.7383 9.83594 11.3868 10.6611 11.2403 11.4619L 10.962 13C 10.7959 13.0293 10.6348 13.0439 10.4786 13.0439C 10.293 13.0439 10.1124 13.0293 9.93657 13L 10.8155 8.48828C 10.8643 8.13672 10.8887 7.94141 10.8887 7.90234C 10.8887 7.6582 10.8399 7.53613 10.7422 7.53613C 10.7032 7.53613 10.6495 7.56055 10.5811 7.60938C 10.5127 7.64844 10.4395 7.70215 10.3614 7.77051C 10.293 7.83887 10.2295 7.90234 10.1709 7.96094C 10.1124 8.01953 10.0586 8.07812 10.0098 8.13672C 9.96099 8.19531 9.93657 8.22461 9.93657 8.22461C 9.91704 8.22461 9.87798 8.18066 9.81939 8.09277C 9.77056 7.99512 9.74615 7.92676 9.74615 7.8877C 9.86333 7.69238 10.1075 7.43359 10.4786 7.11133C 10.8594 6.78906 11.1768 6.62793 11.4307 6.62793ZM 18.5987 6.62793C 19.048 6.62793 19.3702 6.74512 19.5655 6.97949C 19.7706 7.2041 19.8731 7.45312 19.8731 7.72656C 19.8731 8.15625 19.6534 8.58105 19.214 9.00098C 18.7745 9.4209 18.2911 9.74805 17.7638 9.98242C 17.2462 10.207 16.8263 10.3193 16.504 10.3193C 16.4649 10.3193 16.4454 10.4902 16.4454 10.832C 16.4454 11.2715 16.5284 11.6084 16.6944 11.8428C 16.8702 12.0674 17.1046 12.1797 17.3976 12.1797C 17.4757 12.1797 17.5489 12.1699 17.6173 12.1504C 17.6954 12.1309 17.7687 12.1064 17.837 12.0771C 17.9054 12.0479 17.9737 12.0186 18.0421 11.9893C 18.1105 11.9502 18.1739 11.9062 18.2325 11.8574C 18.2911 11.8086 18.3448 11.7646 18.3937 11.7256C 18.4523 11.6865 18.5011 11.6475 18.5401 11.6084C 18.589 11.5596 18.6231 11.5205 18.6427 11.4912C 18.672 11.4619 18.6964 11.4375 18.7159 11.418L 18.7599 11.374C 18.7794 11.374 18.8136 11.4229 18.8624 11.5205C 18.921 11.6084 18.9503 11.6719 18.9503 11.7109C 18.8136 11.9453 18.5401 12.2334 18.13 12.5752C 17.7198 12.917 17.3146 13.0879 16.9142 13.0879C 16.4064 13.0879 16.0157 12.8926 15.7423 12.502C 15.4786 12.1016 15.3468 11.5547 15.3468 10.8613C 15.3468 9.92383 15.7032 8.98633 16.4161 8.04883C 17.129 7.10156 17.8565 6.62793 18.5987 6.62793ZM 18.4523 7.22852C 17.9933 7.22852 17.5587 7.56055 17.1485 8.22461C 16.7481 8.87891 16.548 9.38672 16.548 9.74805C 16.548 9.78711 16.5675 9.80664 16.6065 9.80664C 16.9581 9.80664 17.4122 9.57227 17.9689 9.10352C 18.5353 8.63477 18.8185 8.15625 18.8185 7.66797C 18.8185 7.375 18.6964 7.22852 18.4523 7.22852ZM 25.2101 6.62793C 25.5812 6.62793 25.9377 6.69141 26.2795 6.81836L 25.3859 11.4473C 25.3566 11.5645 25.342 11.6865 25.342 11.8135C 25.342 12.0576 25.3908 12.1797 25.4884 12.1797C 25.547 12.1797 25.6154 12.1553 25.6935 12.1064C 25.7814 12.0479 25.8644 11.9795 25.9425 11.9014C 26.0304 11.8232 26.1086 11.75 26.1769 11.6816C 26.2453 11.6035 26.3087 11.5352 26.3673 11.4766L 26.4552 11.374C 26.4748 11.374 26.5089 11.4229 26.5578 11.5205C 26.6164 11.6084 26.6457 11.6719 26.6457 11.7109C 26.5187 11.9258 26.255 12.209 25.8546 12.5605C 25.4543 12.9121 25.1027 13.0879 24.8 13.0879C 24.6437 13.0879 24.5216 13.0195 24.4337 12.8828C 24.3459 12.7363 24.3019 12.5508 24.3019 12.3262C 24.3019 12.1602 24.3361 11.9014 24.4045 11.5498C 24.424 11.4424 24.4386 11.3594 24.4484 11.3008C 24.4679 11.2324 24.4777 11.1885 24.4777 11.1689C 24.38 11.3447 24.2677 11.5254 24.1408 11.7109C 24.0138 11.8867 23.8527 12.0869 23.6574 12.3115C 23.4621 12.5361 23.2521 12.7217 23.0275 12.8682C 22.8127 13.0049 22.6076 13.0732 22.4123 13.0732C 21.9826 13.0732 21.6408 12.8828 21.3869 12.502C 21.1427 12.1113 21.0207 11.6426 21.0207 11.0957C 21.0207 10.4023 21.2257 9.70898 21.6359 9.01562C 22.0558 8.3125 22.5929 7.74121 23.2472 7.30176C 23.9015 6.85254 24.5558 6.62793 25.2101 6.62793ZM 24.5949 7.30176C 24.0187 7.30176 23.4572 7.67773 22.9103 8.42969C 22.3732 9.17188 22.1046 9.95801 22.1046 10.7881C 22.1046 11.7451 22.3537 12.2236 22.8517 12.2236C 23.2033 12.2236 23.5939 11.8672 24.0236 11.1543C 24.463 10.4414 24.756 9.71875 24.9025 8.98633L 25.1955 7.49219C 25.0783 7.36523 24.8781 7.30176 24.5949 7.30176ZM 30.7961 6.58398C 31.3527 6.58398 31.7922 6.76953 32.1145 7.14062C 32.1633 7.25781 32.1877 7.36035 32.1877 7.44824C 32.1877 7.62402 32.1389 7.77539 32.0412 7.90234C 31.9533 8.0293 31.8361 8.09277 31.6897 8.09277C 31.5529 8.09277 31.4309 8.02441 31.3234 7.8877C 31.216 7.74121 31.0793 7.59473 30.9133 7.44824C 30.757 7.30176 30.5471 7.22852 30.2834 7.22852C 30.0783 7.22852 29.9172 7.29688 29.8 7.43359C 29.6828 7.57031 29.6242 7.72656 29.6242 7.90234C 29.6242 8.15625 29.717 8.42969 29.9025 8.72266C 30.0979 9.00586 30.3078 9.25977 30.5324 9.48438C 30.757 9.70898 30.9621 9.98242 31.1477 10.3047C 31.343 10.627 31.4406 10.9541 31.4406 11.2861C 31.4406 11.8232 31.2453 12.2578 30.8547 12.5898C 30.4641 12.9219 29.9611 13.0879 29.3459 13.0879C 28.7893 13.0879 28.3498 12.9023 28.0275 12.5312C 27.9787 12.4531 27.9543 12.3604 27.9543 12.2529C 27.9543 12.0771 27.9983 11.9209 28.0861 11.7842C 28.1838 11.6475 28.3059 11.5791 28.4524 11.5791C 28.5891 11.5791 28.7111 11.6523 28.8186 11.7988C 28.926 11.9355 29.0578 12.0771 29.2141 12.2236C 29.3801 12.3701 29.5949 12.4434 29.8586 12.4434C 30.0734 12.4434 30.2443 12.375 30.3713 12.2383C 30.508 12.0918 30.5764 11.9355 30.5764 11.7695C 30.5764 11.5156 30.4787 11.2471 30.2834 10.9639C 30.0979 10.6709 29.8928 10.4121 29.6682 10.1875C 29.4436 9.96289 29.2336 9.68945 29.0383 9.36719C 28.8527 9.04492 28.76 8.71777 28.76 8.38574C 28.76 7.97559 28.9553 7.5752 29.3459 7.18457C 29.7365 6.78418 30.2199 6.58398 30.7961 6.58398ZM 34.9173 6.62793C 35.0735 6.62793 35.1956 6.70117 35.2835 6.84766C 35.3714 6.98438 35.4153 7.16504 35.4153 7.38965C 35.4153 7.65332 35.386 7.91211 35.3274 8.16602L 34.8147 10.583C 34.7464 10.8662 34.7122 11.1299 34.7122 11.374C 34.7122 11.7939 34.8049 12.0039 34.9905 12.0039C 35.1272 12.0039 35.3225 11.8916 35.5764 11.667C 35.8303 11.4326 36.094 11.1348 36.3674 10.7734C 36.6507 10.4023 36.9143 9.95312 37.1585 9.42578C 37.4124 8.89844 37.5882 8.37598 37.6858 7.8584L 37.9348 6.71582C 38.0618 6.67676 38.2132 6.65723 38.3889 6.65723C 38.5647 6.65723 38.7307 6.67676 38.887 6.71582L 37.9788 11.4473C 37.9495 11.5645 37.9348 11.6865 37.9348 11.8135C 37.9348 12.0576 37.9837 12.1797 38.0813 12.1797C 38.1399 12.1797 38.2083 12.1553 38.2864 12.1064C 38.3743 12.0479 38.4573 11.9795 38.5354 11.9014C 38.6233 11.8232 38.7014 11.75 38.7698 11.6816C 38.8382 11.6035 38.9016 11.5352 38.9602 11.4766L 39.0481 11.374C 39.0676 11.374 39.1018 11.4229 39.1507 11.5205C 39.2092 11.6084 39.2385 11.6719 39.2385 11.7109C 39.1116 11.9258 38.8479 12.209 38.4475 12.5605C 38.0471 12.9121 37.6956 13.0879 37.3928 13.0879C 37.2366 13.0879 37.1145 13.0195 37.0266 12.8828C 36.9387 12.7363 36.8948 12.5508 36.8948 12.3262C 36.8948 12.1699 36.929 11.9111 36.9973 11.5498L 37.261 10.2021C 37.1633 10.3877 36.9632 10.6904 36.6604 11.1104C 36.3577 11.5303 35.9768 11.9648 35.5178 12.4141C 35.0589 12.8633 34.6829 13.0879 34.3899 13.0879C 33.9016 13.0879 33.6575 12.7656 33.6575 12.1211C 33.6575 11.6719 33.7258 11.1396 33.8626 10.5244L 34.302 8.48828C 34.3508 8.13672 34.3753 7.94141 34.3753 7.90234C 34.3753 7.6582 34.3264 7.53613 34.2288 7.53613C 34.1897 7.53613 34.136 7.56055 34.0676 7.60938C 33.9993 7.64844 33.926 7.70215 33.8479 7.77051C 33.7796 7.83887 33.7161 7.90234 33.6575 7.96094C 33.5989 8.01953 33.5452 8.07812 33.4964 8.13672C 33.4475 8.19531 33.4231 8.22461 33.4231 8.22461C 33.4036 8.22461 33.3645 8.18066 33.3059 8.09277C 33.2571 7.99512 33.2327 7.92676 33.2327 7.8877C 33.3499 7.69238 33.594 7.43359 33.9651 7.11133C 34.346 6.78906 34.6633 6.62793 34.9173 6.62793ZM 42.554 6.62793C 42.7103 6.62793 42.8323 6.70117 42.9202 6.84766C 43.0081 6.98438 43.0521 7.16504 43.0521 7.38965C 43.0521 7.60449 43.0228 7.86328 42.9642 8.16602L 42.7298 9.39648C 42.9739 8.82031 43.3353 8.21484 43.8138 7.58008C 44.3021 6.94531 44.7122 6.62793 45.0443 6.62793C 45.3763 6.62793 45.6448 6.78418 45.8499 7.09668C 45.8499 7.75098 45.6693 8.07812 45.3079 8.07812C 45.2298 8.07812 45.137 8.01953 45.0296 7.90234C 44.9222 7.77539 44.8099 7.71191 44.6927 7.71191C 44.4095 7.71191 43.9847 8.13672 43.4183 8.98633C 42.8616 9.83594 42.5101 10.6611 42.3636 11.4619L 42.0853 13C 41.9193 13.0293 41.7581 13.0439 41.6019 13.0439C 41.4163 13.0439 41.2357 13.0293 41.0599 13L 41.9388 8.48828C 41.9876 8.13672 42.012 7.94141 42.012 7.90234C 42.012 7.6582 41.9632 7.53613 41.8655 7.53613C 41.8265 7.53613 41.7728 7.56055 41.7044 7.60938C 41.6361 7.64844 41.5628 7.70215 41.4847 7.77051C 41.4163 7.83887 41.3528 7.90234 41.2943 7.96094C 41.2357 8.01953 41.1819 8.07812 41.1331 8.13672C 41.0843 8.19531 41.0599 8.22461 41.0599 8.22461C 41.0403 8.22461 41.0013 8.18066 40.9427 8.09277C 40.8939 7.99512 40.8694 7.92676 40.8694 7.8877C 40.9866 7.69238 41.2308 7.43359 41.6019 7.11133C 41.9827 6.78906 42.3001 6.62793 42.554 6.62793ZM 48.6088 6.62793C 48.9017 6.62793 49.141 6.87695 49.3265 7.375C 49.5218 7.87305 49.6537 8.52734 49.722 9.33789C 49.7904 10.1387 49.8343 10.7686 49.8539 11.2275C 49.8734 11.6768 49.8832 12.1309 49.8832 12.5898C 50.264 12.1211 50.6449 11.5254 51.0257 10.8027C 51.4066 10.0703 51.597 9.41113 51.597 8.8252C 51.597 8.24902 51.475 7.72656 51.2308 7.25781C 51.3578 6.83789 51.6019 6.62793 51.9632 6.62793C 52.3929 6.62793 52.6078 7.01367 52.6078 7.78516C 52.6078 8.85938 52.1879 10.0947 51.348 11.4912C 50.5082 12.8779 49.556 14.0449 48.4916 14.9922C 47.4369 15.9395 46.5824 16.4131 45.9281 16.4131C 45.6742 16.4131 45.4642 16.3545 45.2982 16.2373C 45.1322 16.1201 45.0492 15.9785 45.0492 15.8125C 45.0492 15.5 45.1615 15.2852 45.3861 15.168C 45.6009 15.2949 45.9281 15.3584 46.3675 15.3584C 47.1781 15.3584 47.8812 14.9238 48.4769 14.0547C 48.7015 13.7227 48.8138 13.0684 48.8138 12.0918C 48.8138 11.6133 48.7992 11.1396 48.7699 10.6709C 48.7504 10.1924 48.7064 9.7041 48.6381 9.20605C 48.5795 8.70801 48.4867 8.30762 48.3597 8.00488C 48.2425 7.69238 48.1009 7.53613 47.9349 7.53613C 47.847 7.53613 47.7152 7.61914 47.5394 7.78516C 47.3636 7.95117 47.2269 8.09766 47.1293 8.22461C 47.1097 8.22461 47.0707 8.18066 47.0121 8.09277C 46.9632 7.99512 46.9388 7.92676 46.9388 7.8877C 46.9974 7.74121 47.2269 7.49707 47.6273 7.15527C 48.0375 6.80371 48.3646 6.62793 48.6088 6.62793ZM 60.7915 7.22852C 60.3032 7.22852 59.8589 7.61426 59.4585 8.38574C 59.0581 9.14746 58.8579 9.91406 58.8579 10.6855C 58.8579 11.252 58.9458 11.6914 59.1216 12.0039C 59.3071 12.3164 59.5366 12.4727 59.81 12.4727C 60.2983 12.4727 60.728 12.0918 61.0991 11.3301C 61.48 10.5586 61.6704 9.78223 61.6704 9.00098C 61.6704 8.4248 61.5923 7.98535 61.436 7.68262C 61.2798 7.37988 61.0649 7.22852 60.7915 7.22852ZM 60.9673 6.62793C 61.5434 6.62793 61.9878 6.82812 62.3003 7.22852C 62.6225 7.62891 62.7837 8.18066 62.7837 8.88379C 62.7837 9.88965 62.4272 10.8418 61.7143 11.7402C 61.0112 12.6289 60.2886 13.0732 59.5464 13.0732C 58.9604 13.0732 58.5112 12.8828 58.1987 12.502C 57.896 12.1211 57.7446 11.5791 57.7446 10.876C 57.7446 9.86035 58.0962 8.89844 58.7993 7.99023C 59.5024 7.08203 60.2251 6.62793 60.9673 6.62793ZM 69.1753 2.76074C 69.8003 2.76074 70.2007 2.92676 70.3765 3.25879C 70.3765 3.89355 70.2007 4.21094 69.8491 4.21094C 69.7124 4.21094 69.5806 4.1377 69.4536 3.99121C 69.3365 3.84473 69.2095 3.69824 69.0728 3.55176C 68.9458 3.39551 68.8042 3.31738 68.648 3.31738C 68.3355 3.31738 68.0034 3.63965 67.6519 4.28418C 67.3003 4.91895 67.0269 5.80762 66.8316 6.9502L 66.8316 6.97949C 66.8316 7.01855 66.8462 7.03809 66.8755 7.03809L 68.5601 7.03809C 68.6089 7.03809 68.6333 7.09668 68.6333 7.21387C 68.6333 7.37012 68.5796 7.53613 68.4722 7.71191L 66.7583 7.71191C 66.7095 7.71191 66.6802 7.75098 66.6704 7.8291L 65.8648 12.209C 65.6304 13.5664 65.2154 14.6016 64.6197 15.3145C 64.0337 16.0273 63.3941 16.3838 62.7007 16.3838C 62.3589 16.3838 62.0904 16.3203 61.895 16.1934C 61.6997 16.0762 61.5728 15.9395 61.5142 15.7832C 61.5044 15.5586 61.5581 15.3584 61.6753 15.1826C 61.7925 15.0068 61.939 14.9189 62.1148 14.9189C 62.2027 14.9189 62.2857 14.9629 62.3638 15.0508C 62.4419 15.1484 62.5103 15.251 62.5689 15.3584C 62.6275 15.4756 62.7154 15.5781 62.8325 15.666C 62.94 15.7637 63.062 15.8125 63.1988 15.8125C 63.3843 15.8125 63.5699 15.6953 63.7554 15.4609C 63.9409 15.2363 64.0972 14.9482 64.2241 14.5967C 64.3609 14.2549 64.4732 13.9277 64.5611 13.6152C 64.6587 13.3027 64.7271 13.0244 64.7661 12.7803L 65.645 7.81445L 65.645 7.78516C 65.645 7.73633 65.6304 7.71191 65.6011 7.71191L 64.649 7.71191C 64.6294 7.71191 64.6197 7.69727 64.6197 7.66797C 64.6197 7.58008 64.6978 7.45312 64.854 7.28711C 65.0103 7.12109 65.1665 7.03809 65.3228 7.03809L 65.7476 7.03809C 65.7866 7.03809 65.8159 6.99414 65.8355 6.90625C 66.0308 5.70508 66.4507 4.71387 67.0952 3.93262C 67.7398 3.15137 68.4331 2.76074 69.1753 2.76074ZM 4.2 67L 0.52 32.64L 7.24 32.64L 9.16 54.32L 11.08 32.64L 17.48 32.64L 19.32 54.32L 21.16 32.64L 27.96 32.64L 24.2 67L 15.96 67L 14.24 50.44L 12.6 67L 4.2 67ZM 31.2597 67L 31.2597 32.64L 45.0197 32.64L 45.0197 39.28L 38.2597 39.28L 38.2597 45.96L 44.7397 45.96L 44.7397 52.44L 38.2597 52.44L 38.2597 60.32L 45.4597 60.32L 45.4597 67L 31.2597 67ZM 48.0873 67L 51.4073 32.64L 63.0473 32.64L 66.3273 67L 59.8073 67L 59.3273 61.44L 55.1673 61.44L 54.7673 67L 48.0873 67ZM 55.6873 55.96L 58.8073 55.96L 57.2873 38.48L 56.9673 38.48L 55.6873 55.96ZM 69.6845 32.64L 80.2445 32.64C 81.9245 32.64 83.2178 33.0267 84.1245 33.8C 85.0578 34.5467 85.6845 35.6133 86.0045 37C 86.3245 38.36 86.4845 40.1067 86.4845 42.24C 86.4845 44.1867 86.2311 45.7067 85.7245 46.8C 85.2178 47.8933 84.3378 48.6533 83.0845 49.08C 84.1245 49.2933 84.8711 49.8133 85.3245 50.64C 85.8045 51.4667 86.0445 52.5867 86.0445 54L 85.9645 67L 79.2445 67L 79.2445 53.56C 79.2445 52.6 79.0578 51.9867 78.6845 51.72C 78.3111 51.4533 77.6311 51.32 76.6445 51.32L 76.6445 67L 69.6845 67L 69.6845 32.64ZM 78.3245 45.36C 79.2845 45.36 79.7645 44.32 79.7645 42.24C 79.7645 41.3333 79.7245 40.6533 79.6445 40.2C 79.5645 39.7467 79.4178 39.44 79.2045 39.28C 78.9911 39.0933 78.6845 39 78.2845 39L 76.6845 39L 76.6845 45.36L 78.3245 45.36ZM 94.1701 67L 94.1701 55.68L 88.6901 32.64L 95.4901 32.64L 97.4101 44.28L 99.3301 32.64L 106.13 32.64L 100.65 55.68L 100.65 67L 94.1701 67ZM 127.923 67.32C 124.803 67.32 122.55 66.5467 121.163 65C 119.776 63.4533 119.083 60.96 119.083 57.52L 119.083 54.16L 125.843 54.16L 125.843 58.44C 125.843 60.1467 126.39 61 127.483 61C 128.096 61 128.523 60.8267 128.763 60.48C 129.003 60.1067 129.123 59.4933 129.123 58.64C 129.123 57.52 128.99 56.6 128.723 55.88C 128.456 55.1333 128.11 54.52 127.683 54.04C 127.283 53.5333 126.55 52.76 125.483 51.72L 122.523 48.76C 120.23 46.52 119.083 44.04 119.083 41.32C 119.083 38.3867 119.75 36.16 121.083 34.64C 122.443 33.0933 124.416 32.32 127.003 32.32C 130.096 32.32 132.323 33.1467 133.683 34.8C 135.043 36.4267 135.723 38.9867 135.723 42.48L 128.723 42.48L 128.683 40.12C 128.683 39.6667 128.55 39.3067 128.283 39.04C 128.043 38.7733 127.696 38.64 127.243 38.64C 126.71 38.64 126.31 38.7867 126.043 39.08C 125.776 39.3733 125.643 39.7733 125.643 40.28C 125.643 41.4 126.283 42.56 127.563 43.76L 131.563 47.6C 132.496 48.5067 133.27 49.3733 133.883 50.2C 134.496 51 134.99 51.96 135.363 53.08C 135.736 54.1733 135.923 55.48 135.923 57C 135.923 60.3867 135.296 62.96 134.043 64.72C 132.816 66.4533 130.776 67.32 127.923 67.32ZM 147.664 67.32C 144.89 67.32 142.784 66.48 141.344 64.8C 139.904 63.0933 139.184 60.7067 139.184 57.64L 139.184 41.28C 139.184 38.32 139.904 36.0933 141.344 34.6C 142.784 33.08 144.89 32.32 147.664 32.32C 150.437 32.32 152.544 33.08 153.984 34.6C 155.424 36.0933 156.144 38.32 156.144 41.28L 156.144 57.64C 156.144 60.7333 155.424 63.12 153.984 64.8C 152.544 66.48 150.437 67.32 147.664 67.32ZM 147.664 61C 148.277 61 148.69 60.7333 148.904 60.2C 149.117 59.6667 149.224 58.92 149.224 57.96L 149.224 41.16C 149.224 40.4133 149.117 39.8133 148.904 39.36C 148.717 38.88 148.317 38.64 147.704 38.64C 146.557 38.64 145.984 39.5067 145.984 41.24L 145.984 58C 145.984 58.9867 146.104 59.7333 146.344 60.24C 146.584 60.7467 147.024 61 147.664 61ZM 168.14 67.32C 165.313 67.32 163.207 66.52 161.82 64.92C 160.46 63.32 159.78 60.9467 159.78 57.8L 159.78 32.64L 166.46 32.64L 166.46 57.52C 166.46 58.6133 166.567 59.4667 166.78 60.08C 166.993 60.6933 167.447 61 168.14 61C 168.833 61 169.287 60.7067 169.5 60.12C 169.713 59.5067 169.82 58.64 169.82 57.52L 169.82 32.64L 176.5 32.64L 176.5 57.8C 176.5 60.9467 175.807 63.32 174.42 64.92C 173.06 66.52 170.967 67.32 168.14 67.32ZM 180.388 67L 180.388 32.64L 187.268 32.64L 187.268 61.16L 194.348 61.16L 194.348 67L 180.388 67ZM 205.71 67.32C 202.59 67.32 200.337 66.5467 198.95 65C 197.563 63.4533 196.87 60.96 196.87 57.52L 196.87 54.16L 203.63 54.16L 203.63 58.44C 203.63 60.1467 204.177 61 205.27 61C 205.883 61 206.31 60.8267 206.55 60.48C 206.79 60.1067 206.91 59.4933 206.91 58.64C 206.91 57.52 206.777 56.6 206.51 55.88C 206.243 55.1333 205.897 54.52 205.47 54.04C 205.07 53.5333 204.337 52.76 203.27 51.72L 200.31 48.76C 198.017 46.52 196.87 44.04 196.87 41.32C 196.87 38.3867 197.537 36.16 198.87 34.64C 200.23 33.0933 202.203 32.32 204.79 32.32C 207.883 32.32 210.11 33.1467 211.47 34.8C 212.83 36.4267 213.51 38.9867 213.51 42.48L 206.51 42.48L 206.47 40.12C 206.47 39.6667 206.337 39.3067 206.07 39.04C 205.83 38.7733 205.483 38.64 205.03 38.64C 204.497 38.64 204.097 38.7867 203.83 39.08C 203.563 39.3733 203.43 39.7733 203.43 40.28C 203.43 41.4 204.07 42.56 205.35 43.76L 209.35 47.6C 210.283 48.5067 211.057 49.3733 211.67 50.2C 212.283 51 212.777 51.96 213.15 53.08C 213.523 54.1733 213.71 55.48 213.71 57C 213.71 60.3867 213.083 62.96 211.83 64.72C 210.603 66.4533 208.563 67.32 205.71 67.32Z"/>
</defs>
</svg>
