<svg width="91" height="142" viewBox="0 0 91 142" version="1.1" xmlns="http://www.w3.org/2000/svg" xmlns:xlink="http://www.w3.org/1999/xlink">
<title>alabama-icon</title>
<desc>Created using Figma</desc>
<g id="Canvas" transform="translate(2117 332)">
<g id="alabama-icon">
<use xlink:href="#path0_fill" transform="translate(-2117 -332)" fill="#B5B5B5"/>
</g>
</g>
<defs>
<path id="path0_fill" fill-rule="evenodd" d="M 90.914 109.88L 90.6356 109.606L 90.1427 108.339L 89.3918 107.219L 88.5944 106.416L 88.059 106.227L 87.7371 105.91L 87.6511 105.465L 87.6298 104.428L 87.5448 104.177L 87.2442 103.65L 87.1804 103.437L 87.2017 103.142L 87.4588 102.658L 87.5448 102.383L 87.394 100.208L 87.4153 99.1521L 87.8444 98.4117L 87.48 97.6294L 87.5448 97.0391L 87.7371 96.4679L 87.8019 95.7721L 87.6946 95.3929L 87.394 94.8634L 87.3302 94.6534L 87.2017 93.8901L 87.0944 93.5337L 86.8161 93.0489L 85.8254 92.0138L 85.5461 91.569L 84.453 88.5292L 84.2181 87.977L 84.2819 87.3468L 84.2819 87.1776L 84.3032 87.0284L 84.3679 86.6491L 84.4317 85.6768L 84.7536 84.5371L 85.289 83.3328L 85.375 83.1836L 85.5248 82.7426L 85.5461 82.6371L 85.5248 81.9185L 85.2465 81.3073L 85.2465 80.6514L 85.4185 80.1458L 85.4398 79.7637L 85.3325 79.0689L 85.3325 78.8132L 85.5896 77.8437L 85.7181 77.567L 85.8679 77.4416L 86.1898 77.3332L 86.5802 77.1669L 86.9659 76.935L 87.223 76.6821L 86.7938 76.4692L 86.8373 76.2373L 87.2017 76.09L 87.6511 76.2164L 87.8444 76.0472L 88.0155 75.8153L 88.0377 75.5206L 87.8444 75.2022L 88.059 75.1604L 88.2523 75.0549L 88.4021 74.8648L 88.4446 74.6328L 88.3586 74.4437L 88.2523 74.4009L 88.144 74.38L 87.9517 74.0834L 87.6946 73.9352L 86.4517 73.4295L 85.9114 73.0265L 85.7394 72.5208L 86.1898 71.8887L 86.0177 71.5912L 86.0825 71.2966L 86.211 70.9591L 86.1898 70.5979L 86.1038 70.2168L 85.8467 69.8394L 85.5461 69.4583L 85.289 69.0553L 85.0532 68.1694L 84.9034 67.812L 84.5603 67.39L 82.606 65.488L 82.6911 65.0878L 82.4775 64.8987L 82.1556 64.7485L 81.9846 64.4957L 81.9623 63.99L 81.8986 63.6288L 81.5767 63.0813L 81.2935 62.1308L 81.0577 61.8143L 80.8006 61.5615L 80.6721 61.3086L 80.8228 61.0111L 80.6721 60.84L 80.1154 60.379L 79.9433 60.2308L 79.7935 60.0388L 79.6862 59.8287L 79.6215 59.5949L 79.579 58.7727L 78.5245 56.8308L 78.5458 56.5761L 78.2027 55.501L 78.1602 55.3299L 78.0104 54.8661L 77.7745 54.1266L 77.4527 53.1143L 77.0458 51.8454L 76.5693 50.3674L 76.0339 48.7002L 75.4337 46.8201L 74.7687 44.7917L 74.0787 42.6188L 73.3499 40.3376L 72.5999 37.93L 71.8026 35.4577L 71.0091 32.9237L 70.1953 30.3478L 69.3545 27.75L 68.5397 25.1533L 67.7259 22.5755L 66.9286 20.0205L 66.1351 17.5492L 65.3851 15.1634L 64.6737 12.8613L 63.9875 10.7094L 63.3448 8.66007L 62.7659 6.80088L 62.2256 5.10992L 61.7752 3.63474L 61.3683 2.38672L 61.0678 1.37443L 60.8107 0.614027L 60.6821 0.148279L 60.6396 0L 56.9012 0.422025L 53.1889 0.845951L 49.4718 1.26893L 45.7595 1.69095L 42.0424 2.11298L 38.3088 2.51314L 34.5917 2.9133L 30.8746 3.31632L 27.1623 3.69747L 23.4239 4.07672L 19.7116 4.45693L 15.9945 4.83618L 12.2609 5.21543L 8.54378 5.57567L 4.81023 5.93686L 1.0931 6.29521L 0.27835 6.35794L 0 6.37885L 0.343104 7.09648L 0.90077 8.19432L 1.54349 8.95567L 2.36211 9.39766L 2.79123 9.39766L 2.79123 9.86151L 2.79123 11.1304L 2.79123 11.8471L 2.79123 14.5313L 2.79123 16.4514L 2.79123 18.7107L 2.79123 21.2875L 2.79123 24.1391L 2.76996 27.2425L 2.76996 30.5588L 2.74774 34.0643L 2.74774 37.7171L 2.72647 41.4991L 2.72647 45.3838L 2.70521 49.3113L 2.66268 57.25L 2.66268 61.2003L 2.61919 65.0878L 2.61919 68.868L 2.59793 72.5417L 2.57667 76.0263L 2.5554 79.3635L 2.53317 82.4688L 2.51191 85.3184L 2.49065 87.8924L 2.46939 90.1546L 2.44812 92.0775L 2.44812 93.6183L 2.42686 94.7798L 2.42686 95.4774L 2.42686 95.7303L 2.83375 98.3698L 3.24065 101.008L 3.64851 103.65L 4.07666 106.289L 4.48452 108.929L 4.89625 111.566L 5.71003 116.849L 6.11789 119.488L 6.54605 122.125L 6.95391 124.768L 7.36466 127.408L 7.77252 130.047L 8.20068 132.686L 9.01543 137.967L 9.62046 137.735L 10.1346 137.396L 10.6275 137.354L 11.1417 137.946L 11.2925 137.946L 11.335 137.777L 11.3775 137.672L 11.421 137.564L 11.421 137.354L 12.1111 137.609L 13.6759 137.799L 14.4297 137.988L 14.2799 138.599L 14.3447 138.876L 14.6018 138.938L 15.0299 138.938L 15.0299 138.918L 15.545 138.876L 15.6088 138.981L 15.6736 139.149L 15.8021 139.213L 16.0592 139.002L 16.1665 138.639L 16.1878 136.553L 16.0157 135.37L 16.0157 134.862L 16.1452 133.888L 16.1452 133.426L 16.1665 133.174L 16.3588 132.811L 16.4023 132.602L 16.3163 132.075L 16.3163 131.822L 16.3801 131.607L 16.6169 131.272L 16.7706 130.956L 16.8353 130.576L 16.7918 130.005L 16.8778 129.52L 17.0711 129.2L 17.1775 128.907L 16.9851 128.528L 17.2847 128.253L 17.4355 127.893L 17.392 127.492L 17.1775 127.113L 17.5206 127.155L 17.6926 127.366L 17.7776 127.724L 17.7999 128.145L 17.9062 128.464L 18.0995 128.528L 18.3788 128.506L 18.6784 128.528L 19.2612 128.759L 19.583 129.075L 20.5689 131.145L 20.7622 131.716L 20.7187 132.138L 20.5263 132.497L 20.3118 133.026L 20.1832 133.595L 20.1832 134.082L 20.2693 134.23L 20.4829 134.441L 20.6762 134.735L 20.8047 135.071L 20.8694 135.412L 20.9545 135.707L 21.1265 135.96L 21.3401 136.192L 21.5595 136.338L 21.7953 136.468L 22.0524 136.553L 22.3308 136.574L 22.7164 136.553L 22.7377 136.489L 22.6739 136.359L 22.9735 135.94L 23.0383 135.791L 23.1455 135.77L 23.3814 135.981L 23.4451 136.171L 23.2953 136.826L 23.2741 137.143L 23.4886 137.457L 24.8002 138.431L 25.2071 139.34L 24.5643 139.885L 23.4451 140.332L 22.5666 140.733L 21.5595 140.648L 20.998 140.226L 20.8047 140.332L 20.6974 140.543L 20.4829 140.69L 19.5618 141.026L 19.0215 141.325L 18.7644 141.642L 19.5618 141.557L 21.7093 140.962L 24.7789 140.627L 27.9983 139.822L 29.5244 139.002L 30.0386 137.861L 29.8462 138.009L 29.5891 138.114L 29.3311 138.178L 29.0527 138.178L 29.16 137.693L 29.0315 137.396L 28.8169 137.122L 28.7319 136.658L 28.8817 136.637L 29.0102 136.805L 29.4819 137.143L 29.6529 137.375L 29.6954 137.541L 29.8027 137.65L 30.2106 137.672L 30.7673 137.478L 31.0253 137.101L 31.2003 136.721L 31.5434 136.532L 32.1436 136.295L 32.4007 135.918L 32.5302 135.433L 32.7438 134.946L 33.6909 133.806L 33.6909 133.553L 33.8842 133.511L 33.5846 133.406L 33.344 133.257L 33.1294 133.068L 32.9371 132.855L 32.9158 132.665L 33.0869 132.748L 33.0656 132.727L 32.4654 131.419L 32.3369 130.977L 32.3581 130.851L 32.4219 130.598L 32.765 129.795L 32.8723 129.033L 32.9158 128.038L 32.8945 127.619L 32.8298 127.323L 32.7225 127.24L 32.5079 127.091L 30.3817 126.099L 30.0173 125.867L 29.6104 125.422L 28.9889 124.553L 28.8169 124.345L 27.5054 123.329L 27.1835 123.015L 26.8839 122.656L 26.7554 122.424L 26.6906 122.211L 26.6906 122.043L 26.7119 121.853L 26.7766 121.558L 27.1623 120.418L 27.1835 120.27L 26.9912 118.961L 27.0975 118.537L 28.2129 118.41L 32.1223 117.989L 36.053 117.523L 39.9586 117.081L 43.869 116.638L 47.7746 116.172L 51.7054 115.708L 55.6148 115.221L 59.5204 114.758L 63.4299 114.273L 67.3393 113.786L 71.2449 113.301L 75.1553 112.793L 79.0609 112.287L 82.9491 111.781L 86.8586 111.252L 90.7642 110.746L 90.828 110.62L 90.9565 110.404L 91 110.174L 90.914 109.88ZM 16.6381 140.375L 16.4448 140.522L 16.2738 140.733L 16.0592 140.901L 15.6948 140.984L 14.3224 141.135L 12.0676 141.747L 11.7419 142L 17.1997 141.199L 17.3495 141.157L 17.6713 140.984L 17.65 140.796L 16.6381 140.375Z"/>
</defs>
</svg>
