<svg width="128" height="127" viewBox="0 0 128 127" version="1.1" xmlns="http://www.w3.org/2000/svg" xmlns:xlink="http://www.w3.org/1999/xlink">
<title>georgia-icon</title>
<desc>Created using Figma</desc>
<g id="Canvas" transform="translate(2049 345)">
<g id="georgia-icon">
<use xlink:href="#path0_fill" transform="translate(-2049 -345)" fill="#B5B5B5"/>
</g>
</g>
<defs>
<path id="path0_fill" fill-rule="evenodd" d="M 127.612 75.0099L 127.177 74.9679L 126.832 75.0099L 126.552 74.946L 126.53 74.9041L 126.509 74.9041L 126.013 74.946L 125.539 74.8621L 125.13 74.6296L 124.889 74.2893L 124.695 74.0987L 123.639 73.8242L 123.079 73.7822L 121.696 74.1416L 121.459 74.0548L 120.618 73.3142L 120.468 73.2303L 120.187 73.1245L 120.054 73.0187L 119.946 72.8262L 119.925 72.6804L 119.967 72.5536L 119.946 72.4688L 119.364 71.6405L 119.256 71.4527L 119.256 71.1563L 119.408 70.6254L 119.429 70.4338L 119.256 69.7141L 119.235 69.3977L 119.278 69.1232L 119.408 68.7209L 119.385 68.3597L 119.235 67.7887L 118.955 67.3217L 118.61 67.0472L 118.223 66.9833L 117.076 64.8015L 116.947 63.9351L 116.753 63.4681L 116.386 63.3203L 116.041 63.2565L 115.869 63.0029L 115.762 62.7046L 115.632 62.472L 115.482 62.3881L 114.917 62.1956L 114.81 62.2166L 114.68 62.1556L 114.249 61.7953L 114.033 61.6475L 113.796 61.5189L 113.559 61.455L 112.823 61.434L 112.284 61.2863L 111.788 61.0537L 111.444 60.8002L 111.121 60.3779L 111.077 59.9528L 111.142 59.5086L 111.121 58.9568L 111.034 58.7661L 110.884 58.5765L 110.711 58.4068L 110.581 58.3648L 110.496 58.2381L 110.539 57.9188L 110.539 57.5804L 110.647 57.3478L 110.625 56.9675L 110.383 56.5424L 110.082 56.204L 109.866 55.7818L 109.781 55.3776L 109.629 54.9554L 109.263 54.2129L 107.665 52.3085L 107.341 52.1159L 107.255 51.5641L 107.276 50.5709L 107.126 50.1057L 106.802 49.5748L 106.415 49.1507L 106.07 49.0048L 105.527 49.0048L 105.139 48.8352L 104.342 48.3052L 103.265 47.903L 101.02 47.394L 100.045 46.8211L 99.8519 46.4637L 99.507 45.3618L 99.3127 45.1512L 98.7744 45.2141L 98.3178 45.1293L 97.8865 44.8319L 97.4124 44.2609L 97.7145 43.9864L 97.7359 43.6881L 97.5202 43.3917L 97.0461 43.1381L 97.3482 42.9055L 97.3045 42.713L 97.1326 42.6501L 96.8304 42.5862L 96.572 42.6082L 96.4641 42.7578L 96.4 42.9055L 96.163 42.7578L 94.9515 41.7198L 94.7144 41.3376L 95.0166 41.105L 94.6289 40.4493L 94.6503 40.2357L 95.0166 40.109L 94.7368 39.7268L 94.5852 39.6019L 94.6717 38.9652L 94.2413 38.522L 93.159 38.033L 92.5994 37.6527L 91.3714 36.5518L 90.806 36.2344L 90.2891 36.0647L 89.1038 35.917L 88.5617 35.7692L 87.9361 35.4928L 87.3765 35.0486L 86.881 34.2852L 86.5788 33.6933L 86.1008 33.1843L 85.6054 31.9766L 84.8291 31.3218L 83.4894 30.4525L 82.3468 29.7977L 81.3306 29.3516L 80.5116 29.119L 79.6926 28.7597L 79.0203 28.2078L 78.5249 27.6788L 78.0721 27.3605L 77.598 27.4253L 77.189 27.3605L 76.8441 27.085L 76.5381 26.3873L 76.1718 25.7515L 75.8055 25.009L 75.5471 24.7345L 74.9438 24.5229L 74.6854 24.1636L 74.2977 23.422L 74.0558 23.1656L 73.7333 22.893L 73.3884 22.6585L 72.8064 22.5318L 72.3323 22.0666L 72.138 21.9608L 71.9447 21.6015L 71.1218 19.251L 70.8196 18.6362L 69.135 16.7947L 68.8766 16.5831L 68.4025 15.7128L 68.1654 14.9722L 67.7992 14.2745L 66.6955 13.8075L 65.0585 14.04L 63.9548 14.2536L 63.1145 13.9562L 62.6841 13.573L 62.1886 12.9811L 61.6455 12.7275L 61.0198 12.1566L 60.0726 11.7954L 59.8355 11.478L 59.7491 11.0957L 59.5723 11.0748L 59.0127 11.3302L 58.1723 11.0528L 55.7979 9.99674L 54.8924 9.08552L 54.9351 7.8569L 55.2587 7.30788L 55.3238 7.05148L 55.3238 6.81891L 55.3014 6.58634L 55.3238 6.37283L 55.3879 6.20412L 55.5171 5.78092L 55.7979 5.44254L 56.1204 5.16803L 56.3788 4.85063L 56.5518 4.40551L 56.7674 3.47236L 56.918 3.02914L 57.1337 2.69077L 57.978 1.86438L 58.2578 1.65087L 58.8611 1.37541L 59.0981 1.07993L 59.2487 0.741559L 59.3352 0.382217L 59.3138 0.041939L 59.2925 0L 57.5039 0.297386L 55.7328 0.593819L 53.9617 0.868329L 52.1692 1.16476L 50.3806 1.46024L 48.6095 1.7357L 46.817 2.03309L 45.0459 2.3076L 43.2574 2.58497L 39.6938 3.15591L 37.9003 3.43042L 36.1341 3.70493L 34.3416 3.9804L 32.5482 4.25681L 30.7819 4.53132L 28.6873 4.72195L 26.4421 4.91449L 24.7575 5.06223L 24.5855 5.02029L 23.7665 5.12609L 20.7839 5.54834L 17.8285 5.95058L 14.8508 6.35186L 11.8731 6.756L 8.91184 7.13631L 5.9341 7.51853L 2.95636 7.92076L 0 8.30107L 0.0437188 8.44881L 0.172932 8.91586L 0.431359 9.67934L 0.732533 10.6935L 1.14252 11.945L 1.59428 13.4253L 2.13737 15.12L 2.71931 16.9853L 3.36635 19.0394L 4.05516 21.1983L 4.77118 23.5068L 5.52509 25.8993L 6.32174 28.3765L 7.12326 30.9386L 7.94225 33.5245L 8.76125 36.1286L 9.60551 38.7326L 10.4245 41.3166L 11.2221 43.8568L 12.0237 46.3369L 12.7776 48.7513L 13.5101 51.0379L 14.2038 53.2178L 14.8722 55.2509L 15.4755 57.1372L 16.0137 58.809L 16.4917 60.2902L 16.9017 61.5637L 17.2242 62.5778L 17.4623 63.3203L 17.6129 63.7855L 17.6556 63.9561L 18.0005 65.0341L 17.9791 65.2905L 19.0391 67.2369L 19.0818 68.0613L 19.1469 68.2958L 19.2547 68.5074L 19.4053 68.7L 19.5773 68.8477L 20.1379 69.3109L 20.2885 69.4816L 20.1379 69.7799L 20.2671 70.0334L 20.5255 70.2879L 20.7626 70.6044L 21.0472 71.5575L 21.3698 72.1075L 21.4349 72.4688L 21.4562 72.9768L 21.6292 73.2303L 21.9517 73.38L 22.1674 73.5706L 22.0809 73.9719L 24.0463 75.8792L 24.3912 76.3014L 24.5418 76.6608L 24.7789 77.5491L 25.0373 77.9523L 25.3394 78.3355L 25.5979 78.7139L 25.6843 79.0961L 25.6843 78.9903L 25.7057 79.2038L 25.6843 79.0961L 25.7057 79.4573L 25.5765 79.7957L 25.5114 80.0921L 25.6843 80.3895L 25.2316 81.0243L 25.4036 81.5314L 25.9466 81.9355L 27.197 82.4426L 27.4554 82.5904L 27.6488 82.8887L 27.7566 82.9097L 27.8644 82.9516L 27.9509 83.1422L 27.9072 83.3748L 27.7566 83.5655L 27.5633 83.6703L 27.3476 83.7132L 27.5409 84.0325L 27.5195 84.328L 27.3476 84.5605L 27.1533 84.7302L 26.7015 84.6034L 26.3343 84.7512L 26.2915 84.9837L 26.7229 85.1973L 26.4635 85.4508L 26.0759 85.6834L 25.6843 85.8502L 25.3608 85.9579L 25.2102 86.0846L 25.081 86.362L 24.8216 87.3342L 24.8216 87.5897L 24.9295 88.2874L 24.9081 88.6706L 24.7361 89.1777L 24.7361 89.8353L 25.0159 90.4482L 25.0373 91.1688L 25.0159 91.2746L 24.8653 91.7159L 24.7789 91.8665L 24.2406 93.0732L 23.9171 94.217L 23.852 95.1911L 23.7879 95.5724L 23.7665 95.7221L 23.7665 95.8908L 23.7014 96.5237L 23.9385 97.0774L 25.0373 100.126L 25.3181 100.572L 26.3129 101.61L 26.5927 102.096L 26.7015 102.453L 26.8298 103.218L 26.8949 103.429L 27.197 103.96L 27.3039 104.341L 27.2397 105.038L 27.0454 105.611L 26.9813 106.203L 27.3476 106.987L 26.9162 107.729L 26.8949 108.788L 27.0454 110.97L 26.959 111.244L 26.7015 111.731L 26.6792 112.027L 26.7443 112.24L 27.0454 112.768L 27.1319 113.02L 27.1533 114.061L 27.2397 114.506L 27.5633 114.823L 28.1015 115.014L 28.903 115.819L 29.6569 116.941L 30.1524 118.212L 30.4332 118.487L 30.5187 118.783L 30.4759 119.013L 30.3467 119.229L 30.2816 119.356L 30.2389 119.44L 30.3253 119.8L 30.4332 119.906L 30.9112 120.157L 31.0831 120.286L 31.2774 120.584L 31.5796 121.409L 31.8157 121.579L 32.247 122.214L 32.5268 122.85L 32.7211 124.036L 33.372 125.835L 34.6214 126.852L 34.8371 126.788L 35.6386 126.725L 35.7892 126.725L 36.2633 126.683L 37.0172 126.641L 38.0344 126.577L 39.3052 126.492L 40.8178 126.387L 42.5209 126.259L 44.4426 126.131L 46.5372 125.983L 48.7815 125.814L 51.1559 125.645L 53.6605 125.476L 56.2496 125.285L 58.9262 125.072L 61.6669 124.858L 64.4503 124.65L 67.26 124.438L 70.0657 124.205L 72.8706 123.994L 75.6336 123.759L 78.3529 123.548L 81.0071 123.315L 83.5749 123.103L 86.0144 122.893L 88.346 122.7L 90.5262 122.508L 92.5343 122.341L 94.3705 122.171L 95.991 122.045L 97.4124 121.918L 98.5801 121.812L 99.4856 121.728L 100.519 121.622L 100.584 121.664L 100.584 121.749L 100.563 121.939L 100.477 122.15L 100.455 122.256L 100.477 122.362L 100.519 122.466L 100.692 122.678L 101.407 123.336L 101.537 123.506L 101.708 123.735L 101.752 123.865L 101.795 123.994L 101.795 124.121L 101.795 124.29L 101.752 124.712L 101.731 125.051L 101.752 125.221L 101.774 125.37L 101.881 125.603L 102.42 126.598L 102.593 126.809L 102.7 126.894L 102.851 126.957L 103.045 127L 103.286 126.979L 104.406 126.662L 104.579 126.662L 105.053 126.725L 105.183 126.725L 105.29 126.704L 105.94 126.408L 106.07 126.323L 106.135 126.195L 106.156 125.962L 106.135 125.792L 105.94 124.987L 105.94 124.816L 105.94 124.438L 106.135 122.594L 106.156 120.668L 106.113 120.35L 106.048 120.074L 105.984 119.948L 105.833 119.758L 105.247 119.163L 105.096 118.929L 104.967 118.677L 104.881 118.465L 104.816 118.149L 104.794 117.977L 104.859 117.323L 104.859 117.132L 104.859 116.963L 104.643 116.285L 104.622 116.009L 104.643 115.861L 104.665 115.735L 104.73 115.627L 104.967 115.289L 105.01 115.141L 105.031 114.971L 105.031 114.676L 105.075 114.57L 105.204 114.506L 105.462 114.549L 105.682 114.549L 105.898 114.462L 105.984 114.356L 106.048 114.207L 106.048 114.082L 106.048 113.891L 106.048 113.828L 106.048 113.638L 106.092 113.511L 106.199 113.405L 106.393 113.297L 106.587 113.255L 106.931 113.213L 107.083 113.192L 107.276 113.171L 107.492 113.171L 107.901 113.341L 108.122 113.468L 108.488 113.596L 110.884 114.145L 111.099 114.082L 111.336 114.061L 111.681 114.082L 111.961 114.228L 112.133 114.335L 112.414 114.462L 112.801 114.549L 114.056 114.718L 114.314 114.697L 114.572 114.612L 114.744 114.591L 115.132 114.74L 115.395 114.802L 116.451 114.865L 116.688 114.823L 117.442 114.462L 117.899 114.506L 118.093 114.528L 118.007 114.185L 118.05 113.447L 117.985 112.811L 117.834 112.494L 117.464 112.177L 117.313 111.942L 117.205 111.562L 117.14 111.202L 116.99 110.947L 116.623 110.862L 116.581 110.67L 116.86 110.609L 117.119 110.588L 117.377 110.628L 117.637 110.69L 117.55 110.355L 117.421 110.164L 117.248 110.038L 117.119 109.784L 117.119 109.655L 117.163 109.232L 117.163 109.084L 117.27 108.682L 117.878 107.708L 118.093 107.241L 117.727 107.154L 116.882 107.304L 116.322 107.154L 116.3 106.946L 117.421 106.543L 117.77 106.203L 117.813 105.611L 117.507 105.167L 116.344 104.32L 115.912 103.853L 116.581 103.96L 117.27 104.383L 117.899 104.932L 118.287 105.442L 118.46 105.399L 118.567 103.366L 118.481 102.624L 118.028 103.176L 117.943 103.514L 118.05 104.066L 117.77 103.894L 117.097 103.387L 116.344 103.197L 116.193 102.858L 116.365 102.603L 117.313 102.943L 117.377 102.518L 117.227 101.969L 116.839 100.888L 116.818 100.445L 117.011 100.105L 117.529 99.935L 117.77 100.252L 117.92 101.589L 117.985 101.905L 118.244 102.011L 118.804 101.969L 119.213 101.567L 119.666 100.699L 120.316 99.1506L 120.834 99.3431L 121.092 98.8742L 121.135 98.1993L 121.006 97.7532L 120.576 97.4578L 119.385 96.8658L 118.955 96.7791L 118.028 96.843L 116.882 96.7581L 115.827 96.5017L 115.111 96.0604L 115.395 95.8279L 115.611 95.8279L 116.149 96.0604L 116.731 96.2082L 119.385 96.3349L 120.339 96.1872L 120.553 95.9127L 120.36 95.3608L 119.989 94.9805L 119.106 94.3648L 118.89 93.9425L 118.804 93.5832L 118.847 93.5193L 119.019 93.3077L 119.213 93.179L 119.364 93.3077L 119.493 93.5403L 119.558 93.8157L 119.666 94.0883L 119.86 94.3438L 120.097 94.5363L 120.295 94.5992L 120.597 94.4706L 120.618 94.2809L 120.576 94.0264L 120.576 93.7519L 121.868 90.9782L 122.127 89.9192L 121.286 90.1098L 120.597 90.5941L 119.364 91.7588L 119.493 91.2956L 119.688 90.9343L 119.752 90.6379L 119.493 90.3634L 119.451 90.4263L 118.718 90.4902L 118.567 90.4692L 118.373 90.3424L 118.201 90.1947L 118.028 90.025L 118.416 89.8353L 118.804 89.558L 119.235 89.4293L 119.774 89.6209L 120.231 89.6638L 120.64 89.3044L 121.222 88.478L 120.855 88.1797L 120.166 87.7165L 119.795 87.3552L 120.36 87.2923L 120.834 87.4191L 121.179 87.6955L 121.459 88.0339L 121.911 89.0299L 122.083 89.1348L 122.213 89.008L 122.299 88.7335L 122.561 86.8272L 122.561 86.1056L 122.385 85.5137L 121.997 85.1973L 121.609 85.366L 121.48 85.7253L 121.804 86.0217L 121.846 86.2114L 120.36 86.6575L 119.86 86.7214L 120.661 85.5347L 120.64 85.0047L 119.817 84.5605L 119.041 84.4976L 118.697 84.3489L 118.524 83.9896L 118.653 83.7551L 118.998 83.7551L 119.385 83.9057L 119.666 84.0954L 120.316 84.3709L 121.157 84.3709L 122.428 84.1373L 122.734 83.9267L 123.014 83.5435L 123.596 82.4636L 123.747 81.703L 123.897 81.2988L 123.768 81.2988L 123.402 81.3837L 122.798 80.9814L 122.648 80.9185L 121.264 80.9395L 121.523 80.5382L 122.428 80.1341L 122.363 79.8786L 121.804 79.5841L 121.609 79.3515L 121.804 79.0541L 122.127 79.0113L 122.363 79.2248L 122.584 79.5002L 122.756 79.7109L 123.208 79.8167L 124.329 79.8386L 124.803 80.0492L 125.173 79.9625L 125.647 79.4793L 126.315 78.5042L 125.668 78.4832L 125.259 78.06L 125.13 77.5491L 125.346 77.2765L 125.475 77.1488L 125.539 76.8952L 125.668 76.6608L 125.992 76.5769L 126.013 76.6817L 126.142 76.9172L 126.358 77.1488L 126.617 77.2546L 127.655 76.1537L 128 75.496L 127.612 75.0099ZM 118.804 112.304L 118.718 111.877L 118.976 111.034L 119.041 109.996L 118.976 109.147L 119.041 108.194L 118.976 107.496L 118.869 106.924L 118.718 106.946L 118.653 107.877L 117.593 109.042L 117.507 109.932L 117.572 110.079L 117.899 110.588L 118.007 110.841L 118.05 111.076L 118.157 111.794L 118.761 113.912L 118.976 113.976L 119.106 113.68L 119.106 113.128L 118.804 112.304Z"/>
</defs>
</svg>
