<svg width="172" height="88" viewBox="0 0 172 88" version="1.1" xmlns="http://www.w3.org/2000/svg" xmlns:xlink="http://www.w3.org/1999/xlink">
<title>kentucky-icon</title>
<desc>Created using Figma</desc>
<g id="Canvas" transform="translate(2182 493)">
<g id="kentucky-icon">
<use xlink:href="#path0_fill" transform="translate(-2182 -493)" fill="#B5B5B5"/>
</g>
</g>
<defs>
<path id="path0_fill" fill-rule="evenodd" d="M 0.841974 86.0115L 0.106579 86.3982L 0 87.4218L 0.257727 87.7634L 0.494139 88L 2.00272 87.8057L 2.08798 87.4218L 1.68007 86.3126L 0.841974 86.0115ZM 171.545 35.8028L 171.287 35.824L 170.621 36.0799L 170.363 36.1011L 168.446 35.824L 168.102 35.7172L 167.931 35.5681L 167.909 35.4161L 167.909 35.2458L 167.844 35.1178L 167.78 34.9899L 167.673 34.8831L 167.458 34.7128L 166.658 34.1789L 166.465 34.1789L 166.357 34.2433L 166.272 34.3068L 166.207 34.2645L 165.691 33.7286L 165.434 33.5372L 165.24 33.4516L 165.047 33.3871L 164.097 33.1957L 163.882 33.1081L 163.753 32.958L 163.581 32.553L 163.087 31.6785L 163.043 31.5284L 163.022 31.3774L 162.808 31.1003L 162.464 30.7569L 160.783 29.5408L 160.719 29.434L 160.633 29.3051L 160.525 29.0261L 160.268 28.1487L 160.204 27.9573L 160.074 27.786L 159.86 27.509L 159.709 27.381L 159.554 27.2742L 158.523 26.7624L 158.394 26.6325L 158.351 26.4834L 158.372 26.3978L 158.588 25.9043L 158.63 25.7763L 158.63 25.6705L 158.566 25.5416L 158.459 25.3289L 158.308 25.1789L 158.222 25.0942L 156.8 24.1956L 156.606 24.0254L 156.456 23.7897L 156.262 23.4039L 156.112 23.1691L 154.023 21.0526L 153.852 20.8179L 153.808 20.6899L 153.808 20.562L 153.808 20.4552L 153.852 20.3917L 153.915 20.3061L 154.259 19.9434L 154.41 19.7298L 154.453 19.6018L 154.475 19.4931L 154.475 19.344L 154.367 18.8726L 154.367 18.7225L 154.388 18.5946L 154.432 18.5089L 154.538 18.4455L 154.818 18.3598L 154.909 18.2752L 154.951 18.1684L 154.93 18.0183L 154.909 17.8692L 154.865 17.7201L 154.797 17.4209L 154.754 16.7792L 154.754 16.4146L 154.69 16.1365L 154.561 15.8171L 154.002 15.0061L 153.894 14.7906L 153.873 14.7262L 153.852 14.6203L 153.83 13.8709L 153.787 13.5505L 153.765 13.3802L 153.486 13.082L 152.97 12.2258L 152.669 11.8631L 150.774 10.496L 149.825 10.09L 148.729 9.89568L 147.654 9.51182L 146.812 8.5286L 145.973 6.73149L 145.823 6.19851L 145.737 5.64341L 145.608 5.2355L 145.308 5.08638L 144.724 5.27879L 143.455 6.17735L 142.896 6.34763L 142.462 6.56121L 142.162 6.94506L 141.904 7.39531L 141.625 7.73876L 141.066 8.05912L 140.893 8.22941L 140.808 8.46415L 140.657 9.08275L 140.528 9.40311L 140.159 9.70423L 139.686 9.81295L 138.633 9.76773L 138.118 9.89568L 137.791 10.1545L 137.555 10.4315L 136.781 10.7298L 136.588 10.6875L 136.265 10.4315L 135.578 9.63978L 135.402 9.46949L 135.079 9.29632L 134.391 9.10487L 134.07 9.08275L 133.253 9.2107L 133.034 9.14721L 132.604 8.82684L 132.131 8.61327L 131.637 8.48531L 131.142 8.5286L 129.613 9.27516L 129.376 9.49066L 129.355 10.0236L 129.161 10.5383L 128.796 10.9222L 128.367 11.1358L 127.352 11.0713L 126.364 10.6018L 124.619 9.29632L 124.189 8.8913L 123.823 8.44298L 123.411 8.08029L 122.401 7.95233L 121.434 7.65121L 120.892 7.65121L 118.937 8.33619L 118.417 8.35736L 115.749 7.78109L 115.211 7.48093L 114.932 7.03069L 114.803 6.34763L 114.653 5.79252L 114.438 5.29995L 114.136 4.8728L 113.875 4.63614L 113.531 4.40139L 113.208 4.12432L 113.037 3.74046L 112.929 3.24982L 112.714 2.75725L 112.414 2.30604L 112.027 2.00781L 110.991 1.64511L 110.411 1.51716L 109.959 1.49599L 109.68 1.30358L 109.358 0.8341L 108.966 0.341529L 108.451 0.149118L 107.505 0.469482L 105.696 1.60278L 104.729 1.64511L 103.414 0.663817L 103.048 0.511813L 102.919 0.448317L 102.576 0.0644576L 102.361 0L 102.082 0.0856228L 101.91 0.277071L 101.605 0.727313L 100.444 1.66628L 100.057 1.98664L 99.4779 2.82074L 99.6494 3.7193L 100.359 4.27344L 100.745 4.65826L 100.939 5.12967L 100.788 5.66457L 100.101 6.54004L 99.9284 6.83828L 100.251 7.16056L 100.638 7.28852L 101.626 7.20289L 102.146 7.30968L 102.168 7.73876L 101.931 8.2727L 101.67 8.67772L 101.583 9.25399L 102.017 10.1545L 101.733 10.3671L 99.8644 10.4104L 99.1077 10.624L 97.7329 11.4128L 94.7196 13.8709L 93.8127 14.1932L 93.3399 13.9777L 92.4378 13.21L 92.0251 13.0599L 90.5853 13.1878L 88.0022 13.7641L 87.6156 14.0633L 87.6805 14.5982L 87.9383 15.1764L 88.1534 15.5391L 88.5826 17.2506L 89.2056 18.2963L 89.163 18.8505L 88.9052 19.3007L 87.8094 20.3484L 87.5517 20.7323L 87.2678 21.2662L 86.9451 21.5673L 86.0005 21.8021L 85.549 21.9954L 84.9647 22.8921L 84.7709 25.4569L 84.4057 26.5046L 83.6751 27.2107L 83.2449 27.5301L 82.4243 27.8928L 82.1452 27.9149L 82.0163 27.6802L 81.8875 27.5946L 81.5862 27.5301L 81.2635 27.4878L 81.0271 27.509L 80.7694 27.8928L 80.4264 29.1348L 80.2539 29.4129L 79.8848 29.6688L 79.6484 30.2017L 79.5185 30.8656L 79.4759 31.4649L 79.627 34.2L 79.4759 34.9687L 79.3683 35.2246L 79.2182 35.4805L 79.0244 35.7172L 78.788 35.9096L 77.6883 36.2531L 77.1941 36.509L 77.0226 37.0208L 76.8289 37.2555L 76.2921 36.9352L 75.299 36.1232L 74.7835 36.0587L 73.6228 36.1232L 73.1286 35.9308L 72.7159 35.6749L 71.7702 35.3093L 71.3623 35.0534L 71.1046 34.6695L 71.0184 34.2433L 70.9321 33.0225L 70.6957 32.7243L 69.4023 31.9556L 68.9507 31.8065L 68.4566 31.8276L 68.2415 32.0412L 68.5855 32.5318L 69.0583 32.7454L 69.5534 32.8301L 69.7675 33.0225L 69.4236 33.5151L 68.5215 34.0509L 67.9799 34.1577L 67.7009 34.1144L 67.5497 33.8585L 67.3995 33.7498L 67.1205 33.643L 66.8628 33.6651L 66.7765 33.9441L 66.9054 34.2433L 67.3569 34.6272L 67.5284 34.9254L 67.5071 35.544L 67.1631 35.9519L 66.669 36.1867L 66.1748 36.2742L 65.9171 36.5725L 65.8745 37.192L 66.1748 39.0526L 66.1535 39.4788L 65.8958 39.7992L 64.7099 40.2042L 64.6236 40.6545L 64.6876 41.2115L 64.58 41.8089L 64.1295 42.1716L 63.5918 42.2139L 63.2013 41.9792L 63.334 41.4674L 63.5278 40.868L 63.0715 40.8036L 62.0832 41.1259L 61.2674 41.0624L 60.4893 40.591L 59.909 39.8839L 59.6299 39.1585L 59.1997 38.6899L 58.4004 39.095L 57.6059 39.8627L 57.1544 40.4197L 56.8531 40.6121L 55.5383 40.9104L 55.1517 41.1259L 54.8717 41.3818L 54.6362 41.7233L 54.4211 42.2139L 53.9909 44.0746L 53.7119 44.7999L 53.0414 45.357L 52.7837 45.229L 52.5473 45.0799L 52.1607 44.672L 52.0095 44.3738L 51.902 44.0534L 51.7731 43.8187L 51.4941 43.733L 51.06 43.7542L 50.7374 43.7119L 50.4796 43.6262L 49.5989 43.177L 47.9828 42.7498L 47.5313 42.5131L 47.0807 42.2139L 46.5217 41.9369L 45.9588 41.7445L 45.4646 41.681L 44.519 42.0437L 43.6334 42.6411L 42.7527 42.9422L 41.8719 42.2784L 41.7857 42.0013L 41.7431 41.5309L 41.5881 41.3394L 41.4156 41.2759L 41.2015 41.3394L 41.0726 41.5309L 41.029 41.8945L 41.2015 42.5131L 41.6995 43.3049L 41.8933 43.8619L 41.7431 44.672L 41.2228 45.3781L 40.5562 45.7216L 39.9981 45.4426L 39.9119 45.0135L 40.0407 44.0534L 39.9545 43.6695L 39.6328 43.4771L 39.2462 43.5416L 38.9187 43.7763L 38.7259 44.0111L 38.5108 44.0534L 37.6301 44.4584L 37.1786 44.5652L 36.6583 44.5229L 36.2078 44.3526L 35.8202 44.0534L 35.4336 43.6907L 34.9608 43.3703L 34.4453 43.328L 34.0752 43.6051L 33.9686 44.2246L 34.1188 44.5873L 34.9821 46.2122L 34.0539 47.4947L 33.9686 47.6871L 33.5384 47.6226L 32.6577 47.1945L 32.2275 47.0877L 31.7072 47.2157L 31.6646 47.6014L 31.7072 48.1796L 31.5357 48.8415L 31.2354 49.2466L 30.0533 50.4886L 29.8382 50.8936L 29.6018 51.5555L 29.5117 52.2616L 29.7307 52.7734L 30.2035 53.5229L 30.3323 53.672L 31.1065 54.3118L 31.7295 55.4893L 31.6433 56.3003L 30.9554 56.8554L 26.7997 58.0753L 25.5324 58.972L 25.1449 59.1211L 24.1091 59.2067L 23.6363 59.3385L 23.271 59.5713L 23.0133 59.8917L 22.7982 60.3208L 22.4978 61.558L 22.4978 62.6932L 22.8205 63.6956L 23.4222 64.5942L 24.2167 65.5139L 24.7108 66.3461L 24.8232 67.2466L 24.4531 68.4415L 23.8514 69.1899L 22.992 69.4247L 22.0424 69.2534L 20.28 68.3347L 13.6276 65.9834L 12.4843 65.8766L 11.4311 66.1114L 10.5077 66.6251L 9.7723 67.3524L 9.55721 67.6939L 8.91289 69.2111L 8.20365 70.1731L 7.7909 71.1121L 7.92461 71.8423L 8.41875 72.5032L 9.29948 73.3354L 9.47194 73.8289L 9.42834 75.0892L 9.55721 75.9878L 9.55721 76.2649L 9.44966 76.4784L 9.25685 76.7363L 9.06307 77.0566L 8.99912 77.3982L 9.1493 77.9956L 9.60081 78.9596L 9.70835 79.6003L 9.60081 80.368L 8.87026 82.4422L 8.46138 84.1316L 8.03216 84.9638L 7.44694 85.3476L 6.69508 85.1562L 6.02944 84.6655L 5.4016 84.0681L 4.77859 83.6178L 4.54218 83.7901L 4.41332 83.9613L 4.24182 84.4731L 4.00541 85.5631L 3.98313 86.0114L 3.74672 87.3795L 3.64014 87.721L 7.66204 87.3362L 11.7111 86.9523L 15.7165 86.5473L 19.7597 86.1413L 23.7661 85.7344L 27.7929 85.3265L 31.8148 84.9003L 35.8415 84.4731L 35.8415 83.7901L 35.7562 82.7616L 35.67 82.3143L 35.1972 80.8827L 34.6391 79.5782L 34.5529 79.3011L 34.5316 79.152L 34.5742 79.1097L 34.6817 79.0875L 35.9491 79.0664L 38.0593 79.0452L 39.3528 79.024L 39.5466 79.0664L 39.6754 79.2155L 39.8692 79.6003L 39.9981 79.7494L 40.127 79.8351L 40.2558 79.7918L 41.2015 79.685L 41.5231 79.6426L 42.4087 79.5359L 43.7623 79.3656L 45.5499 79.152L 47.6601 78.872L 49.9855 78.595L 52.5037 78.2727L 55.0868 77.9311L 57.6912 77.6117L 60.188 77.2914L 62.5347 76.971L 64.645 76.6939L 66.4113 76.4784L 67.7861 76.286L 68.6717 76.1792L 68.973 76.1369L 69.9826 75.9878L 70.782 75.7078L 70.9971 75.6655L 72.0067 75.5799L 72.6946 75.5164L 74.6973 75.3451L 77.7784 75.0681L 81.7799 74.7054L 86.5159 74.2782L 91.7887 73.7857L 97.4529 73.2498L 103.285 72.6745L 109.121 72.077L 114.76 71.4989L 120.033 70.9418L 124.769 70.4512L 128.774 70.0029L 131.852 69.6613L 133.833 69.4478L 134.542 69.3823L 135.663 69.2323L 136.459 68.8907L 137.039 68.5049L 137.92 67.5025L 138.354 67.2245L 138.504 67.1821L 140.422 66.1325L 142.613 65.5774L 142.854 65.4706L 143.004 65.3427L 143.261 65.0444L 144.1 64.4018L 146.361 63.2695L 148.664 62.5431L 148.836 62.4151L 148.965 62.2853L 148.987 62.1573L 148.965 62.0082L 148.879 61.7523L 148.879 61.6436L 148.922 61.5368L 149.158 61.1953L 149.266 60.9182L 149.566 59.934L 149.954 59.3799L 150.065 59.2923L 150.215 59.2279L 151.204 59.0576L 152.541 58.2889L 153.852 57.5404L 154.174 57.3057L 154.259 57.1777L 154.324 57.0498L 154.346 56.8978L 154.388 56.7487L 154.388 56.5995L 154.367 56.1724L 154.303 55.852L 154.259 55.7029L 154.195 55.2546L 154.281 54.9968L 154.475 54.7197L 154.974 54.2271L 156.843 52.9255L 157.058 52.7311L 157.122 52.6032L 157.186 52.4752L 157.229 52.304L 157.229 52.1318L 157.229 51.9605L 157.1 51.3419L 156.95 50.9157L 156.929 50.7233L 157.079 50.4222L 157.448 49.9527L 158.437 49.0118L 160.676 47.4523L 162.357 46.2767L 163.882 45.2079L 164.377 44.7576L 166.099 42.7921L 167.995 40.6121L 169.198 39.2018L 170.9 37.2555L 172 35.9731L 171.545 35.8028Z"/>
</defs>
</svg>
