<svg width="136" height="112" viewBox="0 0 136 112" version="1.1" xmlns="http://www.w3.org/2000/svg" xmlns:xlink="http://www.w3.org/1999/xlink">
<title>louisiana-icon</title>
<desc>Created using Figma</desc>
<g id="Canvas" transform="translate(2298 234)">
<g id="louisiana-icon">
<use xlink:href="#path0_fill" transform="translate(-2298 -234)" fill="#B5B5B5"/>
</g>
</g>
<defs>
<path id="path0_fill" fill-rule="evenodd" d="M 125.445 82.1521L 125.38 82.0048L 125.274 82.0257L 125.145 82.2158L 124.521 82.8063L 124.478 82.9327L 124.714 82.8481L 124.822 82.7844L 125.037 82.5106L 125.338 82.2577L 125.445 82.1521ZM 132.1 86.1863L 132.079 86.0171L 132.1 85.8488L 132.079 85.7433L 131.993 85.9753L 131.993 86.4811L 132.015 86.5429L 132.1 86.1863ZM 118.708 90.6645L 119.117 90.6863L 119.224 90.6226L 119.159 90.5171L 119.073 90.4543L 118.923 90.4115L 118.815 90.3488L 118.773 90.2005L 118.708 89.8829L 118.554 89.8192L 118.467 89.8401L 118.617 90.0512L 118.532 90.2005L 118.51 90.3488L 118.554 90.4543L 118.596 90.4962L 118.617 90.538L 118.596 90.6226L 118.708 90.6645ZM 134.341 83.546L 134.277 83.5042L 134.319 83.9681L 134.341 83.7571L 134.341 83.546ZM 134.104 83.6725L 134.19 83.6307L 134.255 83.3568L 134.169 83.335L 133.717 83.9045L 133.739 83.9891L 133.911 83.8836L 134.104 83.6725ZM 133.739 84.1155L 133.632 84.0518L 133.502 84.1155L 133.266 84.4549L 133.352 84.4758L 133.76 84.1972L 133.739 84.1155ZM 134.685 84.2838L 134.857 84.7079L 134.771 84.434L 134.685 84.2838ZM 105.805 98.0786L 105.934 98.2688L 106.042 98.3315L 106.149 98.3743L 106.278 98.3743L 106.407 98.2688L 106.601 98.2897L 106.799 98.458L 106.906 98.6928L 107.057 98.7974L 107.422 98.7137L 107.551 98.7347L 107.659 98.6082L 107.637 98.4161L 107.572 98.3315L 107.551 98.3952L 107.53 98.3087L 107.508 98.1632L 107.465 98.1423L 107.443 98.2688L 107.357 98.3315L 107.186 98.3952L 106.949 98.3087L 106.67 98.0368L 106.648 97.9312L 106.928 97.9522L 106.992 97.8257L 106.82 97.5937L 106.58 97.5091L 106.278 97.4673L 106.085 97.3826L 105.955 97.2752L 105.763 97.1906L 105.203 97.0432L 104.859 97.1069L 104.645 97.086L 104.43 97.1278L 104.28 97.299L 104.322 97.5519L 104.795 98.0159L 105.053 98.1423L 105.376 98.0159L 105.741 97.9312L 105.891 97.9312L 105.827 97.9522L 105.805 98.0786ZM 100.96 109.55L 100.744 109.592L 100.552 109.676L 100.358 109.803L 99.6918 110.459L 101.24 109.74L 101.218 109.529L 100.96 109.55ZM 109.683 103.024L 109.533 103.127L 109.426 103.339L 109.683 103.339L 110.028 103.064L 110.049 102.916L 109.812 102.958L 109.683 103.024ZM 109.034 103.55L 108.841 103.572L 108.518 103.993L 107.916 104.289L 107.379 104.628L 107.272 105.282L 107.443 105.261L 107.745 104.86L 108.582 104.331L 109.06 103.952L 108.862 103.761L 109.034 103.55ZM 99.6918 108.43L 99.498 108.346L 99.3439 108.388L 99.3002 108.535L 99.3002 108.684L 99.2363 108.746L 98.7409 109.02L 98.3542 109.107L 98.2253 109.191L 98.2902 109.276L 99.5842 108.746L 99.7345 108.578L 99.6918 108.43ZM 135.635 80.6909L 135.223 80.2288L 134.942 79.5737L 134.621 79.0042L 134.04 78.7085L 134.448 78.9833L 134.728 79.3835L 135.071 80.3771L 135.265 80.5663L 135.179 80.8848L 135.329 81.3279L 135.763 82.0676L 135.635 82.2578L 135.7 82.7217L 135.828 84.1974L 135.742 84.687L 135.136 86.2282L 135.265 86.3756L 135.308 86.5429L 135.352 86.6941L 135.329 86.8633L 135.828 85.6378L 135.979 84.9817L 136 82.6162L 135.635 80.6909ZM 110.931 101.733L 110.887 101.902L 110.716 101.86L 110.543 101.691L 110.479 101.691L 110.414 101.86L 110.221 102.052L 110.199 102.178L 110.651 102.22L 110.974 102.431L 110.887 102.283L 110.866 102.157L 110.931 102.094L 111.102 102.03L 111.102 101.964L 111.038 101.841L 110.931 101.733ZM 133.804 89.4608L 134.577 88.1934L 134.9 87.5165L 133.502 89.7774L 133.804 89.4608ZM 120.75 88.1725L 120.578 87.8331L 120.213 87.6638L 120.105 87.5802L 119.976 87.4956L 119.654 87.3273L 119.31 87.7066L 119.267 88.1307L 119.482 89.3135L 119.804 89.0815L 119.976 88.4045L 120.169 88.2571L 120.342 88.3617L 120.492 88.6156L 120.707 88.8685L 121.051 88.9531L 120.879 88.5728L 120.75 88.1725ZM 132.1 104.141L 132.122 104.352L 132.316 104.331L 132.402 104.035L 132.574 103.952L 133.133 104.057L 132.918 103.782L 132.81 103.741L 132.574 103.72L 132.552 103.509L 133.068 103.467L 132.767 103.085L 132.466 102.916L 132.079 102.895L 131.65 103L 131.779 103.277L 131.843 103.403L 131.521 103.403L 131.112 103.339L 130.743 103.148L 130.57 102.832L 129.495 102.641L 129.474 102.452L 129.753 102.347L 129.99 102.22L 130.162 102.03L 130.291 101.775L 130.012 101.691L 129.904 101.459L 129.775 101.164L 129.517 100.868L 129.431 100.953L 129.195 101.121L 129.087 100.782L 128.915 100.593L 128.743 100.444L 128.571 100.191L 128.485 100.276L 128.245 100.402L 128.222 100.086L 128.18 99.812L 128.116 99.6437L 128.008 99.6437L 127.964 99.5781L 127.943 99.4934L 127.901 99.4516L 127.793 99.4725L 127.62 100.002L 127.255 100.402L 126.826 100.634L 126.503 100.572L 126.374 100.381L 126.245 99.8547L 126.073 99.6437L 125.789 99.5362L 125.574 99.5781L 125.359 99.6646L 124.843 99.791L 124.478 99.9593L 124.284 100.002L 124.005 99.9812L 123.597 99.7492L 123.378 99.7064L 123.248 99.6199L 123.27 99.4307L 123.399 99.1987L 123.661 99.0932L 123.941 99.0722L 124.155 99.0085L 124.305 98.8821L 124.284 98.7347L 123.962 98.7138L 123.661 98.6929L 123.399 98.7766L 123.205 98.9239L 123.055 98.9458L 122.882 98.8403L 122.668 98.8403L 122.432 98.903L 122.345 98.8403L 121.808 98.6083L 121.249 98.6501L 119.783 99.1141L 119.438 99.1141L 119.159 99.0085L 119.009 98.7347L 119.138 98.671L 119.396 98.6083L 119.632 98.3953L 119.632 97.9104L 119.267 98.1424L 119.117 97.9522L 119.181 97.5519L 119.396 97.1488L 119.375 96.9377L 118.923 96.9596L 118.188 96.6221L 117.758 96.5165L 117.8 96.411L 117.823 96.3901L 117.929 96.2846L 117.543 96.1581L 116.919 96.2846L 116.296 95.9641L 115.583 95.7978L 115.324 95.6494L 115.152 95.3756L 114.958 94.7624L 114.787 94.4457L 113.992 93.6633L 113.816 93.3466L 113.906 93.3257L 114.142 93.3048L 113.948 93.0519L 113.687 92.9464L 113.062 92.8408L 113.927 92.5879L 116.056 92.9464L 116.533 92.7144L 115.819 92.122L 115.775 91.9956L 115.775 91.9319L 115.754 91.8054L 115.217 91.6371L 115.454 91.4898L 115.539 91.447L 115.174 91.1922L 114.486 90.8547L 114.228 90.559L 115.002 90.7282L 116.296 91.3842L 117.027 91.4679L 117.715 91.447L 118.51 91.5525L 118.815 91.7218L 119.138 91.9956L 119.503 92.2067L 119.955 92.2067L 119.934 91.9956L 119.03 91.3395L 118.617 91.1494L 118.751 91.1285L 118.859 91.1076L 118.965 91.0866L 119.138 91.1076L 118.815 90.7909L 118.296 90.8128L 117.736 90.9174L 117.221 90.8965L 116.898 90.6227L 116.683 90.1568L 116.704 89.6291L 117.048 89.1442L 117.285 89.0605L 117.844 89.0814L 118.08 89.0387L 118.36 88.8685L 118.489 88.7201L 118.708 88.1934L 119.03 87.7912L 119.375 87.4328L 119.568 87.0525L 119.417 86.5638L 119.74 86.5429L 120.063 86.6075L 120.342 86.7577L 120.557 86.9469L 120.879 87.4109L 121.094 87.5802L 121.399 87.5592L 121.378 87.7485L 121.357 88.1516L 121.335 88.3408L 121.55 88.1307L 121.722 87.5592L 121.915 87.3273L 122.109 87.3273L 122.711 87.4109L 122.969 87.4109L 122.603 87.2426L 122.388 86.9469L 122.217 86.6075L 121.98 86.3128L 122.088 86.1226L 122.259 85.9125L 122.474 85.7433L 122.797 85.6796L 122.69 85.5531L 122.646 85.4666L 122.561 85.381L 122.409 85.3192L 122.561 85.2355L 123.055 84.8771L 122.324 84.666L 122.152 84.5605L 122.001 84.7716L 121.872 84.8771L 121.507 85.0245L 121.486 84.8134L 121.937 84.434L 122.109 84.1764L 122.001 83.8835L 121.786 83.8417L 121.486 83.9891L 121.228 84.2192L 121.094 84.4549L 120.944 84.4759L 120.944 84.3285L 120.901 84.3076L 120.922 84.2838L 120.75 84.1764L 120.342 83.7362L 120.321 83.5669L 120.965 83.1239L 121.184 83.5669L 121.657 83.4195L 121.894 82.9746L 121.442 82.4688L 121.073 82.4051L 120.385 82.5952L 120.063 82.5952L 119.719 82.4479L 119.761 82.3423L 119.998 82.2368L 120.169 82.0257L 120.148 81.7709L 120.019 81.5598L 119.955 81.3278L 120.084 81.0321L 120.385 80.822L 121.094 80.8011L 121.421 80.6908L 121.701 80.4189L 121.722 80.1869L 121.55 80.0395L 121.184 79.9549L 121.009 80.0395L 120.513 80.4398L 120.385 80.609L 120.234 80.63L 120.169 80.5244L 120.148 80.5035L 120.105 80.5035L 120.019 80.4607L 119.998 80.2506L 120.192 80.2287L 120.169 80.0604L 119.976 79.9549L 119.375 79.7657L 119.117 79.7438L 118.944 79.5965L 118.815 79.5736L 118.639 79.702L 118.596 79.8703L 118.639 80.2287L 118.617 80.3771L 118.51 80.63L 118.425 80.822L 118.338 81.0112L 118.188 81.2014L 117.929 81.3906L 117.435 81.5598L 117.198 81.6863L 116.877 82.0048L 116.769 82.3632L 116.855 83.3986L 116.812 84.01L 116.597 84.6441L 116.249 85.2137L 115.84 85.5531L 115.302 85.7433L 114.723 85.7851L 114.164 85.6377L 113.643 85.2565L 112.998 84.6232L 113.062 84.2838L 113.364 83.778L 113.407 83.6097L 113.192 83.5042L 112.375 83.9681L 111.988 84.1155L 111.295 84.1554L 110.866 84.0946L 110.565 83.8198L 110.264 83.314L 110.049 82.7844L 109.963 82.3423L 110.049 81.8973L 110.35 81.4543L 110.845 81.1168L 111.537 81.0749L 112.203 81.286L 112.719 81.7072L 112.956 81.4543L 112.933 81.1805L 112.827 80.9276L 112.87 80.63L 113.062 80.4607L 113.772 80.1451L 113.816 79.4263L 114.035 79.046L 114.357 78.7512L 114.637 78.2216L 114.357 78.0743L 113.884 77.6312L 113.514 77.5257L 112.87 77.7786L 112.783 77.9896L 112.933 78.0952L 113.149 78.1579L 113.235 78.137L 113.235 77.9896L 113.364 77.906L 113.493 77.9478L 113.579 78.1161L 113.535 78.3462L 113.428 78.4764L 113.106 78.7512L 112.977 78.814L 112.59 78.7931L 112.439 78.814L 112.439 78.9195L 112.16 79.6174L 112.074 79.4662L 111.966 79.3835L 111.859 79.3207L 111.773 79.257L 111.923 78.9623L 112.117 78.2007L 112.353 77.8423L 112.139 77.4629L 111.945 77.4838L 111.902 77.8632L 111.795 78.2426L 111.601 78.6248L 111.124 79.3835L 111.059 79.6174L 111.016 79.7438L 110.801 79.7438L 110.436 79.6602L 110.028 79.4871L 109.662 79.257L 109.491 78.9832L 109.383 78.5611L 109.168 78.4137L 108.582 78.369L 108.196 79.3207L 107.572 80.1451L 105.955 81.5389L 105.482 81.7918L 104.967 81.963L 103.286 82.2577L 102.297 82.658L 101.713 82.7008L 100.121 82.4051L 99.1713 81.8973L 97.3442 81.8973L 96.2867 81.5807L 95.362 80.9057L 94.8027 79.9131L 94.8027 78.6038L 95.298 77.673L 96.9962 75.9188L 97.5807 75.0337L 98.3755 73.6142L 98.8922 72.9838L 99.434 72.5407L 100.25 72.3677L 101.411 72.4314L 102.619 72.6463L 103.609 72.9419L 104.838 73.8081L 105.053 73.8927L 105.182 74.1456L 105.805 75.181L 106.063 75.4549L 107.207 75.5604L 107.487 75.4977L 107.938 75.3284L 108.218 75.2657L 108.776 75.413L 109.726 76.0691L 110.285 76.0691L 111.102 75.7087L 111.579 75.7296L 111.837 76.2164L 111.816 76.4903L 111.773 76.6804L 111.773 76.8706L 111.923 77.0788L 112.117 77.1843L 112.633 77.2937L 112.827 77.3992L 113.214 77.1843L 113.6 77.1634L 114.464 77.2518L 114.873 77.0997L 115.26 76.8915L 115.604 76.8069L 115.883 77.1206L 115.625 77.2937L 115.475 77.3574L 115.238 77.3783L 115.69 77.6949L 116.425 77.3992L 117.113 76.8706L 117.35 76.4693L 117.156 76.3011L 116.834 76.2374L 116.533 76.3638L 116.361 76.6804L 115.733 76.09L 114.829 74.4195L 114.271 73.6351L 114.206 72.4732L 114.035 72.0121L 113.235 70.9767L 113.02 70.5336L 112.977 70.3016L 112.956 69.7939L 112.912 69.5619L 112.827 69.3718L 112.353 68.653L 111.601 68.2308L 111.188 67.3856L 110.758 67.1327L 109.92 66.9007L 109.512 66.5375L 108.734 65.2302L 108.991 64.6188L 108.734 64.151L 108.325 63.7527L 108.045 63.3514L 108.024 62.8437L 108.153 62.2105L 108.518 61.1542L 108.325 60.6227L 108.497 60.1188L 109.034 59.3363L 109.275 57.6686L 109.748 56.5705L 109.985 55.5351L 110.049 54.5206L 109.941 54.0994L 109.013 54.204L 107.938 54.2886L 107.443 54.3304L 106.042 54.4578L 103.845 54.647L 101.025 54.9018L 97.667 55.1975L 93.9177 55.5142L 89.9145 55.8697L 85.7785 56.212L 81.6425 56.5486L 77.6354 56.8652L 73.8909 57.159L 70.5323 57.4157L 67.6864 57.6477L 65.5113 57.7951L 64.0923 57.9006L 63.5979 57.9424L 62.4541 58.0271L 62.3039 58.048L 64.1136 56.3176L 63.8984 55.5978L 63.0774 54.7507L 62.7333 53.972L 62.7333 53.6963L 62.9485 53.1904L 62.9911 52.8738L 63.0561 52.7683L 63.1423 52.4498L 63.1637 52.1332L 63.0134 51.9858L 62.6693 51.7966L 62.2389 51.3516L 61.9385 50.7821L 61.9385 50.3391L 62.3039 50.1052L 62.8622 50.0186L 64.0496 49.9768L 64.5653 49.8313L 64.8444 49.4938L 64.9734 49.0279L 65.1459 47.1701L 65.3601 46.8953L 65.4037 46.6405L 65.4037 46.0929L 65.3388 45.9236L 64.9734 45.3503L 64.7155 45.0356L 64.5866 44.8464L 64.3714 43.6208L 64.8871 42.7338L 66.5262 41.3818L 66.5262 41.1916L 66.6328 40.8759L 66.5901 40.199L 66.8693 37.706L 66.848 37.1346L 66.9129 36.6497L 67.5575 35.235L 67.794 34.1577L 67.9879 33.6281L 68.3145 33.1223L 68.7226 32.8057L 69.7326 32.5081L 70.2057 32.2952L 70.6399 31.8968L 71.6722 30.5238L 71.8011 30.2709L 71.995 29.6577L 72.1665 29.4048L 72.4031 29.2355L 73.1378 28.9389L 73.9762 28.222L 74.4279 27.2075L 74.364 26.1721L 73.5468 25.3896L 73.5255 25.1976L 73.5032 24.9257L 73.5682 24.6309L 73.7833 24.3752L 75.0948 24.3333L 75.8295 22.832L 76.4528 20.9552L 77.4638 19.7933L 77.4425 19.5804L 77.6354 19.4748L 77.679 19.0746L 77.4851 18.6524L 76.9045 18.4813L 76.0447 18.4185L 75.6367 18.2921L 75.4428 18.1019L 75.1375 17.0019L 74.5355 16.5189L 73.762 16.2659L 72.9023 15.84L 72.5746 15.4625L 72.467 14.9986L 72.4031 13.8367L 72.4457 13.56L 72.532 13.2444L 72.5746 12.885L 72.4893 12.5674L 72.2955 12.3563L 71.6722 12.0397L 71.4144 11.8505L 71.0916 11.4683L 70.8551 11.0252L 70.6835 10.4985L 70.5759 9.88241L 70.8124 9.46311L 71.4144 9.29483L 72.0803 9.21021L 72.5107 9.06094L 72.8548 8.42772L 72.7035 7.94092L 72.2528 7.62431L 71.0276 7.51687L 70.7048 7.3077L 70.6186 6.90742L 70.7048 5.76648L 70.984 4.37074L 71.1992 4.05223L 71.4783 3.86492L 71.8224 3.44278L 72.1239 2.91414L 72.3168 2.40738L 71.8011 1.87874L 71.4783 1.60206L 71.1565 1.5203L 70.7688 1.49843L 70.3569 1.39384L 70.0128 1.20369L 69.8402 0.95078L 69.8189 0L 69.4748 0.0627515L 65.1459 0.400278L 60.7947 0.737805L 56.4483 1.05632L 52.1185 1.37198L 47.7886 1.68668L 43.4374 2.0052L 39.0862 2.30184L 34.7611 2.59753L 30.4099 2.86945L 26.0597 3.14518L 21.7298 3.42186L 17.3786 3.69568L 13.0323 3.94954L 8.68108 4.20245L 4.3512 4.45726L 0 4.68925L 0.172536 8.02744L 0.516639 14.6781L 0.714376 18.0182L 0.885943 21.3555L 1.05751 24.6937L 1.25137 28.0109L 1.42391 31.3463L 1.53053 33.4599L 1.55282 33.5207L 1.6168 33.6072L 1.74571 33.7546L 2.08982 33.9885L 2.26138 34.0522L 2.58416 34.2842L 2.69175 34.4106L 3.25492 35.2977L 3.34119 35.4042L 3.44878 35.4879L 3.5777 35.5516L 4.39482 35.9081L 4.63133 36.0783L 5.12567 36.5442L 5.49498 36.9454L 5.73149 37.3267L 5.86041 37.5796L 5.968 37.8534L 6.18318 38.21L 6.8491 39.079L 6.93536 39.3319L 7.17187 40.431L 7.27947 40.7676L 7.38706 40.9815L 7.47236 41.0442L 7.5373 41.1498L 7.60224 41.2553L 7.64489 41.3818L 7.64489 41.55L 7.55863 42.0169L 7.51598 42.2688L 7.5373 43.0703L 7.51598 43.3042L 7.47236 43.4735L 7.38706 43.6845L 7.30079 43.9793L 7.30079 44.1675L 7.34344 44.3824L 7.42971 44.6562L 7.51598 44.8245L 7.66622 45.0784L 7.95022 45.394L 8.63746 46.071L 8.85264 46.2402L 8.98253 46.303L 9.13277 46.3667L 9.73471 46.5122L 9.88495 46.5778L 10.0139 46.6405L 10.1001 46.748L 10.1215 46.9172L 10.0565 47.0646L 9.99255 47.1492L 9.97122 47.1701L 9.97122 47.191L 9.71242 47.3593L 9.64844 47.4867L 9.62712 47.6132L 9.69109 47.8452L 9.75603 47.9735L 9.8423 48.1L 9.9276 48.1627L 10.0565 48.2264L 10.3618 48.2892L 10.4908 48.332L 10.5984 48.4156L 10.706 48.5849L 10.7709 48.815L 10.8785 49.2618L 10.9425 49.4938L 11.0501 49.683L 11.3079 49.9977L 11.716 50.3818L 12.0601 50.592L 12.125 50.6766L 12.1037 50.7612L 11.8236 51.1805L 11.7596 51.2879L 11.6733 51.5437L 11.6307 51.712L 11.6093 51.9231L 11.6733 52.2178L 11.7596 52.3842L 11.8885 52.5135L 12.5544 53.0003L 12.8384 53.2741L 12.9247 53.3797L 12.9887 53.5251L 13.0749 53.6753L 13.1185 53.9092L 13.2038 54.0994L 13.2901 54.2468L 13.419 54.436L 13.4617 54.5843L 13.6129 55.3449L 13.6769 55.4932L 13.7418 55.5769L 13.8271 55.6615L 13.8921 55.7034L 13.956 55.7243L 14.0423 55.7243L 14.1286 55.7243L 14.6016 55.5769L 15.0572 55.6615L 15.2074 56.1274L 15.2074 57.3948L 15.1861 57.6686L 14.967 58.0698L 14.9234 58.3855L 15.6591 59.4L 16.0245 59.6976L 16.1321 59.8868L 16.0458 60.1825L 15.8743 60.3299L 15.2074 60.5618L 14.967 60.6227L 14.6229 60.9431L 14.8807 61.5763L 15.315 62.1477L 15.5088 62.3588L 15.7231 62.7173L 15.7017 62.8437L 15.5515 63.1404L 15.2074 63.4988L 14.9883 63.7527L 14.9234 64.0474L 14.967 64.3659L 15.1211 64.8926L 15.1647 65.2093L 15.1861 65.5487L 15.1647 65.8016L 15.0358 66.2865L 14.2362 67.9779L 14.1072 69.3509L 13.8921 69.773L 13.0963 70.4709L 12.9034 70.9339L 12.6232 72.3677L 12.598 72.6672L 12.1037 72.8364L 11.7596 73.2158L 11.5657 73.7235L 11.587 74.293L 11.6733 74.4195L 11.8672 74.525L 11.9525 74.6733L 11.9961 75.2229L 11.9961 75.2438L 12.3392 76.09L 12.3828 76.3011L 12.3392 76.8278L 12.189 77.2309L 11.6093 78.0106L 11.3079 78.6666L 11.2429 79.2152L 11.4155 80.4607L 11.6093 80.8848L 12.0174 81.2014L 12.4042 81.6017L 12.5544 82.2368L 12.5118 82.5106L 12.2966 83.0801L 12.2753 83.4195L 12.3392 83.6934L 12.6232 84.0946L 12.6882 84.2838L 12.7744 84.8134L 12.8811 85.2137L 12.9247 85.6586L 12.7958 86.3128L 12.5118 86.9051L 12.4904 87.158L 12.6882 87.4955L 11.3079 89.2288L 10.8562 90.1359L 11.0501 90.1568L 11.4795 90.306L 11.6307 90.7073L 11.6093 92.5432L 10.6846 94.614L 10.2979 94.7405L 8.72373 94.9325L 8.50854 95.2492L 8.59481 95.9023L 8.91759 97.0642L 9.5835 97.8885L 10.1001 98.2261L 10.6197 98.0578L 11.0074 97.7202L 11.7596 97.299L 12.1037 96.9805L 12.9034 96.4747L 14.0636 96.2209L 16.1748 96.0716L 16.1321 96.0716L 16.3037 96.0716L 16.1748 96.0716L 18.7376 95.987L 19.3609 95.6922L 19.8126 95.7759L 20.934 95.5867L 21.472 95.7759L 21.9877 95.4602L 23.4106 95.1227L 24.7269 94.9962L 26.1237 95.1436L 28.9017 95.6494L 30.6465 96.3264L 33.7473 97.1279L 35.1266 98.0787L 36.0726 98.5236L 38.7644 99.4516L 43.0293 100.108L 43.8891 99.8329L 44.1731 99.9593L 44.4096 99.812L 45.0115 100.086L 48.8897 100.487L 49.6419 100.402L 50.3514 100.17L 52.1185 99.0932L 52.8493 98.8612L 54.4225 98.903L 55.1107 98.8403L 55.4121 98.458L 54.8742 98.3316L 55.0031 98.0368L 55.3046 97.8467L 56.0606 97.6356L 55.734 97.3827L 55.1533 97.4255L 54.5514 97.6575L 54.186 97.9731L 53.9931 97.9731L 53.7992 97.5092L 52.9782 96.0925L 53.301 95.9641L 53.9931 95.4393L 53.7566 95.3119L 53.5588 95.3547L 53.3223 95.4393L 52.7417 95.5867L 52.3976 95.8814L 52.2038 95.9641L 51.9682 95.7341L 51.6668 95.2064L 51.4302 94.5513L 51.3013 94.0664L 51.8606 94.382L 52.0109 94.4039L 52.1398 94.2775L 52.3113 93.8762L 52.3976 93.7916L 52.828 93.8762L 53.0422 94.1501L 52.9995 94.4876L 52.6991 94.7624L 53.0645 94.7405L 53.3437 94.5085L 53.8855 93.8762L 54.2083 93.6633L 56.3184 92.7353L 56.5336 92.5223L 56.6625 92.143L 56.5986 91.8901L 56.6412 91.7636L 57.0716 91.6999L 57.3721 91.7845L 57.6512 91.9747L 57.9527 92.0374L 58.5798 91.4679L 58.9026 91.447L 60.0852 91.5316L 60.3856 91.679L 60.5795 91.9528L 60.6658 92.3331L 60.6222 92.8408L 60.4293 92.7562L 60.1927 92.4596L 59.9776 92.2694L 59.7197 92.5432L 59.5259 93.0937L 59.4619 93.6195L 59.6771 93.8553L 59.7624 94.0664L 59.806 94.4667L 60.0425 94.7405L 60.6658 94.5722L 61.573 93.9608L 62.0024 93.7498L 64.3288 93.4522L 64.9094 93.4731L 65.5326 93.6842L 65.7517 94.0455L 65.773 95.291L 65.7091 95.9451L 65.5966 96.4319L 65.7304 96.7057L 66.3963 96.6848L 66.6764 96.6012L 67.2134 96.3055L 67.4712 96.2418L 67.6864 96.3682L 67.7727 96.6639L 67.794 97.0224L 67.9016 97.2753L 68.2069 97.7621L 68.3572 98.3953L 68.2922 98.9876L 67.9656 99.3042L 68.5937 99.3879L 69.626 99.135L 70.6186 98.7347L 71.1779 98.2897L 71.5646 98.5027L 71.522 98.7556L 71.3717 99.0513L 71.2632 99.3461L 71.4144 99.5362L 71.7149 99.5781L 72.3381 99.5571L 72.9449 99.6646L 74.0625 100.023L 74.6431 100.361L 74.7294 100.044L 74.9872 99.4725L 75.0725 99.1559L 75.0085 99.0932L 74.8796 98.8612L 74.8147 98.5655L 74.901 98.2897L 75.593 97.6356L 75.7006 97.2334L 75.3779 96.6012L 75.8082 96.5793L 76.131 96.6848L 76.3675 96.9377L 76.4741 97.299L 76.4315 97.7621L 76.2386 98.0578L 75.9585 98.2688L 75.722 98.5236L 75.4428 99.1987L 75.4001 99.9593L 75.593 100.698L 76.0234 101.332L 76.195 101.438L 76.5391 101.501L 76.668 101.585L 76.7329 101.775L 76.7329 102.241L 76.8182 102.452L 77.1197 102.684L 77.962 103.064L 79.445 104.12L 79.7891 104.712L 79.4024 105.472L 79.4237 105.664L 79.5526 105.706L 79.6816 105.895L 79.8105 106.022L 79.5963 106.254L 79.3597 106.444L 78.8441 106.676L 78.8218 106.359L 78.6929 106.128L 78.5 106.002L 78.2198 105.959L 78.435 105.558L 78.5 105.134L 78.435 104.186L 77.7003 104.459L 77.0761 104.163L 76.7329 103.614L 76.7969 103.148L 76.195 103.235L 75.9158 103.572L 75.7646 104.057L 75.5077 104.586L 75.1588 104.882L 74.6858 105.029L 74.2341 104.944L 73.9336 104.523L 74.3426 105.769L 75.5077 106.634L 76.9908 107.163L 79.6602 107.394L 79.9617 107.479L 80.5888 107.966L 80.8467 108.071L 81.2557 108.071L 81.5785 107.988L 81.7927 107.756L 81.8363 107.311L 81.9866 107.163L 82.3946 107.163L 82.8076 107.29L 83.0654 107.522L 82.8076 107.605L 82.636 107.775L 82.571 108.009L 82.6147 108.324L 83.3019 108.009L 84.0114 108.114L 84.6783 108.473L 85.9287 109.444L 86.1865 109.382L 86.2515 109.254L 86.2515 109.128L 86.3378 109.02L 86.8748 108.684L 86.961 108.43L 86.7672 107.988L 87.2189 108.114L 87.6744 108.367L 88.1048 108.494L 88.5342 108.262L 88.7707 108.767L 88.5129 108.978L 88.1261 109.107L 87.9323 109.465L 88.2337 109.465L 89.1575 109.676L 89.3513 109.655L 89.4802 109.233L 89.9145 109.212L 90.3012 109.36L 90.4738 109.465L 90.6667 109.402L 90.7529 109.254L 90.8179 109.107L 91.162 108.918L 91.162 108.662L 91.1184 108.409L 91.1397 108.241L 91.4198 108.114L 91.699 108.156L 91.8705 108.388L 92.0644 108.746L 92.0218 108.262L 92.107 107.163L 92.0431 107.121L 91.9142 106.994L 92.0644 106.317L 92.172 106.022L 92.3271 105.79L 92.5849 106.064L 92.8214 106.338L 93.0143 106.444L 93.2295 106.106L 92.8854 105.706L 93.0143 105.408L 93.2508 105.05L 93.2508 104.523L 92.6702 104.502L 92.5413 104.418L 92.4986 104.099L 92.6062 103.931L 92.7991 103.888L 93.0579 103.973L 93.0793 103.699L 93.2082 103.55L 93.4234 103.488L 93.7025 103.53L 93.7238 103.741L 93.402 103.931L 93.6599 104.035L 94.541 104.246L 94.8463 104.078L 95.0392 103.825L 95.298 103.741L 95.6634 104.141L 96.2004 103.446L 96.373 103.064L 96.3943 102.621L 96.4796 102.178L 96.7384 102.178L 96.9526 102.347L 96.9962 102.452L 97.1503 102.621L 97.7309 103.382L 97.9035 103.741L 98.0537 105.325L 98.5694 104.48L 98.6343 104.186L 98.6343 103.804L 98.741 103.53L 98.9561 103.361L 99.2576 103.256L 99.2576 103.446L 99.3216 103.761L 100.358 104.691L 100.638 105.176L 100.745 105.303L 100.917 104.944L 101.067 104.48L 101.067 104.246L 101.325 104.267L 101.519 104.523L 101.627 104.882L 101.669 105.176L 101.669 105.514L 101.583 105.938L 101.605 106.275L 101.54 106.57L 101.411 106.889L 101.325 107.184L 101.454 107.437L 102.039 107.901L 102.211 108.114L 102.319 108.473L 102.361 108.831L 102.361 109.107L 102.211 109.276L 102.598 109.382L 103.35 108.978L 104.559 108.071L 104.967 107.88L 105.355 107.5L 105.676 107.079L 105.999 106.762L 106.128 106.57L 106.601 105.408L 106.734 104.944L 105.913 105.134L 105.418 104.375L 105.482 103.509L 106.236 103.424L 105.913 102.958L 106.107 102.705L 106.515 102.747L 106.906 103.192L 107.401 102.916L 107.379 102.726L 106.949 102.558L 106.557 102.241L 106.3 101.796L 106.192 101.269L 106.407 101.311L 106.557 101.438L 106.691 101.607L 106.777 101.817L 106.756 101.058L 106.691 100.826L 106.601 100.655L 106.472 100.508L 106.3 100.381L 106.278 99.9175L 106.321 99.6437L 106.515 99.4516L 106.885 99.2405L 106.278 98.7766L 105.655 98.458L 105.01 98.3088L 104.28 98.3088L 104.017 98.2897L 103.759 98.1424L 102.598 97.2543L 102.34 97.107L 102.211 97.2753L 102.103 97.32L 101.975 97.2125L 101.824 96.9596L 102.061 96.9377L 102.275 96.875L 102.64 96.6848L 102.619 96.4956L 102.469 96.5165L 101.953 96.5584L 102.061 96.1372L 102.405 95.6285L 102.534 95.3328L 102.921 95.6285L 103.609 96.4319L 104.038 96.7695L 104.21 96.5375L 103.845 96.3682L 103.931 96.1999L 104.257 96.0925L 104.688 96.1372L 105.182 96.3055L 108.088 97.8676L 108.862 98.0578L 109.683 97.6147L 110.543 98.3535L 110.974 98.458L 111.102 97.8049L 111.081 97.4036L 111.188 97.32L 111.382 97.4036L 111.988 97.4882L 112.074 97.6575L 111.988 98.0159L 111.945 97.995L 111.837 98.1215L 111.73 98.2897L 111.687 98.4371L 111.708 98.6083L 111.773 98.7138L 111.837 98.7556L 111.881 98.7975L 111.945 98.9239L 112.052 99.1141L 112.224 99.2824L 112.375 99.3461L 112.891 98.9876L 113.17 98.903L 113.321 99.1559L 113.256 99.367L 113.127 99.5362L 113.085 99.7492L 113.235 100.065L 113.299 99.9175L 113.343 99.8547L 113.428 99.791L 113.558 99.6437L 113.729 100.023L 113.858 100.34L 113.837 100.655L 113.687 100.995L 113.407 101.249L 113.02 101.522L 112.181 101.902L 115.712 101.902L 115.991 101.775L 116.619 101.1L 116.963 100.89L 117.263 101.121L 117.285 101.375L 116.919 102.073L 117.371 102.389L 117.564 102.832L 117.823 103.192L 118.51 103.277L 119.181 103.277L 120.729 103.677L 120.406 103.106L 120.665 102.832L 121.184 102.79L 121.701 102.979L 121.249 103.235L 121.03 103.256L 122.668 105.621L 123.205 105.769L 123.42 105.917L 123.313 106.254L 123.313 106.465L 123.682 107.205L 123.962 107.415L 124.521 107.247L 125.08 106.868L 125.359 106.381L 125.316 106.043L 125.122 105.451L 125.059 105.114L 125.101 104.797L 125.251 104.608L 125.424 104.608L 125.532 104.882L 125.574 105.579L 125.66 105.938L 125.854 106.128L 126.051 106.022L 126.095 105.685L 126.073 105.325L 126.095 105.114L 126.481 105.114L 126.481 105.685L 126.31 106.338L 126.159 106.676L 125.811 107.69L 125.596 107.817L 125.037 107.988L 124.843 108.177L 124.843 108.346L 124.908 108.62L 124.951 108.958L 124.843 109.254L 124.37 109.95L 124.22 110.246L 123.811 110.648L 123.682 110.817L 123.639 111.091L 123.639 112L 124.176 111.789L 124.585 111.365L 125.596 109.529L 125.724 109.128L 125.746 108.767L 125.918 108.303L 126.439 108.071L 127.018 107.945L 127.406 107.756L 127.514 107.5L 127.47 107.332L 127.385 107.142L 127.32 106.868L 127.341 106.57L 127.449 106.551L 127.75 106.717L 127.943 106.93L 128.7 107.945L 128.872 108.282L 129.066 108.556L 129.904 109.423L 130.205 109.592L 130.527 109.402L 129.925 108.494L 129.947 107.966L 130.57 107.226L 130.854 106.804L 130.94 106.402L 131.069 106.613L 131.219 106.741L 131.521 106.952L 131.499 106.634L 131.391 106.317L 131.241 106.064L 131.048 105.832L 131.477 105.811L 131.779 105.959L 131.95 106.275L 132.015 106.697L 132.316 106.338L 132.875 104.861L 131.219 104.987L 130.983 105.029L 130.983 104.691L 131.306 104.267L 131.714 103.888L 132.058 103.761L 132.058 103.931L 132.1 104.141ZM 88.384 111.6L 88.2764 111.705L 88.2764 111.81L 88.255 111.915L 88.32 111.915L 88.5565 111.726L 88.6205 111.515L 88.5342 111.515L 88.384 111.6ZM 124.607 86.6731L 124.457 86.7149L 124.22 86.8633L 123.962 86.926L 123.163 86.7995L 123.119 86.9688L 124.392 87.8559L 124.607 86.6731ZM 123.597 83.3349L 123.79 83.0354L 124.091 82.3423L 124.241 81.8527L 124.112 81.8527L 123.768 82.4688L 123.553 82.9537L 123.463 83.2294L 123.27 83.546L 123.055 83.8626L 123.184 83.8198L 123.597 83.3349ZM 122.582 80.1022L 123.076 79.9549L 123.098 79.8921L 123.163 79.7438L 123.291 79.5964L 123.463 79.5289L 123.553 79.5517L 123.639 79.6173L 123.747 79.681L 123.941 79.702L 123.962 79.6392L 124.026 79.4871L 124.134 79.3207L 124.305 79.257L 124.499 79.2988L 124.607 79.4662L 124.714 79.6601L 124.801 79.7866L 125.187 80.2287L 125.359 80.2715L 125.488 79.9339L 125.876 79.9977L 126.095 79.7657L 126.159 79.3416L 126.095 78.8985L 125.918 78.8985L 125.876 79.0887L 125.768 79.257L 125.639 79.4044L 125.467 79.5517L 125.424 79.4262L 125.274 79.1515L 125.316 78.7512L 124.843 78.6038L 124.478 78.4137L 124.801 77.8422L 125.424 77.0388L 125.724 76.765L 126.051 76.5539L 126.008 76.3638L 125.639 76.4902L 125.338 76.8068L 124.908 77.442L 124.328 77.9687L 123.984 78.1798L 123.618 78.3461L 123.855 78.8139L 123.661 79.0041L 123.334 79.025L 123.163 79.0668L 123.076 79.2779L 122.818 79.4443L 122.496 79.5736L 122.195 79.6392L 122.388 80.0186L 122.582 80.1022ZM 130.269 94.2137L 130.94 93.2839L 131.027 93.1146L 130.897 93.1783L 130.854 93.2202L 129.925 94.4876L 130.097 94.382L 130.269 94.2137ZM 96.7161 105.451L 96.845 105.282L 96.9962 105.05L 96.9526 104.797L 96.6734 104.944L 96.5445 105.579L 96.6085 105.98L 96.6308 105.664L 96.7161 105.451ZM 127.943 96.0288L 128.33 95.7341L 128.442 95.291L 128.399 95.2064L 128.377 95.1436L 128.33 95.1018L 128.222 95.1436L 128.137 95.5439L 127.793 95.8396L 126.954 96.2209L 127.427 96.2L 127.943 96.0288ZM 125.187 83.2722L 125.316 83.1876L 125.23 83.0592L 125.209 82.9328L 125.295 82.7217L 124.649 82.9328L 124.22 83.1457L 123.833 83.5251L 123.897 83.6515L 124.112 83.546L 124.37 83.4405L 124.822 83.314L 125.187 83.2722ZM 132.831 90.8337L 132.939 90.7073L 132.81 90.8128L 132.596 91.0229L 132.617 91.0448L 132.831 90.8337ZM 97.9248 110.67L 97.6234 110.543L 96.9962 110.353L 95.4909 110.182L 95.4696 110.332L 96.7161 110.712L 97.8599 110.88L 98.0324 110.859L 98.0101 110.754L 97.9248 110.67ZM 91.9355 110.838L 91.8279 110.859L 91.3975 110.859L 91.3336 110.944L 91.162 111.091L 90.8392 111.176L 90.624 111.112L 90.5378 111.006L 90.3875 111.028L 89.8719 111.281L 89.7604 111.429L 89.0935 111.663L 89.1575 111.832L 89.5452 111.789L 91.4412 111.176L 91.8492 110.965L 92.1507 110.733L 92.1972 110.67L 92.0218 110.775L 91.9355 110.838ZM 87.4166 111.683L 87.2189 111.642L 87.1326 111.747L 87.1762 111.874L 87.3478 111.958L 87.5455 112L 87.5882 111.937L 87.5242 111.81L 87.4166 111.683ZM 84.592 111.621L 85.3491 111.832L 86.2302 111.768L 85.6282 111.642L 84.592 111.621ZM 84.5271 111.621L 84.592 111.621L 84.2693 111.536L 84.5271 111.621ZM 63.469 98.3088L 62.8409 98.3088L 62.0674 98.1843L 62.0461 98.1424L 61.2503 97.8677L 60.5582 97.2991L 60.1501 97.0642L 58.731 96.8541L 58.4044 96.896L 58.3181 97.0015L 58.0816 97.3828L 57.9527 97.5092L 57.3508 97.7412L 56.8777 97.8258L 56.4047 97.9951L 55.8416 98.5446L 55.8416 98.9458L 56.2971 99.2824L 58.9453 100.213L 59.2041 100.444L 59.4832 100.529L 60.9924 101.375L 61.9598 101.121L 62.3039 101.079L 62.4755 100.995L 62.5191 100.782L 62.4968 100.402L 62.6044 99.9175L 62.9058 99.599L 63.7908 99.0295L 63.9847 98.5874L 63.8131 98.3744L 63.469 98.3088Z"/>
</defs>
</svg>
