<svg width="83" height="141" viewBox="0 0 83 141" version="1.1" xmlns="http://www.w3.org/2000/svg" xmlns:xlink="http://www.w3.org/1999/xlink">
<title>mississippi-icon</title>
<desc>Created using Figma</desc>
<g id="Canvas" transform="translate(2203 331)">
<g id="mississippi-icon">
<use xlink:href="#path0_fill" transform="translate(-2203 -331)" fill="#B5B5B5"/>
</g>
</g>
<defs>
<path id="path0_fill" fill-rule="evenodd" d="M 71.305 136.656L 71.1759 136.787L 71.004 137.062L 71.2186 136.977L 71.6109 136.635L 71.5895 136.531L 71.305 136.656ZM 78.0163 136.235L 77.4346 136.045L 76.8529 135.749L 76.009 135.685L 75.1904 135.791L 74.5873 136.045L 74.5873 136.213L 79.6788 136.489L 79.9158 136.362L 80.109 136.235L 79.5497 136.087L 78.0163 136.235ZM 83 131.238L 82.1814 125.942L 81.7512 123.296L 81.3414 120.649L 80.9277 118.002L 80.5188 115.351L 80.0877 112.707L 79.6788 110.06L 78.8602 104.763L 78.4465 102.118L 78.0377 99.4715L 77.6065 96.8245L 77.1977 94.1757L 76.7888 91.5297L 76.379 88.8828L 76.379 88.6292L 76.379 87.9296L 76.4004 86.7648L 76.4004 85.2188L 76.4218 83.2915L 76.4441 81.023L 76.4655 78.4418L 76.4868 75.5842L 76.5082 72.4702L 76.5305 69.1236L 76.5519 65.6293L 76.5733 61.9453L 76.5733 58.1546L 76.616 54.2561L 76.616 50.2948L 76.6597 42.3339L 76.681 38.3955L 76.681 34.4999L 76.7024 30.7072L 76.7024 27.0442L 76.7238 23.528L 76.7238 20.2033L 76.7451 17.0912L 76.7451 14.2317L 76.7451 11.6477L 76.7451 9.38202L 76.7451 7.45567L 76.7451 4.76488L 76.7451 4.04619L 76.7451 2.77371L 76.7451 2.30857L 76.3149 2.30857L 75.4924 1.86439L 74.8457 1.10186L 74.2863 0L 74.0707 0.0209697L 73.2045 0.105801L 70.1417 0.423206L 67.0574 0.742517L 63.9693 1.05897L 60.8638 1.37828L 57.7795 1.67471L 54.6953 1.97019L 51.6072 2.26663L 48.523 2.56211L 45.4388 2.83758L 42.3507 3.13496L 39.2665 3.41043L 36.1609 3.68685L 33.0767 3.96136L 29.9886 4.23682L 26.9044 4.51134L 23.7988 4.76488L 23.8852 4.89165L 24.7029 5.69708L 24.7679 6.88377L 24.0571 7.92081L 22.9976 8.72624L 20.43 9.97584L 20.1931 10.3771L 20.3436 10.8432L 20.6709 11.3942L 20.8223 11.9022L 20.5165 12.3054L 20.3222 12.5799L 19.827 12.7705L 19.289 12.7915L 18.8151 12.538L 18.5131 12.6647L 18.2334 13.2585L 17.9061 14.2946L 17.7983 15.5013L 18.4053 17.4296L 18.3625 19.844L 18.449 20.8391L 18.3412 21.6664L 17.6265 22.5538L 16.7865 23.1057L 16.2689 23.3592L 15.2744 23.5499L 14.9938 23.5499L 14.8005 23.465L 14.4772 23.2534L 14.3907 23.4231L 14.3907 23.6767L 14.5209 24.0798L 14.7792 24.5879L 14.8433 24.9472L 14.7792 25.1817L 14.4985 25.7307L 14.4344 26.0272L 14.348 26.1558L 14.1111 26.1349L 13.7022 25.9852L 13.375 26.0272L 13.2235 26.0901L 13.138 26.2616L 12.3835 28.4206L 12.1038 28.676L 11.7377 28.8447L 10.5918 29.6692L 10.3121 29.9885L 10.3985 30.792L 12.2116 31.4917L 12.3621 32.5697L 12.0824 33.1006L 11.7163 33.3561L 11.2424 33.4619L 10.6782 33.5038L 10.1402 33.6306L 8.8477 34.415L 7.59401 34.7953L 7.40076 35.0069L 7.52992 35.4092L 7.78823 35.5798L 8.11064 35.6856L 8.45538 35.8333L 8.91179 36.5949L 8.63212 37.2926L 8.21843 37.9732L 8.45538 38.9454L 8.76127 39.3705L 8.95549 39.8986L 8.69718 40.5353L 8.45538 40.6411L 7.80959 40.725L 7.55128 40.8098L 7.31433 41.0005L 6.8618 41.5514L 6.71128 41.6572L 6.51706 41.8688L 5.67317 43.2004L 5.242 43.5406L 4.89726 43.7732L 4.85453 44.0506L 5.37116 44.4948L 6.40927 44.896L 6.81907 45.2363L 6.96959 45.955L 6.79674 46.5488L 6.40927 46.8662L 5.88876 47.014L 5.30707 47.0559L 4.94096 47.2894L 5.09148 47.7565L 5.50032 48.1997L 5.91012 48.3694L 6.36654 48.4981L 6.88316 48.8574L 7.76589 49.618L 7.83096 50.128L 7.91739 50.9334L 7.91739 51.7789L 7.83096 52.3307L 7.01232 53.5803L 6.79674 54.2142L 7.18518 54.7451L 7.46485 54.7661L 8.21843 54.9777L 8.56802 55.2103L 8.73991 55.5486L 8.86907 56.9688L 9.21381 57.8991L 9.3216 58.3662L 9.21381 58.8942L 8.91179 59.1078L 8.41265 59.2774L 7.96011 59.531L 7.78823 59.8903L 7.89602 62.8556L 7.91739 63.8097L 8.08927 64.0633L 8.43401 64.2529L 8.8477 64.3587L 9.23517 64.3807L 9.55855 64.4626L 9.88095 64.74L 10.3985 65.27L 10.2043 65.7771L 9.90232 66.308L 9.55855 66.7312L 9.2779 66.919L 9.06329 67.2383L 8.78264 68.6375L 8.69718 69.7813L 8.78264 70.1826L 9.10601 70.3923L 10.3335 70.5L 10.786 70.8174L 10.9365 71.3054L 10.5918 71.9393L 10.1616 72.0899L 9.49348 72.1747L 8.89043 72.3434L 8.65348 72.7638L 8.76127 73.3814L 8.93413 73.9095L 9.17011 74.3537L 9.49348 74.7368L 9.7518 74.9265L 10.3762 75.2439L 10.5704 75.4555L 10.6569 75.7739L 10.6132 76.1342L 10.5277 76.4506L 10.484 76.728L 10.5491 77.8928L 10.6569 78.3579L 10.9841 78.7363L 11.8455 79.1633L 12.6204 79.4169L 13.2235 79.9011L 13.5294 81.0039L 13.7236 81.1945L 14.1324 81.3213L 14.9938 81.3842L 15.5755 81.5558L 15.7697 81.979L 15.727 82.3803L 15.5328 82.4861L 15.5541 82.6996L 14.5422 83.8643L 13.9168 85.7459L 13.1808 87.2509L 11.8669 87.2929L 11.6513 87.5493L 11.5872 87.8448L 11.6085 88.1174L 11.6299 88.3099L 12.4485 89.0944L 12.5126 90.1324L 12.0611 91.1494L 11.2211 91.8681L 10.484 92.1655L 10.2471 92.3351L 10.0752 92.5887L 9.88095 93.2035L 9.7518 93.457L 8.71854 94.8334L 8.28349 95.2328L 7.80959 95.4463L 6.79674 95.7446L 6.3879 96.062L 6.06064 96.5691L 5.86642 97.1L 5.62947 98.18L 4.98369 99.5983L 4.9196 100.084L 4.94096 100.657L 4.66031 103.156L 4.70401 103.834L 4.59622 104.152L 4.59622 104.342L 2.95506 105.697L 2.43843 106.587L 2.65305 107.816L 2.7822 108.005L 3.04149 108.321L 3.40759 108.895L 3.47169 109.064L 3.47169 109.614L 3.42896 109.87L 3.21337 110.145L 3.04149 112.007L 2.91233 112.475L 2.63168 112.813L 2.11506 112.959L 0.92643 113.001L 0.366105 113.087L 0 113.322L 0 113.766L 0.302012 114.337L 0.73221 114.783L 1.07695 114.973L 1.22747 115.121L 1.20611 115.438L 1.11968 115.757L 1.05559 115.863L 1.01189 116.18L 0.797274 116.688L 0.797274 116.964L 1.14201 117.745L 1.96454 118.594L 2.18012 119.315L 0.366105 121.05L 0.516626 121.029L 1.66252 120.944L 2.15779 120.902L 3.57948 120.797L 5.75863 120.649L 8.61075 120.416L 11.9746 120.158L 15.727 119.864L 19.7415 119.547L 23.8852 119.21L 28.0289 118.867L 32.0386 118.509L 35.7948 118.193L 39.1587 117.896L 41.9846 117.641L 44.1861 117.45L 45.5903 117.323L 46.0855 117.281L 47.1625 117.197L 48.0918 117.091L 48.2006 117.514L 48.1355 118.531L 47.8986 119.569L 47.4247 120.67L 47.1839 122.342L 46.6449 123.126L 46.473 123.631L 46.6672 124.164L 46.3002 125.223L 46.171 125.858L 46.1924 126.367L 46.473 126.769L 46.8818 127.169L 47.1402 127.638L 46.8818 128.25L 47.6616 129.561L 48.0705 129.925L 48.9105 130.158L 49.3416 130.411L 49.7553 131.259L 50.5089 131.682L 50.9828 132.402L 51.0683 132.593L 51.112 132.825L 51.1333 133.335L 51.177 133.567L 51.3916 134.011L 52.1928 135.049L 52.3657 135.512L 52.4297 136.676L 52.9901 137.463L 53.8942 139.138L 54.5234 139.729L 54.6953 139.412L 54.9973 139.285L 55.3207 139.349L 55.514 139.518L 55.5577 139.433L 55.7295 139.433L 56.0092 139.582L 56.3753 139.56L 56.7201 139.391L 56.9182 139.095L 57.1551 139.264L 57.2202 139.327L 57.1124 139.497L 57.3056 139.687L 57.5863 139.412L 57.6717 139.2L 57.6717 138.966L 57.7154 138.649L 58.0816 138.1L 58.167 137.799L 57.931 137.442L 60.0888 135.939L 60.3034 135.664L 60.3258 135.324L 60.2607 134.774L 60.1315 134.689L 59.5499 134.732L 59.3129 134.668L 59.3129 134.436L 59.5285 134.117L 59.8305 133.842L 60.0888 133.715L 60.6268 133.779L 61.4882 134.305L 61.9669 134.52L 61.6173 134.753L 61.4241 135.027L 61.5095 135.239L 61.9669 135.303L 62.2893 135.239L 63.7975 134.605L 65.3308 134.032L 67.0574 133.271L 67.4672 133.182L 67.7906 133.076L 68.5228 132.614L 68.8452 132.465L 70.4009 132.381L 71.1545 132.234L 71.5459 131.83L 68.4364 131.724L 68.415 131.533L 68.8239 131.491L 69.1725 131.364L 69.7542 131.026L 71.8265 131.385L 74.6301 133.055L 75.406 133.098L 76.616 132.847L 77.6929 132.297L 78.0804 131.533L 78.2746 131.512L 78.3824 131.83L 78.7524 132.064L 78.9893 132.635L 79.2263 132.762L 79.5497 132.783L 79.8507 132.741L 80.5402 132.847L 81.0403 133.098L 81.4919 133.229L 82.0308 132.93L 82.1814 132.72L 82.2678 132.508L 82.3969 132.339L 82.7194 132.234L 82.9563 132.064L 82.9563 131.745L 82.8922 131.427L 82.9786 131.259L 83 131.238ZM 81.0141 136.362L 81.858 136.447L 82.7417 136.383L 82.8922 136.171L 80.9704 136.15L 81.0141 136.362ZM 69.4094 137.59L 69.3667 137.695L 70.0125 137.548L 70.3786 137.4L 70.0562 137.421L 69.4094 137.59ZM 57.9524 140.662L 57.8232 140.936L 58.0379 141L 58.167 140.724L 58.1029 140.556L 57.9524 140.662ZM 66.8428 136.594L 66.6059 137.103L 65.998 137.336L 64.6851 137.4L 64.7064 137.59L 65.5027 137.485L 65.8688 137.569L 66.1058 137.841L 66.2573 137.632L 66.4719 137.82L 66.3641 137.952L 66.2349 138.12L 66.1495 138.226L 66.2573 138.311L 66.3214 138.374L 66.4078 138.395L 66.5156 138.395L 66.8642 137.506L 66.9069 137.188L 66.8642 136.892L 66.9069 136.808L 67.0575 136.723L 67.0147 136.573L 66.8428 136.594Z"/>
</defs>
</svg>
