<svg width="159" height="128" viewBox="0 0 159 128" version="1.1" xmlns="http://www.w3.org/2000/svg" xmlns:xlink="http://www.w3.org/1999/xlink">
<title>missouri-icon</title>
<desc>Created using Figma</desc>
<g id="Canvas" transform="translate(2332 562)">
<g id="missouri-icon">
<use xlink:href="#path0_fill" transform="translate(-2332 -562)" fill="#B5B5B5"/>
</g>
</g>
<defs>
<path id="path0_fill" fill-rule="evenodd" d="M 97.1992 6.35519L 97.1992 6.35519L 96.5495 6.98909L 96.12 8.29682L 95.9048 9.7547L 95.8398 10.9161L 95.9261 12.2038L 96.8763 16.7866L 97.0275 17.2076L 97.3708 17.6505L 97.8013 18.0743L 97.9302 18.2644L 98.0592 18.4554L 98.1455 18.6664L 98.1881 18.9192L 98.2308 19.594L 98.1241 20.4389L 98.1668 20.7572L 98.2744 20.9473L 98.5963 21.2419L 98.7902 21.6002L 99.4398 22.1277L 99.6115 22.4014L 99.6764 22.6989L 99.784 23.3546L 100.128 24.2813L 100.644 24.937L 106.699 29.4751L 107.086 29.878L 107.387 30.3855L 107.559 30.9757L 107.71 31.3549L 108.076 31.6505L 113.632 34.9474L 114.174 35.3893L 114.754 36.0222L 115.421 37.0144L 115.743 37.5856L 115.937 38.134L 116.001 38.5132L 116.023 39.2954L 116.066 39.6555L 116.221 39.9929L 116.694 40.5831L 116.801 40.8777L 116.737 41.1942L 116.587 41.5335L 116.522 41.8937L 116.694 42.252L 116.909 42.5685L 117.06 43.0322L 117.124 43.496L 117.06 43.8562L 118.264 45.8606L 119.042 46.6446L 120.01 46.9193L 120.956 46.3899L 122.229 44.4483L 123.347 44.109L 123.803 44.2373L 124.62 44.6802L 125.05 44.7439L 125.587 44.7439L 126.775 44.9758L 129.122 46.0107L 130.112 46.6655L 130.542 47.3831L 130.413 47.8887L 130.09 48.6281L 129.726 49.3048L 129.424 49.6003L 129.145 49.9377L 129.166 50.6353L 129.381 51.7539L 129.467 52.9133L 129.145 53.8238L 128.172 55.7227L 127.291 58.954L 126.345 60.792L 126.065 61.7196L 126.065 62.7754L 126.387 64.0423L 126.56 64.4852L 126.731 64.8035L 126.904 65.0773L 127.119 65.332L 128.478 66.2804L 128.65 66.5332L 129.359 67.1263L 129.532 67.3582L 129.726 67.7811L 130.155 68.0767L 131.063 68.4977L 131.707 69.0251L 132.331 69.6809L 132.998 70.2093L 133.84 70.3994L 135.195 71.3479L 135.587 71.5161L 136.425 71.4315L 136.727 71.4952L 137.479 71.6425L 138.322 72.1509L 139.763 73.375L 140.347 73.6706L 141.809 74.1363L 142.412 74.4737L 143.04 75.2131L 143.857 76.6909L 144.416 77.2203L 146.743 78.0423L 147.41 78.5061L 147.259 78.8663L 147.387 79.3092L 147.607 79.8167L 147.736 80.3223L 147.736 80.7861L 147.671 81.2727L 147.65 81.802L 147.779 82.3713L 148.36 83.2989L 149.091 84.1457L 149.714 85.0732L 150.062 86.2137L 149.757 87.2696L 149.026 88.1126L 148.425 88.9812L 148.531 90.077L 148.66 90.1616L 149.134 90.3089L 149.349 90.3935L 149.736 90.6482L 149.736 91.0283L 149.865 91.494L 150.085 91.915L 150.708 92.8008L 151.762 93.985L 152.17 94.7434L 152.084 95.5892L 152.518 95.9703L 153.765 96.7924L 154.759 97.0879L 155.017 97.067L 155.103 96.7715L 154.996 96.3505L 154.802 96.1176L 154.583 95.9703L 154.346 95.7574L 154.045 95.1444L 154.153 94.8489L 154.583 94.7434L 155.146 94.7015L 155.296 94.8279L 155.469 95.5046L 155.555 95.7365L 155.792 95.9076L 156.307 96.1604L 156.5 96.3286L 156.652 96.6242L 156.737 96.9188L 156.845 97.2143L 157.081 97.4244L 157.365 97.4671L 157.645 97.3826L 157.902 97.2353L 158.118 97.1507L 158.591 97.3198L 158.763 97.8064L 158.72 99.0524L 158.849 99.9391L 158.849 100.214L 158.741 100.425L 158.548 100.679L 158.354 100.995L 158.29 101.332L 158.441 101.923L 158.892 102.876L 159 103.508L 158.892 104.266L 158.161 106.315L 157.752 107.985L 157.323 108.807L 156.737 109.186L 155.985 108.996L 155.319 108.512L 154.69 107.921L 154.067 107.477L 153.83 107.648L 153.701 107.816L 153.529 108.321L 153.293 109.399L 153.271 109.841L 153.034 111.193L 152.928 111.53L 152.884 111.701L 152.432 112.378L 152.084 112.778L 151.783 112.968L 151.159 112.862L 151.095 112.44L 151.245 111.869L 151.288 111.615L 151.374 111.235L 150.966 110.139L 150.127 109.841L 149.391 110.223L 149.285 111.235L 149.543 111.572L 149.779 111.806L 149.887 111.89L 150.106 112.293L 149.998 112.841L 150.02 113.283L 150.643 114.403L 150.772 115.016L 150.579 115.67L 150.192 115.985L 149.628 116.113L 149.026 116.154L 148.596 116.431L 148.704 116.939L 149.112 117.486L 149.585 117.845L 150.192 117.993L 150.45 118.161L 150.385 118.477L 150.17 118.669L 149.887 118.775L 147.715 119.048L 147.302 119.238L 148.747 120.947L 149.478 122.027L 149.327 122.574L 148.962 122.68L 148.531 122.953L 148.187 123.27L 148.037 123.547L 147.994 124.033L 147.387 125.255L 147.281 126.248L 147.237 126.248L 147.194 126.248L 147.151 126.269L 147.108 126.269L 143.771 126.651L 140.455 127.052L 137.114 127.431L 133.776 127.81L 132.073 128L 131.923 127.979L 131.88 127.853L 131.858 127.747L 131.923 127.452L 132.611 125.806L 132.804 125.508L 133.131 124.834L 133.39 124.497L 133.519 124.265L 133.604 124.16L 133.711 124.075L 133.819 123.991L 134.292 123.841L 134.421 123.778L 134.529 123.694L 134.636 123.609L 134.7 123.483L 134.765 123.356L 134.808 123.186L 134.808 123.038L 134.829 122.785L 134.852 122.638L 134.894 122.491L 134.981 122.364L 135.066 122.259L 135.281 122.09L 135.389 122.027L 135.694 121.9L 136.189 121.648L 136.898 121.181L 137.006 121.076L 137.07 120.968L 137.135 120.821L 137.178 120.674L 137.221 120.104L 137.243 119.978L 137.329 119.872L 137.436 119.788L 138 119.556L 138.129 119.472L 138.236 119.388L 138.3 119.282L 138.387 119.154L 138.429 119.027L 138.472 118.879L 138.494 118.732L 138.472 118.583L 138.3 117.761L 138.3 117.592L 138.387 116.894L 138.387 116.726L 138.387 116.557L 138.322 116.409L 138.258 116.281L 138.172 116.175L 138.085 116.07L 137.978 115.985L 137.845 115.902L 137.027 115.501L 136.941 115.417L 136.856 115.291L 136.812 115.142L 136.77 114.995L 136.705 114.55L 136.662 114.424L 136.619 114.318L 136.533 114.256L 136.404 114.192L 136.296 114.107L 136.231 114.024L 135.952 113.41L 135.802 113.2L 135.759 113.136L 135.716 113.072L 134.098 113.221L 127.699 113.768L 121.304 114.297L 114.883 114.806L 108.484 115.311L 102.067 115.796L 95.6682 116.26L 89.269 116.726L 82.8523 117.15L 76.4308 117.571L 70.0103 117.993L 63.6149 118.372L 57.1944 118.754L 50.7738 119.112L 44.3572 119.472L 37.9357 119.788L 31.5151 120.104L 31.3435 116.578L 31.1709 113.031L 30.9993 109.505L 30.8267 105.957L 30.6551 102.346L 30.4612 98.7359L 30.2896 95.1235L 30.117 91.5358L 29.9241 87.9234L 29.7515 84.3148L 29.5799 80.7024L 29.3859 77.0939L 29.2095 73.5014L 29.0379 69.8909L 28.8663 66.3013L 28.6723 62.6909L 28.5007 59.1022L 28.3281 55.4908L 28.1565 51.9012L 27.9626 48.3116L 27.8773 46.2426L 27.855 46.0526L 27.7474 46.0107L 27.726 45.9243L 27.726 45.8397L 27.6834 45.7979L 27.9839 45.4396L 27.9413 45.2077L 27.5544 45.0813L 27.0163 45.0594L 26.931 45.0176L 26.8835 44.7857L 26.7545 44.7011L 26.6469 44.6802L 26.4103 44.723L 26.0661 44.7011L 25.3777 44.7648L 24.8619 44.5966L 23.8254 43.9826L 23.3523 43.8771L 22.9227 43.6243L 22.7938 43.0322L 22.7288 42.4421L 22.4923 42.1893L 21.7137 41.7017L 21.1552 40.604L 20.9186 39.4845L 21.1116 38.9789L 20.1013 38.8078L 19.9937 38.6605L 19.8434 38.2186L 19.7571 38.0494L 18.7633 37.4383L 18.3337 37.2691L 18.1612 37.1618L 17.9246 36.8462L 17.3661 35.874L 17.2323 35.664L 16.8241 35.5157L 16.4159 35.0947L 16.1144 34.5444L 16.1144 33.9523L 16.287 33.8677L 16.8881 33.805L 17.1247 33.6358L 17.1896 33.4039L 17.211 33.0875L 17.147 32.4745L 17.3011 31.9898L 17.624 31.5022L 18.3124 30.7647L 18.549 30.5965L 18.7419 30.491L 18.8709 30.3228L 18.8932 29.6243L 18.9572 29.3278L 19.0648 29.0959L 19.2364 28.9904L 20.3379 29.2641L 20.8537 29.2641L 21.1979 28.9058L 21.2192 28.5893L 21.0902 28.4002L 20.9186 28.2101L 20.811 27.8727L 20.8323 27.5553L 20.8963 26.9841L 20.9186 26.7095L 20.6821 26.4149L 19.6669 25.8874L 19.3227 25.5082L 19.4943 25.2107L 19.4943 24.8315L 19.3227 24.5131L 19.0221 24.3658L 18.5054 24.4077L 18.1185 24.5131L 17.7956 24.7032L 17.1247 25.3162L 16.6738 25.6346L 16.157 25.8038L 15.6839 25.5928L 15.0391 24.937L 14.7773 24.7669L 14.5194 24.6823L 14.0463 24.6405L 13.8524 24.5977L 13.6584 24.4295L 13.5295 24.2394L 13.4442 24.0075L 13.2716 23.7757L 13.0786 23.6911L 12.7984 23.6493L 12.5405 23.6074L 12.2138 23.1855L 10.9019 22.0849L 10.2572 21.5793L 9.86545 21.3902L 8.81249 21.2419L 8.53228 20.9264L 8.46829 20.4389L 8.53228 19.805L 8.74753 19.2775L 8.81249 18.962L 8.74753 18.8356L 8.01646 18.2007L 7.86618 17.8006L 7.53846 17.3349L 6.89369 16.6183L 7.21656 15.8989L 7.23789 15.5406L 6.97999 15.2431L 6.59313 15.1167L 5.77577 15.0958L 5.43157 14.9485L 5.14749 14.5902L 4.93224 14.211L 4.69663 13.8736L 4.28747 13.618L 3.87928 13.618L 3.42746 13.7026L 3.06192 13.6608L 2.89031 13.3025L 3.16955 13.0915L 3.38479 12.8786L 3.49145 12.6676L 3.42746 12.5621L 3.12689 11.74L 2.73518 11.2116L 2.62755 11.0006L 2.60622 10.8106L 2.62755 10.3877L 2.60622 10.2185L 2.41231 9.77561L 2.00412 9.31277L 1.78887 8.90981L 1.74621 8.5097L 1.8102 8.19132L 1.78887 7.87485L 1.42334 7.58023L 0.886194 7.41106L 0.434371 7.34739L 0.128954 7.09554L 0 6.3761L 0.0862924 5.6367L 0.107623 5.6367L 0.128954 5.6367L 0.150284 5.6367L 0.171615 5.6367L 0.193915 5.6367L 0.215246 5.6367L 5.66815 5.3839L 11.1172 5.13015L 16.5449 4.85644L 21.9716 4.56182L 27.4255 4.26435L 32.8522 3.96879L 38.2799 3.65136L 43.7289 3.31588L 49.1605 2.97659L 54.5882 2.6183L 60.0159 2.23909L 65.4426 1.85704L 70.8751 1.47784L 76.3018 1.07488L 81.7295 0.653861L 87.1572 0.231893L 89.2903 0.0636754L 90.1978 0L 90.4121 0.40106L 90.5207 0.527461L 90.9502 0.780262L 91.0578 0.927571L 91.1005 1.30677L 91.1655 1.56433L 91.2731 1.77246L 91.466 1.96253L 91.6813 2.06993L 92.1806 2.15451L 92.7178 2.44913L 92.7827 2.55462L 92.9117 2.93382L 93.0183 3.10299L 93.1269 3.16571L 93.2336 3.18757L 93.4702 3.16571L 93.6214 3.20848L 93.6854 3.33678L 93.7504 3.48219L 93.8144 3.6295L 94.0296 3.75875L 94.4853 3.90796L 94.6792 4.03246L 94.8295 4.22254L 94.9158 4.41356L 94.9371 4.60364L 94.8935 4.79277L 95.1087 5.04652L 95.9911 5.7631L 96.2703 5.95223L 96.9412 6.14421L 97.1992 6.35519Z"/>
</defs>
</svg>
