<svg width="205" height="88" viewBox="0 0 205 88" version="1.1" xmlns="http://www.w3.org/2000/svg" xmlns:xlink="http://www.w3.org/1999/xlink">
<title>northcarolina-icon</title>
<desc>Created using Figma</desc>
<g id="Canvas" transform="translate(2003 436)">
<g id="northcarolina-icon">
<use xlink:href="#path0_fill" transform="translate(-2003 -436)" fill="#B5B5B5"/>
</g>
</g>
<defs>
<path id="path0_fill" fill-rule="evenodd" d="M 194.303 26.1913L 194.69 26.6586L 195.141 26.807L 195.662 26.446L 195.726 26.5312L 195.791 26.5954L 195.833 26.6797L 195.876 26.786L 195.726 26.8712L 195.442 27.0857L 195.489 27.2763L 196.198 27.1068L 196.499 26.9794L 196.714 26.786L 196.736 26.6165L 196.629 26.3617L 196.607 26.1271L 196.8 25.9997L 196.994 25.9155L 197.101 25.7881L 197.187 25.6387L 197.38 24.9789L 197.294 24.7022L 196.585 24.0213L 196.242 23.575L 196.198 23.3624L 196.736 23.192L 197.316 23.0866L 197.359 22.874L 197.208 22.2774L 197.015 21.9135L 196.585 21.4893L 196.456 21.2346L 196.477 20.7883L 196.585 20.3612L 196.671 19.9159L 196.564 19.4036L 196.414 19.2341L 195.898 18.7447L 195.812 18.3837L 194.325 16.8716L 193.508 16.2347L 192.602 15.8737L 192.644 16.1495L 192.623 16.4042L 192.58 16.6599L 192.494 16.9147L 192.773 16.8505L 193.031 16.8505L 193.294 16.9357L 193.551 17.0842L 193.142 17.4031L 192.623 17.4241L 192.085 17.3178L 191.591 17.2968L 191.785 17.6386L 192.085 17.9575L 192.408 18.1931L 192.924 18.2994L 193.031 18.49L 193.031 18.6815L 192.837 18.8089L 192.687 18.8089L 192.064 18.6173L 191.462 18.0868L 191.054 17.8081L 190.925 17.9355L 190.796 18.1931L 190.148 18.873L 190.019 19.1488L 190.796 22.5954L 190.882 23.553L 190.555 25.9365L 190.405 25.9787L 190.255 25.7881L 190.148 25.6387L 190.104 25.5334L 190.104 25.4481L 189.481 25.7239L 188.879 25.8944L 188.278 25.7881L 187.715 25.1723L 188.256 25.0421L 189.073 25.1484L 189.804 25.1484L 190.104 24.6389L 189.954 24.5748L 189.631 24.2971L 189.438 23.9782L 189.653 23.7656L 189.739 23.575L 189.567 23.2772L 189.266 22.9803L 189.029 22.853L 189.202 22.8319L 188.858 22.874L 188.45 22.874L 188.059 22.7869L 187.736 22.6595L 187.5 22.4048L 187.78 22.3406L 188.45 22.4259L 189.073 22.084L 189.029 21.3409L 188.579 20.6178L 187.972 20.298L 187.93 20.1065L 188.406 19.8939L 188.729 19.3825L 188.901 18.7236L 188.966 18.0868L 188.664 18.2142L 187.93 18.6815L 187.908 17.6808L 188.101 17.36L 188.664 17.5323L 188.622 17.0631L 188.08 16.7442L 187.371 16.5747L 186.79 16.5536L 184.637 17.1905L 182.721 18.2142L 182.291 18.7447L 182.571 19.0004L 183.107 19.1699L 183.478 19.4668L 182.892 19.552L 181.819 19.3183L 181.302 19.3394L 181.066 19.4888L 180.912 19.7224L 180.761 19.8307L 180.568 19.6794L 180.524 19.5309L 180.524 19.2762L 180.503 18.9784L 180.353 18.7236L 179.536 18.6604L 178.371 19.1699L 177.254 19.9159L 176.631 20.5336L 176.459 20.5757L 175.811 20.5125L 172.626 21.1704L 172.582 20.9789L 173.141 19.6794L 173.184 19.2551L 172.841 19.2762L 172.712 19.0636L 172.647 18.7236L 172.518 18.4057L 172.282 18.2142L 172.045 18.0638L 171.809 17.8512L 171.486 17.0842L 171.031 16.5316L 170.902 16.2347L 170.516 14.3827L 170.494 13.788L 170.602 13.2335L 170.859 12.6369L 171.16 12.1906L 171.246 11.9359L 171.225 11.5538L 171.075 11.3202L 170.558 10.9361L 170.343 10.6383L 170.902 10.7235L 171.401 10.9141L 171.701 11.3834L 171.659 12.1906L 171.551 12.4885L 171.289 12.9366L 171.246 13.2546L 171.181 14.5742L 171.486 15.2771L 172.282 16.4263L 172.947 17.8723L 173.507 18.2783L 174.048 18.151L 174.285 17.4241L 174.564 17.5965L 175.423 18.49L 175.724 18.5541L 176.154 18.49L 176.932 18.2783L 177.469 17.9997L 178.135 17.5113L 178.763 16.8716L 179.128 16.2137L 178.892 16.2558L 178.827 16.2769L 178.763 16.0652L 179.107 15.7885L 181.346 14.9142L 181.281 14.7016L 180.826 14.7016L 180.138 14.5531L 179.472 14.3185L 179.171 14.0858L 178.999 13.8732L 178.071 13.5965L 177.856 13.427L 177.62 13.1914L 177.168 12.5948L 177.641 12.7872L 178.135 13.064L 178.587 13.2124L 178.934 13.0429L 179.451 13.5543L 180.18 13.8301L 182.828 14.3616L 183.413 14.3616L 183.95 14.1279L 183.929 13.9575L 183.413 13.6817L 182.356 12.724L 182.055 12.5517L 181.819 12.5095L 181.56 12.3822L 181.325 12.1696L 181.174 11.9359L 181.066 11.5538L 181.216 11.5538L 181.646 11.8296L 182.421 12.1906L 182.635 12.2337L 182.828 12.3611L 183.344 12.9156L 184.165 13.1914L 184.423 13.2335L 184.66 13.2124L 185.368 13.0219L 185.325 12.8514L 185.175 12.8945L 185.132 12.679L 185.953 12.4243L 186.19 12.2759L 186.619 11.8516L 186.726 11.618L 186.447 11.596L 186.146 11.5117L 185.777 10.893L 185.154 10.7235L 184.831 10.4477L 184.337 9.85018L 183.929 9.59545L 183.387 9.31965L 182.807 9.12812L 182.269 9.10706L 182.162 8.97969L 182.205 8.61866L 182.334 8.23465L 182.527 8.04312L 182.828 8.06419L 182.871 8.25572L 182.764 8.48938L 182.571 8.63973L 183.864 8.72496L 184.272 8.85233L 184.831 9.14919L 185.325 9.53225L 185.54 9.63854L 185.996 9.65961L 186.211 9.76591L 186.941 10.4899L 187.436 10.8088L 187.951 10.872L 188.45 10.8298L 190.169 10.9802L 190.126 10.7867L 189.76 10.7235L 189.373 10.5751L 188.664 10.1269L 188.923 9.87125L 188.794 9.44702L 188.514 8.95862L 188.08 7.95598L 187.822 7.74338L 187.522 7.61602L 187.221 7.23392L 187.672 7.16976L 188.059 7.29713L 188.794 7.70125L 188.6 8.27679L 188.772 8.48938L 189.137 8.57365L 189.525 8.72496L 189.631 8.89446L 189.739 9.29858L 189.825 9.46809L 189.997 9.57438L 190.599 9.89328L 190.99 10.2754L 191.183 10.5751L 191.312 10.8298L 191.291 11.0654L 191.247 11.3202L 191.269 11.5749L 191.441 11.8085L 192.214 12.5095L 192.687 12.8514L 193.121 12.9577L 193.508 12.7011L 193.294 12.2337L 192.837 11.6812L 192.537 11.1717L 192.343 10.7657L 190.384 7.80754L 190.212 7.46758L 189.954 7.06442L 188.966 6.08476L 188.664 5.70266L 188.493 4.40507L 188.278 3.65907L 187.994 3.7443L 187.951 4.3409L 187.865 4.70193L 187.78 4.70193L 187.887 4.97869L 188.037 5.16926L 188.235 5.36079L 188.493 5.55136L 187.93 5.31865L 187.199 4.723L 186.769 4.10724L 187.134 3.82953L 186.555 3.61693L 185.953 3.25399L 185.433 2.78666L 185.132 2.2772L 185.046 1.80987L 185.046 1.2554L 184.981 0.915442L 184.939 0.849365L 184.337 0.979604L 180.955 1.70358L 176.953 2.51086L 172.947 3.32006L 168.942 4.12927L 164.92 4.9356L 160.915 5.72373L 156.913 6.51186L 152.908 7.29713L 148.881 8.08526L 144.88 8.85233L 140.874 9.61652L 136.847 10.3836L 132.825 11.1286L 128.819 11.8727L 124.793 12.6158L 120.791 13.3398L 116.764 14.0647L 112.738 14.7868L 108.715 15.5108L 104.688 16.2137L 100.661 16.9147L 96.6332 17.6176L 92.6113 18.2994L 88.5845 18.9784L 84.5568 19.6583L 80.5348 20.3401L 76.5071 21.0009L 72.459 21.6377L 68.436 22.2985L 64.4092 22.9593L 60.3611 23.575L 56.3382 24.2118L 55.8228 24.2971L 55.6464 24.276L 55.5389 24.2118L 55.3461 23.915L 54.5506 25.8724L 54.443 26.4881L 54.508 26.6165L 54.9585 27.2341L 55.0021 27.4889L 54.8083 28.5959L 54.4217 29.8724L 54.3791 30.1501L 54.3791 30.3417L 54.443 30.448L 54.7657 30.8933L 55.1523 31.2754L 55.2385 31.4037L 55.3238 31.531L 55.2812 31.6393L 55.1736 31.6814L 54.443 31.7025L 53.1495 31.488L 53.042 31.509L 52.9344 31.5732L 51.3232 33.0642L 50.7815 33.68L 50.6953 33.8074L 49.1053 38.5314L 48.9551 38.8091L 48.7614 39.0427L 48.5472 39.1912L 48.2197 39.5761L 48.0269 39.7667L 47.8331 39.873L 47.683 39.9161L 47.4892 39.9161L 47.1239 39.873L 46.9524 39.8309L 46.8235 39.7667L 46.6947 39.7035L 46.5871 39.5972L 46.5222 39.4909L 46.4796 39.3636L 46.4369 39.2122L 46.372 39.0849L 46.3081 38.9786L 46.2218 38.8943L 46.1143 38.8301L 45.9806 38.788L 45.8304 38.788L 45.5078 38.8301L 45.3363 38.8301L 45.2074 38.788L 44.971 38.6587L 44.8421 38.6367L 44.7559 38.6587L 44.627 38.7009L 44.3906 38.8512L 43.7463 39.4909L 43.6339 39.5761L 43.1397 39.6394L 42.9469 39.6824L 42.4092 40.0645L 41.636 40.4045L 41.4209 40.5319L 41.0731 40.7866L 40.7078 41.1706L 40.0412 42.1292L 39.8484 42.4902L 39.6546 43.2123L 39.5906 43.4029L 39.2467 44.0215L 39.0965 44.236L 38.9666 44.3844L 38.8814 44.4687L 38.7913 44.5329L 37.8243 45.3612L 37.6305 45.4886L 37.4803 45.5527L 37.3302 45.5738L 37.179 45.5527L 37.0288 45.5097L 36.9 45.4464L 36.7711 45.3402L 36.6849 45.2549L 36.5996 45.1486L 36.401 44.7876L 36.3583 44.6392L 36.337 44.4687L 36.3583 44.2571L 36.4271 43.8721L 36.4484 43.7447L 36.4271 43.6605L 36.3797 43.5963L 35.9068 43.106L 35.7993 43.0418L 35.6278 43.0208L 35.4127 43.106L 34.4031 43.83L 33.8615 44.1297L 32.4003 45.2339L 32.379 45.276L 32.3354 45.3612L 32.3354 45.4675L 32.4003 45.8726L 32.379 46.022L 32.3354 46.1494L 32.1 46.4912L 32.0351 46.746L 32.0137 46.9155L 31.9062 47.1491L 31.7773 47.2554L 31.6262 47.3196L 31.4934 47.2985L 31.2144 47.1281L 30.8704 46.9375L 30.5478 46.8523L 30.3327 46.8312L 30.0963 46.8733L 29.7523 47.0007L 29.5808 47.1281L 29.452 47.2554L 29.4093 47.3828L 29.3657 47.5102L 29.3231 47.6806L 29.3231 47.8501L 29.3444 47.9995L 29.387 48.1479L 29.452 48.2772L 29.731 48.7024L 29.7523 48.8528L 29.7097 49.0223L 29.4956 49.4053L 29.452 49.5327L 29.452 49.8295L 29.4306 49.978L 29.3444 50.2547L 28.889 51.1932L 28.4162 51.9794L 28.2447 52.1279L 28.1158 52.1911L 27.7505 52.1489L 26.7574 52.2131L 26.4784 52.17L 26.3495 52.2131L 26.242 52.2763L 25.1025 53.0855L 24.3245 53.4465L 24.153 53.5548L 24.0241 53.661L 23.5513 54.3199L 23.3362 54.4894L 22.7781 54.8083L 22.6056 54.9146L 22.4981 55.042L 22.4341 55.1693L 22.0039 55.7238L 21.6348 56.4478L 21.4836 56.533L 21.3121 56.5751L 21.1406 56.5541L 20.9255 56.5751L 20.6891 56.6604L 20.4953 56.7877L 20.195 57.1698L 19.9799 57.4887L 19.7222 57.7664L 18.5362 58.4904L 18.3424 58.6609L 18.2136 58.8093L 18.0198 59.1493L 17.5692 59.7229L 17.4181 59.8713L 17.2892 59.9565L 15.8029 60.489L 15.6305 60.511L 15.459 60.489L 15.3301 60.4258L 15.2012 60.3406L 15.0724 60.2553L 14.8999 60.2343L 14.6809 60.2553L 14.2294 60.4679L 13.9717 60.5321L 13.7566 60.5742L 13.6277 60.5532L 13.4775 60.5532L 13.3274 60.5953L 13.1762 60.6403L 12.9621 60.7677L 12.8758 60.7887L 12.7896 60.8098L 11.9476 60.8529L 11.7974 60.874L 11.3459 61.0645L 10.9157 61.2982L 10.4003 61.7234L 10.0776 62.0633L 9.85866 62.2118L 9.68716 62.3181L 8.9566 62.5958L 8.59132 62.7873L 8.39754 62.9357L 8.28999 63.066L 8.01095 63.8943L 7.92471 64.0428L 7.77453 64.2764L 7.62435 64.4038L 6.69517 64.873L 6.50235 65.0215L 6.35217 65.191L 5.90066 65.8307L 5.85803 65.9791L 5.81443 66.0854L 5.81443 66.1917L 5.81443 66.298L 5.98689 66.659L 6.00821 66.7864L 6.00821 66.9569L 5.98689 67.1072L 5.94329 67.2556L 5.62161 67.8953L 5.57801 68.0648L 5.51407 68.3416L 5.51407 68.5111L 5.6003 69.4247L 5.53538 69.6813L 5.36388 69.9571L 4.97245 70.4695L 4.77866 70.7031L 4.62848 70.8305L 4.54225 70.8516L 3.94056 70.9368L 2.69454 71.2547L 2.3467 71.2978L 2.19555 71.2978L 2.06668 71.2547L 1.93782 71.1915L 1.72369 71.0211L 1.57254 71L 1.37973 71.0211L 1.03576 71.1915L 0.863299 71.3189L 0.734434 71.4463L 0.369155 71.8944L 0.150181 72.2765L 0.042632 72.5552L 0 72.6826L 0 72.9162L 0.042632 73.893L 0.107549 74.9589L 0.193782 76.5543L 0.25773 77.9151L 0.347839 79.2558L 2.11029 78.98L 3.89792 78.7013L 5.68556 78.4255L 7.44801 78.1497L 9.23565 77.8729L 12.7896 77.2993L 14.5734 77.0216L 16.3397 76.7449L 18.1273 76.4461L 19.8937 76.1693L 21.6774 75.8724L 23.4651 75.5756L 25.2314 75.2988L 26.9977 75.002L 28.7815 74.7022L 29.2155 74.6381L 35.7353 71.3189L 36.4698 71.0431L 36.5996 71.2547L 36.7062 71.34L 36.9 71.3821L 37.0075 71.34L 37.2003 71.1915L 37.4367 70.9789L 37.9532 70.5968L 38.1683 70.3842L 38.3184 70.1716L 38.3611 69.8508L 38.4047 69.6813L 38.5335 69.5329L 38.7477 69.4898L 39.0102 69.4687L 39.204 69.4036L 39.3968 69.2753L 40.1274 68.7658L 41.2707 68.1922L 41.4209 68.129L 42.2803 67.9806L 42.4528 67.9164L 42.5603 67.8312L 42.6456 67.7019L 42.7967 67.5113L 42.9469 67.4261L 43.7889 67.2987L 43.9614 67.1924L 44.0689 67.0622L 44.1329 66.6169L 44.2191 66.4464L 44.348 66.2769L 44.6483 66.0011L 44.8208 65.9159L 44.971 65.8948L 45.0785 65.958L 45.1434 66.0433L 45.2936 66.1917L 45.3576 66.2559L 45.4438 66.298L 45.5514 66.3191L 47.2964 65.8728L 48.9978 65.7033L 49.2129 65.6612L 49.8572 65.597L 50.8716 65.4907L 52.2039 65.3404L 53.7987 65.1699L 55.6038 64.9793L 57.5629 64.7457L 59.6732 64.5312L 61.8261 64.2764L 63.98 64.0217L 66.1329 63.788L 68.1783 63.5544L 70.0909 63.3207L 71.8359 63.1292L 73.3232 62.9568L 74.5479 62.8084L 76.0129 62.6389L 76.3142 62.6389L 76.5071 62.681L 76.6369 62.7662L 76.7435 62.8515L 76.8297 62.9357L 76.8946 63.044L 76.9586 63.1713L 76.9799 63.3207L 77.0022 63.4902L 76.9586 63.6387L 76.8084 64.2123L 76.7871 64.3396L 76.7871 64.4459L 76.7871 64.5733L 76.8297 64.6796L 76.8946 64.8089L 77.0022 64.9372L 77.1087 65.0425L 77.2812 65.1488L 77.414 65.1278L 77.5438 65.0646L 79.2413 63.3629L 79.3702 63.2566L 79.4777 63.2566L 79.563 63.2776L 79.6492 63.3418L 80.7276 64.3186L 82.2789 65.7675L 83.5258 66.9348L 83.6547 67.0861L 83.6973 67.2556L 84.1275 70.1937L 84.1702 70.3842L 84.2564 70.5547L 84.4066 70.6821L 84.6004 70.7031L 85.5499 70.5547L 85.8076 70.5116L 86.5382 70.4053L 87.7028 70.2358L 89.2075 70.0002L 90.9738 69.7235L 92.9766 69.4247L 95.0869 69.0847L 97.2824 68.7448L 99.4789 68.4048L 101.589 68.0859L 103.566 67.768L 105.353 67.4893L 106.841 67.2556L 108.001 67.0622L 108.757 66.9348L 109.015 66.8927L 109.897 66.7653L 110.627 66.7653L 111.125 66.8295L 112.028 67.4472L 113.859 68.7237L 115.685 70.0002L 117.516 71.2547L 121.199 73.8078L 124.878 76.3398L 126.73 77.5971L 128.583 78.8708L 130.435 80.1502L 132.262 81.4047L 134.114 82.6602L 135.966 83.9156L 137.84 85.1711L 139.688 86.4256L 141.54 87.7021L 142.163 87.3622L 142.207 87.5326L 142.121 87.66L 141.948 87.9999L 143.887 86.8316L 145.288 86.1498L 145.782 85.7016L 145.868 84.8522L 146.04 84.8311L 146.276 85.3195L 146.298 85.5532L 146.234 85.7868L 147.05 85.8079L 148.881 85.0217L 149.525 85.0217L 149.852 85.1069L 151.163 84.8101L 151.614 84.767L 153.875 84.9585L 154.283 84.9154L 154.61 84.7248L 154.76 84.4481L 155.362 82.936L 155.598 81.8088L 155.598 81.4258L 155.383 80.4681L 155.34 79.9797L 155.404 79.5766L 155.039 78.9369L 154.369 76.9785L 154.218 76.1913L 154.369 76.1693L 154.975 77.3204L 155.662 78.3192L 155.641 79.1705L 156.286 81.3415L 156.114 82.2359L 156.135 82.4054L 156.264 82.597L 156.286 82.8517L 156.2 83.4033L 156.759 82.4897L 156.888 80.8933L 156.694 77.7245L 156.759 77.215L 157.085 76.085L 157.193 75.1504L 157.472 74.6381L 158.074 73.8078L 158.954 71.5947L 160.076 69.6172L 162.638 66.4043L 164.318 64.9793L 165.457 64.3827L 165.801 64.1701L 165.972 63.9997L 165.887 63.9154L 165.758 63.8512L 165.715 63.6597L 165.93 63.3207L 165.672 63.044L 165.199 62.8725L 164.769 62.8515L 164.555 62.7662L 164.253 62.5326L 163.97 62.2539L 163.841 62.0423L 163.906 61.7866L 164.099 61.596L 164.318 61.5319L 164.426 61.6382L 164.64 61.6592L 165.005 61.4897L 165.285 61.0866L 165.178 60.3827L 164.963 60.0437L 164.64 59.7009L 164.318 59.5524L 164.056 59.7861L 163.798 59.3619L 163.325 57.9369L 163.648 58.2577L 163.927 58.2577L 164.168 58.1485L 164.361 58.1064L 164.705 58.2577L 164.92 58.4693L 164.876 58.6398L 164.49 58.7241L 164.533 58.8945L 164.984 59.1282L 166.102 60.0648L 166.316 60.3406L 166.209 60.9161L 165.349 61.8929L 165.092 62.3842L 165.972 62.4052L 166.102 62.4904L 166.209 62.4904L 166.773 62.8515L 167.181 62.66L 167.675 62.1476L 167.954 61.9992L 168.513 61.5108L 169.398 59.6798L 170.043 59.1914L 170.108 59.064L 169.806 58.5967L 169.785 58.4061L 169.978 58.342L 170.15 58.4693L 170.322 58.6398L 170.494 58.6819L 170.731 58.4904L 170.881 58.1275L 170.923 57.6812L 170.859 57.1909L 170.731 57.0846L 170.452 56.6383L 170.387 56.2141L 170.816 56.2141L 170.837 56.3204L 171.117 56.9362L 171.788 57.595L 171.465 57.979L 171.53 58.2998L 171.788 58.4272L 172.003 58.2577L 172.196 58.0643L 175.359 56.3625L 176.025 55.7238L 180.632 55.1483L 180.417 54.8294L 179.73 54.1494L 179.601 54.341L 179.429 54.4894L 179.236 54.6168L 178.87 54.702L 179.107 54.1494L 179.515 53.6189L 180.03 53.1918L 180.568 52.9581L 180.955 53.1707L 181.195 53.7884L 181.41 54.5105L 181.69 55.042L 182.356 55.2536L 182.463 54.5957L 182.098 52.1911L 182.291 52.2131L 182.742 52.6163L 183.344 52.9581L 183.044 53.4465L 183.236 53.8526L 183.735 54.1073L 184.272 54.1925L 184.789 54.0862L 185.003 53.9589L 185.175 53.7673L 185.239 53.5107L 185.154 53.3192L 185.046 53.1707L 185.003 53.0213L 185.11 52.7647L 185.26 52.5952L 185.389 52.4678L 185.54 52.3184L 186.103 51.1722L 186.404 50.7661L 186.511 50.5755L 186.597 50.2758L 186.597 49.978L 186.511 49.5116L 186.555 49.278L 186.684 49.2559L 186.748 49.4053L 186.92 49.639L 186.984 49.7874L 187.801 49.1717L 187.972 48.9801L 188.124 48.4688L 188.016 48.2351L 187.844 48.1048L 187.715 47.829L 187.758 47.3617L 187.951 47.2765L 188.235 47.3196L 188.622 47.2344L 188.837 47.0218L 189.073 46.5123L 189.245 46.2978L 189.202 46.0852L 188.579 45.8726L 188.166 45.4254L 187.693 45.0423L 186.941 44.9791L 187.199 45.3612L 187.736 45.8726L 187.887 46.2767L 187.693 46.4041L 187.199 46.5334L 186.748 46.8312L 186.619 47.3617L 186.404 47.3617L 185.454 47.8923L 185.089 47.9995L 184.939 47.9564L 184.789 47.8712L 184.702 47.7228L 184.66 47.4891L 184.702 47.1702L 184.852 47.107L 185.025 47.0859L 185.562 46.6397L 185.648 46.4491L 185.454 46.2126L 184.917 45.7223L 184.895 45.4675L 184.917 45.0002L 184.874 44.7244L 184.81 44.6392L 184.509 44.3413L 184.445 44.214L 184.316 44.1929L 184.122 44.6392L 183.972 45.2128L 183.907 45.637L 183.972 45.9578L 184.057 46.3399L 184.143 46.746L 184.101 47.1922L 183.67 46.7881L 183.28 46.6397L 182.892 46.6607L 182.549 46.7249L 182.119 47.0007L 182.248 47.3828L 182.936 48.0416L 183.172 48.5741L 182.764 48.5109L 182.162 48.2562L 181.69 48.1048L 181.646 48.0206L 181.475 47.7869L 181.216 47.5743L 180.955 47.447L 180.697 47.4891L 180.46 47.6385L 180.074 48.0416L 179.751 48.4898L 179.472 49.0223L 179.128 49.4896L 178.565 49.8506L 178.393 50.1695L 178.243 50.2547L 178.114 50.2126L 177.985 50.1053L 177.835 49.9358L 176.91 49.5327L 175.703 49.4053L 174.607 49.4475L 173.55 49.2138L 172.476 48.2562L 171.68 47.1922L 171.181 46.746L 170.687 46.6186L 170.579 46.3189L 169.247 44.915L 170.172 45.1065L 171.594 46.4491L 172.518 46.6397L 172.884 46.746L 174.177 47.6806L 174.929 48.0627L 175.832 48.3624L 176.588 48.3414L 177.598 48.0838L 178.415 47.5743L 178.677 46.8523L 179.086 46.361L 179.988 45.5527L 180.676 44.7876L 180.46 44.3413L 181.131 43.9363L 181.518 43.2966L 181.496 42.5534L 180.933 41.8524L 180.632 42.1292L 180.676 42.2987L 180.804 42.3408L 180.933 42.405L 181.066 42.4471L 180.739 42.7229L 180.46 42.7019L 180.203 42.5534L 179.88 42.4682L 178.892 42.6176L 178.565 42.5745L 178.763 42.2345L 179.086 41.9798L 179.451 41.8103L 179.794 41.7021L 179.945 41.5747L 180.116 41.32L 180.353 41.0624L 180.718 40.914L 181.431 41.0413L 181.754 41.0203L 181.84 40.7655L 181.668 40.5319L 181.346 40.4045L 180.739 40.2771L 180.697 40.1067L 181.925 40.1067L 182.442 40.0004L 182.592 39.5972L 182.592 39.2975L 182.721 38.7669L 182.635 38.5735L 182.184 38.2546L 181.969 38.0209L 181.84 37.7451L 181.281 37.8304L 179.021 37.5747L 177.018 37.5326L 175.38 37.002L 173.919 36.957L 173.507 36.8086L 172.69 36.4045L 171.615 36.0415L 170.602 35.9994L 169.978 36.5538L 169.591 35.7226L 169.291 35.4258L 168.792 35.3836L 168.513 35.2984L 168.19 35.0006L 167.632 34.2345L 168.663 34.7889L 169.205 34.9795L 170.3 35.0226L 171.551 35.4258L 172.239 35.4899L 173.464 35.3836L 173.962 35.5321L 174.564 35.8931L 175.144 36.0415L 176.33 35.4468L 177.039 35.4688L 177.104 35.2773L 177.233 35.15L 177.383 35.0437L 177.598 34.9584L 177.662 35.5953L 178.243 35.9141L 178.957 35.9141L 179.386 35.5742L 179.257 35.3836L 179.086 35.2563L 178.892 35.171L 178.634 35.1289L 178.677 35.0006L 178.698 34.8952L 178.742 34.7889L 178.87 34.6826L 178.827 34.5103L 178.655 34.447L 178.479 34.3408L 178.05 34.0429L 178.114 33.8715L 178.221 33.2337L 178.006 33.0001L 177.77 32.7875L 177.469 32.6601L 177.104 32.639L 177.92 31.8298L 178.371 31.531L 178.999 31.4458L 180.138 31.488L 180.654 31.4037L 181.238 31.17L 181.066 32.0003L 180.718 32.278L 179.515 32.3422L 178.934 32.5969L 178.913 32.9369L 179.236 33.2558L 179.751 33.4885L 179.794 33.6589L 179.515 34.0219L 179.901 34.2555L 180.955 34.447L 180.912 34.6185L 180.868 34.7458L 180.761 34.8311L 180.568 34.9163L 180.955 35.3195L 181.325 35.5321L 182.248 35.7657L 182.119 35.5742L 181.99 35.4258L 181.819 35.3405L 181.646 35.2773L 181.754 34.9795L 181.969 34.81L 182.248 34.7889L 182.549 34.8952L 182.85 33.8284L 182.549 33.34L 182.742 33.0853L 183.151 33.1495L 183.456 33.6168L 183.67 34.5103L 183.864 34.9584L 184.122 35.1289L 184.165 35.3405L 183.215 35.5531L 183.387 35.8299L 183.542 35.8509L 183.714 35.7868L 183.929 35.8078L 184.316 35.9994L 184.53 36.2541L 184.852 35.9994L 184.874 35.5742L 184.724 35.1921L 184.509 35.0647L 184.445 34.8521L 184.38 34.4681L 184.509 34.1914L 185.089 34.3408L 185.347 34.5955L 185.824 35.2563L 186.64 35.5742L 186.92 35.5742L 186.963 35.2563L 186.984 34.9374L 187.113 34.81L 187.285 34.81L 187.651 35.2773L 188.08 35.3195L 189.675 35.0226L 189.825 34.8521L 190.019 34.404L 190.255 34.1492L 191.076 33.68L 191.42 33.5737L 191.376 33.4042L 191.033 33.0432L 191.011 32.3843L 191.269 31.9151L 191.764 32.1066L 191.634 32.3422L 191.914 32.4695L 192.043 32.4054L 192.085 32.1698L 192.021 31.7666L 192.085 31.509L 192.279 31.2754L 192.343 30.9996L 192.085 30.6385L 192.623 30.3206L 192.752 30.1923L 192.837 29.9596L 192.816 29.8083L 192.708 29.6809L 192.666 29.5325L 192.558 29.362L 192.558 29.1906L 192.967 28.9991L 193.079 28.9138L 194.088 27.2763L 194.088 27.0005L 193.959 26.5523L 193.873 26.0639L 193.981 25.5966L 194.303 26.1913ZM 186.296 1.21328L 186.425 1.59729L 186.597 1.97939L 187.113 2.04355L 188.059 1.85202L 188.278 1.72466L 188.235 1.53313L 188.08 1.29755L 187.951 1.04282L 187.758 0.297782L 187.758 0.275757L 187.349 0.360986L 186.984 0.446216L 186.855 0.636785L 186.576 0.722015L 186.425 0.552514L 185.368 0.765109L 185.562 0.979619L 186.296 1.21328ZM 200.354 18.9784L 200.462 19.1489L 200.655 19.2121L 201.128 19.2973L 201.342 19.3825L 200.264 17.8724L 199.77 16.7653L 194.84 11.0013L 193.207 8.34005L 192.236 7.10661L 192.043 6.68142L 191.849 6.02161L 191.613 5.46714L 191.011 4.40512L 189.052 0.021068L 189.029 0L 188.708 0.0641616L 188.406 0.127366L 188.429 0.170459L 188.45 0.318893L 188.965 1.23439L 189.352 2.14893L 189.825 2.74458L 190.019 3.21095L 190.492 3.82958L 190.646 4.17146L 191.205 5.95745L 191.527 6.70345L 191.484 6.70345L 191.42 6.76665L 191.398 6.87295L 191.505 7.00032L 191.893 7.27611L 192.837 8.38314L 193.271 9.25555L 193.788 9.99963L 194.217 10.7868L 194.261 11.5117L 194.303 11.7023L 194.582 12.1275L 194.819 12.5948L 195.076 13.0219L 195.489 13.2336L 195.704 12.9788L 195.962 13.0851L 196.22 13.4059L 196.435 13.8302L 195.919 14.1069L 195.726 14.1069L 195.468 13.8522L 195.468 14.3617L 195.769 14.6375L 196.156 14.7016L 196.414 14.4469L 196.564 14.4258L 198.609 16.1927L 199.125 16.8506L 199.405 17.8302L 199.641 18.2995L 200.221 18.5121L 200.311 18.7237L 200.354 18.9784ZM 197.832 17.0842L 197.444 16.6811L 197.359 16.4474L 197.187 16.3411L 197.015 16.2559L 196.65 16.1927L 196.456 16.1285L 196.242 16.0653L 196.027 16.0864L 195.833 16.1706L 195.683 16.3832L 195.769 16.5106L 195.941 16.5958L 196.112 16.7232L 196.37 16.999L 197.187 17.5745L 197.467 17.9787L 197.702 18.49L 197.965 18.8942L 198.351 19.0215L 198.782 18.8942L 198.824 18.7448L 198.76 18.469L 198.868 17.9145L 197.832 17.0842ZM 204.398 27.1701L 204.356 24.9148L 204.012 23.7877L 203.26 22.447L 203.066 21.8925L 202.872 21.2978L 202.524 20.5969L 202.073 20.0002L 201.579 19.7225L 201.407 19.916L 201.665 20.4044L 202.267 21.2557L 202.439 21.7862L 203.496 23.7025L 203.904 24.8306L 204.077 25.4904L 204.077 25.8093L 203.904 26.4882L 203.883 26.8282L 203.969 27.149L 204.205 27.6613L 204.291 27.9582L 204.398 28.596L 204.398 29.6389L 204.527 30.7239L 204.571 32.1488L 204.506 32.5328L 204.7 33.3832L 204.205 34.0219L 202.722 34.9374L 201.429 35.9995L 201.342 36.0416L 201.3 35.9784L 201.257 35.8932L 201.171 35.851L 201.063 35.9353L 201.042 36.0627L 201.063 36.2121L 201.042 36.2963L 200.956 36.4496L 200.934 36.5961L 200.848 36.7024L 200.634 36.7876L 200.462 36.9571L 200.29 37.1927L 200.29 37.3842L 200.527 37.4053L 200.719 37.32L 200.956 37.0021L 201.085 36.8939L 201.429 36.7234L 202.224 36.1268L 202.701 35.9353L 203.475 35.3406L 204.205 35.2132L 204.442 35.129L 204.785 34.7459L 204.915 34.2345L 205 31.9793L 204.398 27.1701ZM 196.973 39.0006L 195.919 40.1067L 195.334 40.5099L 194.776 40.4677L 194.733 41.2558L 194.647 41.6169L 194.432 41.9588L 196.607 39.7035L 198.545 38.4883L 198.889 37.9578L 199.211 37.681L 199.318 37.5115L 199.405 37.2778L 198.824 37.8084L 196.973 39.0006ZM 193.165 42.2556L 193.057 42.3619L 193.031 42.6387L 192.902 42.8723L 192.752 43.0629L 192.708 43.2334L 192.644 43.6605L 192.107 44.5539L 191.935 44.915L 192.085 44.8939L 192.322 44.2781L 193.788 42.7019L 193.873 42.6597L 193.938 42.6176L 194.003 42.5534L 194.067 42.4471L 193.486 42.2776L 193.165 42.2556ZM 190.298 47.0649L 189.997 47.4039L 189.89 47.6807L 189.782 47.8923L 188.944 48.7657L 187.092 51.7669L 185.304 56.7236L 185.154 57.6162L 185.475 58.1275L 185.562 57.3183L 187.414 51.8943L 188.385 50.1907L 188.75 49.8086L 189.202 49.4265L 190.104 47.9354L 190.646 47.4039L 190.947 46.5334L 190.668 46.725L 190.298 47.0649ZM 179.945 55.5323L 176.222 56.873L 172.69 58.2999L 172.11 58.7031L 171.788 59.2125L 177.835 56.4057L 178.415 56.2142L 181.281 55.8081L 181.238 55.6176L 179.945 55.5323ZM 184.445 56.15L 184.165 56.0016L 182.421 55.766L 181.948 55.8723L 181.99 56.0657L 182.291 56.172L 183.563 56.3415L 184.573 56.8089L 184.681 56.8941L 184.981 56.6604L 184.81 56.3837L 184.445 56.15ZM 166.123 64.0849L 165.307 64.8089L 164.899 65.0215L 164.511 65.2341L 161.885 67.8101L 161.215 68.83L 160.957 69.8298L 161.259 69.3395L 163.218 66.7012L 163.519 66.5106L 164.253 66.1496L 165.951 64.7457L 166.445 64.106L 166.51 64.0638L 166.6 64.0428L 166.621 63.9997L 166.579 63.8723L 166.123 64.0849ZM 157.149 76.3187L 156.999 77.0638L 156.978 77.9151L 156.888 78.6592L 157.149 78.2551L 157.365 77.533L 157.558 76.1272L 157.601 76.0851L 157.665 76.0851L 157.708 76.042L 157.665 75.8936L 157.149 76.3187ZM 155.77 84.7029L 155.491 84.4912L 155.125 84.5334L 154.803 84.8101L 154.717 85.2985L 154.91 85.5743L 155.297 85.6806L 155.706 85.7438L 156.006 85.8712L 156.135 85.5743L 156.264 83.7883L 155.899 84.5334L 155.77 84.7029Z"/>
</defs>
</svg>
