<svg width="118" height="87" viewBox="0 0 118 87" version="1.1" xmlns="http://www.w3.org/2000/svg" xmlns:xlink="http://www.w3.org/1999/xlink">
<title>southcarolina-icon</title>
<desc>Created using Figma</desc>
<g id="Canvas" transform="translate(1980 368)">
<g id="southcarolina-icon">
<use xlink:href="#path0_fill" transform="translate(-1980 -368)" fill="#B5B5B5"/>
</g>
</g>
<defs>
<path id="path0_fill" fill-rule="evenodd" d="M 117.87 25.6803L 117.698 25.5306L 117.482 25.4457L 117.244 25.4457L 117.222 25.255L 117.805 24.9593L 115.943 23.6881L 114.084 22.4378L 112.2 21.1876L 110.338 19.9383L 108.475 18.688L 106.638 17.4378L 104.775 16.1646L 102.912 14.8953L 101.05 13.6441L 97.3504 11.1226L 93.6458 8.58012L 91.8053 7.32987L 89.9686 6.05959L 88.1271 4.78835L 87.2199 4.17228L 86.7181 4.10934L 85.9835 4.10934L 85.0978 4.23618L 84.8386 4.27814L 84.0776 4.40498L 82.9103 4.59762L 81.4157 4.83031L 79.617 5.10688L 77.6293 5.42445L 75.5071 5.74202L 73.2992 6.08057L 71.0904 6.41912L 68.9682 6.75672L 66.9542 7.05521L 65.1779 7.32987L 63.6657 7.56542L 62.4945 7.73422L 61.7599 7.84008L 61.4997 7.88204L 60.5448 8.02986L 60.35 8.00888L 60.199 7.88204L 60.1122 7.71324L 60.0694 7.52251L 59.6377 4.59762L 59.5939 4.42882L 59.4643 4.27814L 58.2113 3.11467L 56.6513 1.67273L 55.5659 0.69999L 55.4801 0.636095L 55.3934 0.615114L 55.2852 0.615114L 55.1557 0.720971L 53.4486 2.41468L 53.319 2.47858L 53.1845 2.49956L 53.0121 2.3937L 52.9039 2.28784L 52.7958 2.16101L 52.7314 2.03226L 52.6876 1.9264L 52.6876 1.79957L 52.6876 1.69371L 52.709 1.56687L 52.861 0.995626L 52.9039 0.847808L 52.8825 0.678056L 52.861 0.530238L 52.7958 0.4034L 52.7314 0.295636L 52.6447 0.21076L 52.5366 0.126837L 52.407 0.0419613L 52.2121 0L 51.9101 0L 50.4359 0.168799L 49.2043 0.316617L 47.7086 0.488277L 45.9548 0.678056L 44.0314 0.91075L 41.9735 1.14344L 39.8085 1.37614L 37.6435 1.62981L 35.4784 1.88444L 33.3563 2.09806L 31.3851 2.33076L 29.5699 2.52054L 27.9671 2.69029L 26.6273 2.84001L 25.6072 2.94587L 24.9583 3.00977L 24.742 3.05173L 23.031 3.22053L 21.2761 3.66493L 21.168 3.64395L 21.0813 3.60104L 21.017 3.5381L 20.8659 3.39028L 20.8007 3.3054L 20.6935 3.24151L 20.5415 3.26344L 20.369 3.34736L 20.066 3.62297L 19.9364 3.79177L 19.8497 3.96057L 19.7854 4.40498L 19.6772 4.53468L 19.5048 4.63958L 18.6571 4.76642L 18.506 4.85129L 18.355 5.04203L 18.2683 5.17077L 18.1601 5.25565L 17.9877 5.31859L 17.1234 5.46641L 16.9714 5.5303L 15.8217 6.10155L 15.088 6.6089L 14.8931 6.73574L 14.6982 6.80154L 14.4352 6.82252L 14.2189 6.86448L 14.0893 7.01325L 14.0464 7.18205L 14.0025 7.50153L 13.8515 7.71324L 13.6352 7.92496L 13.1168 8.30547L 12.8791 8.51718L 12.6842 8.665L 12.5761 8.70696L 12.3822 8.665L 12.274 8.58012L 12.1444 8.36841L 11.4049 8.64402L 4.84842 11.9494L 4.41191 12.0133L 4.43432 12.0553L 4.45575 12.3957L 4.36904 12.7553L 4.21801 13.0938L 3.98027 13.3895L 3.37519 13.6651L 3.09457 13.8787L 2.24688 14.7055L 2.03154 15.0441L 1.87954 15.4885L 1.66421 16.4212L 1.49077 16.8665L 1.23159 17.1841L 0.90713 17.4587L 0.626514 17.7973L 0.496924 18.2207L 0.431642 18.3895L 0.410206 18.6031L 0.431642 18.8358L 0.431642 19.0685L 0.367334 19.3251L 0.0428719 19.8744L 0 21.1037L 0.90713 22.0154L 3.28847 23.072L 4.13129 23.3495L 4.6935 23.094L 4.87083 23.1149L 4.95657 23.4974L 5.19432 23.8149L 6.1453 24.1764L 6.77181 24.7476L 7.31648 25.0013L 7.8134 25.5935L 8.24602 25.9769L 9.08884 26.2744L 10.1947 26.0608L 11.8375 25.8281L 12.9434 26.2954L 13.3107 26.9935L 13.5485 27.7345L 14.024 28.6052L 14.2832 28.8169L 15.9737 30.6594L 16.2757 31.2745L 17.101 33.6262L 17.2959 33.9858L 17.4908 34.0916L 17.9653 34.557L 18.5489 34.6838L 18.8948 34.9194L 19.2193 35.1912L 19.4609 35.4477L 19.8497 36.1897L 20.1098 36.5492L 20.7149 36.7609L 20.9741 37.0356L 21.3414 37.7785L 21.7088 38.4146L 22.0157 39.1127L 22.3616 39.3883L 22.7718 39.4531L 23.2473 39.3883L 23.7004 39.7078L 24.1983 40.2361L 24.8725 40.7883L 25.6929 41.1478L 26.5143 41.3805L 27.5345 41.8268L 28.6793 42.482L 30.024 43.3517L 30.8015 44.0069L 31.2984 45.2152L 31.7788 45.7244L 32.0808 46.3167L 32.5778 47.0805L 33.14 47.5249L 33.7665 47.8015L 34.3111 47.9493L 35.4999 48.0981L 36.0182 48.2669L 36.5843 48.5845L 37.8159 49.6859L 38.3781 50.0665L 39.4626 50.5557L 39.8952 50.9991L 39.8085 51.6362L 39.9595 51.7611L 40.2411 52.1435L 39.8738 52.2704L 39.8523 52.484L 40.2411 53.1401L 39.9381 53.3728L 40.1758 53.7552L 41.3909 54.7938L 41.6276 54.9416L 41.6929 54.7938L 41.8011 54.6441L 42.0602 54.6221L 42.3623 54.686L 42.5357 54.7499L 42.5786 54.9416L 42.2766 55.1743L 42.752 55.428L 42.9683 55.7246L 42.9459 56.0231L 42.6439 56.2977L 43.1194 56.869L 43.551 57.1665L 44.0099 57.2514L 44.5497 57.1884L 44.7446 57.3992L 45.0905 58.5016L 45.2844 58.8593L 46.2607 59.4324L 48.5125 59.9417L 49.593 60.3441L 50.393 60.8743L 50.7817 61.0441L 51.3264 61.0441L 51.6723 61.19L 52.0611 61.6144L 52.3856 62.1456L 52.5366 62.611L 52.5151 63.6056L 52.6009 64.1569L 52.9253 64.3495L 54.5291 66.2549L 54.8965 66.9978L 55.0475 67.4203L 55.1342 67.8247L 55.3505 68.2471L 55.6526 68.5857L 55.8942 69.011L 55.9157 69.3915L 55.8085 69.6242L 55.8085 69.9628L 55.7646 70.2822L 55.8514 70.4091L 55.9809 70.451L 56.1544 70.6208L 56.3054 70.8106L 56.3921 71.0013L 56.4136 71.5535L 56.3483 71.9979L 56.3921 72.4232L 56.7156 72.8457L 57.0615 73.0994L 57.5584 73.3321L 58.0992 73.4799L 58.8378 73.5018L 59.0755 73.5648L 59.3133 73.6935L 59.5296 73.8423L 59.9612 74.2018L 60.0908 74.2628L 60.199 74.2419L 60.7651 74.4345L 60.9171 74.5184L 61.0466 74.7511L 61.1548 75.0496L 61.3273 75.3033L 61.6732 75.3672L 62.0405 75.515L 62.2344 75.9823L 62.365 76.8492L 63.5137 79.0321L 63.9035 79.096L 64.2494 79.3707L 64.53 79.838L 64.681 80.4092L 64.7024 80.7707L 64.5729 81.1731L 64.53 81.4478L 64.5514 81.7644L 64.7239 82.4844L 64.7024 82.6761L 64.5514 83.2073L 64.5514 83.5039L 64.6596 83.6917L 65.2432 84.5205L 65.2647 84.6053L 65.2208 84.7322L 65.2432 84.8781L 65.3514 85.0707L 65.4849 85.1766L 65.7655 85.2824L 65.9175 85.3664L 66.7593 86.1074L 66.9971 86.1942L 68.3846 85.8346L 68.9468 85.8766L 70.0059 86.1512L 70.1998 86.342L 70.4424 86.6824L 70.8526 86.9151L 71.3281 87L 71.825 86.9571L 71.8465 86.9571L 71.6302 86.5766L 71.6087 86.2361L 71.7169 85.8976L 72.6026 84.4146L 72.7585 83.8415L 72.7156 83.1443L 72.8013 82.9298L 73.2554 82.2536L 73.385 81.936L 73.3635 81.5107L 73.3207 81.1512L 73.3207 80.8136L 73.4717 80.5151L 73.7094 81.5746L 73.1911 83.461L 73.1472 84.5424L 74.9625 82.9517L 75.5724 81.7224L 76.0908 80.9404L 76.0479 80.6419L 75.6153 80.1536L 75.3561 79.9229L 75.0278 79.7321L 74.639 79.7111L 74.2278 79.9858L 73.2554 78.7994L 73.0176 78.6097L 72.625 78.5038L 72.5597 78.0994L 72.7156 77.3804L 72.3648 76.7224L 71.7169 75.7687L 71.2199 74.8169L 71.2843 74.1379L 71.2628 73.9481L 71.0261 73.6725L 70.5282 72.9306L 70.1784 72.7189L 70.1569 72.5501L 70.6149 72.4652L 70.8741 72.6769L 71.0475 73.0126L 71.3281 73.3321L 71.7383 73.4799L 72.0628 73.4589L 72.1495 73.5857L 71.8903 74.1379L 72.0199 74.7301L 72.4944 75.7267L 73.385 77.1897L 75.2694 78.334L 75.6367 78.4609L 75.8745 78.355L 75.8959 77.8248L 75.7878 77.5501L 75.4857 77.1267L 75.3775 76.9131L 75.0492 75.0077L 75.0969 74.6243L 75.248 74.2419L 75.0969 74.1808L 75.0492 74.096L 74.8982 74.1589L 74.8329 74.2018L 74.79 74.1589L 74.6819 73.9481L 75.3347 73.8842L 75.5724 74.3496L 75.4857 76.4477L 75.6367 76.5726L 76.4367 76.0462L 76.4367 77.8458L 76.5448 78.5887L 76.8254 79.3068L 77.1061 79.3707L 77.9752 78.7575L 78.1477 78.7146L 78.5374 78.7146L 78.7966 78.6097L 80.5728 77.0399L 80.7667 76.5726L 80.2698 76.3848L 80.3351 76.3418L 80.4208 76.3209L 80.4433 76.2779L 80.4208 76.1301L 80.5728 76.1091L 80.8963 76.194L 81.0698 75.6838L 81.1341 74.9867L 81.1126 74.4126L 80.9402 74.4555L 80.8749 74.7092L 80.7239 74.9438L 80.4208 75.3462L 80.1831 75.6838L 79.6394 76.1521L 79.0343 76.5326L 78.6017 76.6804L 78.5374 76.3848L 78.8609 75.8536L 79.3578 75.3243L 80.3351 74.7092L 80.3565 74.1589L 79.9892 73.6725L 79.3364 73.5438L 77.0632 73.7574L 77.6079 73.4169L 78.2558 73.1423L 78.969 72.9725L 79.6394 72.9096L 79.5956 72.6979L 79.2506 72.634L 78.6017 72.3784L 78.2558 72.3574L 77.9966 72.4442L 77.564 72.634L 77.2795 72.7189L 75.0706 72.6769L 74.6604 72.9725L 74.639 72.7828L 74.5951 72.613L 74.7471 72.2935L 74.941 72.1247L 75.702 71.9979L 77.4734 71.955L 78.0609 71.7862L 77.867 71.5535L 77.6946 71.2998L 77.564 71.0013L 77.5211 70.6818L 77.6946 70.6399L 77.9314 70.9803L 78.1477 71.1491L 79.1853 71.7862L 79.5088 71.8072L 79.8119 71.7652L 80.3137 71.7862L 80.7239 71.955L 80.983 72.1667L 81.2422 72.3355L 81.6748 72.3355L 81.9983 72.1038L 82.1279 71.6593L 82.1065 71.1282L 81.9555 70.6818L 82.3228 70.8106L 82.4787 71.0862L 82.5654 71.4057L 82.7593 71.6593L 83.1266 71.8472L 83.2991 71.7442L 83.4511 71.5535L 83.7317 71.4057L 85.2488 69.8569L 85.4865 69.6881L 85.6814 69.4955L 85.811 69.2227L 85.8539 68.9691L 85.811 68.9052L 85.659 68.8823L 84.3582 68.0783L 83.9909 67.7827L 84.3368 67.653L 84.86 67.8666L 85.7672 68.5437L 86.4375 68.9261L 86.762 68.7764L 87.0426 68.3959L 87.5658 68.1203L 88.0842 67.9515L 89.1209 67.3783L 90.3574 66.9339L 90.5522 66.6803L 90.3145 66.4247L 89.7094 66.15L 89.6656 65.9784L 89.8605 65.7905L 90.1196 65.7686L 90.7461 65.7905L 91.3512 65.6627L 91.5675 65.5149L 92.804 64.2656L 93.0846 63.6495L 92.9979 62.7798L 92.8469 62.8227L 92.8469 62.9943L 92.7816 63.0153L 92.3928 62.8646L 92.1979 62.632L 91.9563 62.4632L 91.0706 62.4393L 90.6818 62.2305L 90.3574 61.8919L 90.1849 61.5095L 90.5737 61.7422L 90.941 61.8709L 91.1788 61.8051L 91.2002 61.4246L 91.0706 60.9802L 90.7033 60.3231L 90.5737 59.9417L 90.7033 59.8358L 91.6543 60.2383L 91.589 60.1534L 91.589 59.9417L 91.6543 59.7299L 91.8053 59.625L 92.3061 59.9207L 91.891 60.7265L 91.7614 61.211L 91.9563 61.3826L 92.4143 61.4456L 92.7387 61.7422L 93.0193 62.0397L 93.3009 62.1456L 93.8193 61.9339L 94.4935 61.5095L 95.6599 60.5129L 95.9629 59.9417L 96.2221 59.2417L 96.568 58.6075L 97.1769 58.246L 97.2851 58.1402L 97.3289 57.9285L 97.3932 57.7168L 97.5657 57.5899L 97.7606 57.505L 98.7983 56.6363L 98.9493 56.3826L 99.036 55.9382L 98.7983 56.044L 98.582 56.2128L 98.4309 56.4036L 98.3442 56.6572L 97.9769 56.2557L 97.782 55.9592L 97.7606 55.6187L 98.1279 54.2416L 98.3656 53.8191L 98.6901 53.6074L 99.3644 52.9685L 99.7746 52.7596L 100.034 53.0552L 100.142 53.267L 100.575 53.7552L 100.726 54.0308L 101.028 53.7343L 101.46 53.4567L 101.983 53.224L 102.523 53.0972L 103.107 52.8435L 103.215 52.463L 103.15 51.9957L 103.236 51.4674L 103.625 50.9572L 104.58 50.302L 104.883 49.8557L 104.84 49.2635L 104.365 49.1147L 103.799 49.0937L 103.474 48.7533L 103.971 48.7113L 104.559 48.7533L 105.034 48.9459L 105.293 49.3875L 105.444 49.3054L 105.531 49.2206L 105.639 49.0937L 105.705 48.9249L 105.402 48.7113L 105.164 48.4147L 105.142 48.1401L 105.444 47.9703L 105.661 48.0342L 105.942 48.4786L 106.18 48.6474L 106.288 48.161L 106.525 47.8435L 106.832 47.5669L 107.092 47.2703L 106.746 47.2284L 106.569 47.1015L 106.31 46.6361L 106.18 46.3167L 106.158 46L 106.05 45.7673L 105.186 45.7034L 104.559 45.4917L 103.993 45.1303L 103.691 44.621L 103.647 44.0279L 103.733 43.3937L 103.884 42.7786L 104.688 41.0839L 105.077 40.5537L 105.575 40.2151L 105.596 40.3839L 105.38 40.6824L 104.711 41.8268L 104.321 43.2458L 104.257 43.923L 104.386 44.1995L 105.38 44.0279L 105.726 44.1337L 106.05 44.4751L 106.266 44.9615L 106.482 45.9781L 106.768 46.3376L 106.919 46.3167L 106.789 45.6615L 106.789 42.2683L 106.919 41.9327L 106.702 41.782L 107.027 40.5107L 108.821 36.7819L 110.467 33.3306L 111.789 31.2745L 113.869 28.732L 116.094 26.7398L 117.028 26.1667L 118 25.913L 117.87 25.6803ZM 104.036 51.2557L 103.712 51.5724L 103.539 52.0168L 103.517 52.548L 103.625 53.0973L 103.799 53.0553L 104.058 51.8689L 103.993 51.4245L 104.079 51.3826L 104.101 51.3397L 104.079 51.2977L 104.036 51.2557Z"/>
</defs>
</svg>
