<svg width="197" height="71" viewBox="0 0 197 71" version="1.1" xmlns="http://www.w3.org/2000/svg" xmlns:xlink="http://www.w3.org/1999/xlink">
<title>tennessee-icon</title>
<desc>Created using Figma</desc>
<g id="Canvas" transform="translate(2194 405)">
<g id="tennessee-icon">
<use xlink:href="#path0_fill" transform="translate(-2194 -405)" fill="#B5B5B5"/>
</g>
</g>
<defs>
<path id="path0_fill" fill-rule="evenodd" d="M 150.547 7.39689L 152.961 7.05723L 155.376 6.71757L 157.79 6.37792L 160.204 6.01721L 162.619 5.67564L 165.033 5.31302L 167.448 4.95231L 169.862 4.5916L 172.276 4.23089L 174.69 3.87019L 177.104 3.50757L 179.518 3.14686L 181.912 2.76223L 184.326 2.40153L 186.741 2.01977L 189.155 1.65906L 190.277 1.46771L 190.45 1.3615L 190.88 0.85058L 191.074 0.765426L 191.268 0.723328L 192.864 0.530058L 194.822 0.275554L 197 0L 196.203 1.95566L 196.096 2.57183L 196.161 2.69908L 196.613 3.31621L 196.656 3.57071L 196.462 4.67676L 196.074 5.95215L 196.032 6.22961L 196.032 6.42097L 196.096 6.52717L 196.419 6.97208L 196.806 7.35479L 196.892 7.48204L 196.979 7.6093L 196.935 7.71741L 196.827 7.75951L 196.096 7.78056L 194.8 7.56624L 194.693 7.58729L 194.585 7.65139L 192.972 9.14111L 192.429 9.75632L 192.343 9.88357L 190.751 14.6034L 190.6 14.8808L 190.407 15.1143L 190.192 15.2626L 189.865 15.6472L 189.671 15.8376L 189.477 15.9438L 189.326 15.9869L 189.133 15.9869L 188.768 15.9438L 188.595 15.9017L 188.466 15.8376L 188.337 15.7745L 188.229 15.6683L 188.164 15.5621L 188.121 15.4348L 188.079 15.2837L 188.014 15.1564L 187.95 15.0512L 187.863 14.966L 187.756 14.9019L 187.623 14.8598L 187.471 14.8598L 187.149 14.9019L 186.977 14.9019L 186.847 14.8598L 186.611 14.7306L 186.482 14.7086L 186.395 14.7306L 186.266 14.7727L 186.031 14.9229L 185.384 15.5621L 185.273 15.6472L 184.778 15.7104L 184.584 15.7534L 184.046 16.1352L 183.271 16.4748L 183.057 16.6021L 182.708 16.8566L 182.342 17.2403L 181.675 18.198L 181.481 18.5587L 181.287 19.2801L 181.223 19.4705L 180.879 20.0886L 180.728 20.3029L 180.599 20.4512L 180.513 20.5354L 180.423 20.5995L 179.454 21.4272L 179.26 21.5544L 179.11 21.6185L 178.959 21.6396L 178.808 21.6185L 178.658 21.5755L 178.529 21.5123L 178.4 21.4061L 178.313 21.321L 178.228 21.2148L 178.03 20.854L 177.986 20.7057L 177.965 20.5354L 177.986 20.324L 178.055 19.9394L 178.077 19.8121L 178.055 19.7279L 178.009 19.6638L 177.535 19.1739L 177.427 19.1098L 177.255 19.0888L 177.039 19.1739L 176.028 19.8973L 175.486 20.1967L 174.023 21.2999L 174.002 21.342L 173.959 21.4272L 173.959 21.5334L 174.023 21.9381L 174.002 22.0873L 173.959 22.2146L 173.722 22.5562L 173.657 22.8107L 173.636 22.98L 173.528 23.2135L 173.399 23.3197L 173.249 23.3838L 173.115 23.3627L 172.835 23.1924L 172.491 23.002L 172.168 22.9169L 171.953 22.8958L 171.717 22.9379L 171.372 23.0652L 171.2 23.1924L 171.071 23.3197L 171.028 23.4469L 170.985 23.5751L 170.941 23.7445L 170.941 23.9138L 170.963 24.0631L 171.006 24.2114L 171.071 24.3406L 171.351 24.7654L 171.372 24.9156L 171.329 25.0859L 171.114 25.4677L 171.071 25.5949L 171.071 25.8915L 171.049 26.0398L 170.963 26.3163L 170.507 27.254L 170.033 28.0395L 169.862 28.1878L 169.733 28.2509L 169.367 28.2088L 168.372 28.2729L 168.093 28.2299L 167.964 28.2729L 167.856 28.3361L 166.716 29.1446L 165.937 29.5053L 165.764 29.6134L 165.635 29.7196L 165.162 30.3779L 164.946 30.5472L 164.388 30.8658L 164.215 30.972L 164.108 31.0993L 164.043 31.2265L 163.612 31.7805L 163.243 32.5038L 163.092 32.589L 162.92 32.6311L 162.748 32.61L 162.532 32.6311L 162.296 32.7162L 162.102 32.8435L 161.801 33.2252L 161.586 33.5439L 161.327 33.8213L 160.14 34.5447L 159.946 34.715L 159.817 34.8633L 159.624 35.2029L 159.172 35.776L 159.021 35.9243L 158.892 36.0095L 157.403 36.5415L 157.23 36.5635L 157.058 36.5415L 156.929 36.4783L 156.8 36.3932L 156.671 36.308L 156.499 36.287L 156.279 36.308L 155.828 36.5204L 155.569 36.5845L 155.354 36.6266L 155.225 36.6056L 155.074 36.6056L 154.924 36.6477L 154.774 36.6926L 154.558 36.8199L 154.472 36.8409L 154.386 36.862L 153.542 36.905L 153.392 36.9261L 152.94 37.1165L 152.51 37.3499L 151.993 37.7748L 151.671 38.1144L 151.45 38.2627L 151.279 38.3689L 150.547 38.6464L 150.181 38.8377L 149.987 38.986L 149.88 39.1162L 149.6 39.9438L 149.514 40.0921L 149.363 40.3255L 149.213 40.4528L 148.284 40.9216L 148.09 41.0699L 147.939 41.2402L 147.487 41.8784L 147.444 42.0277L 147.401 42.1329L 147.401 42.2391L 147.401 42.3453L 147.573 42.706L 147.595 42.8333L 147.595 43.0036L 147.573 43.1538L 147.531 43.3021L 147.208 43.9412L 147.165 44.1106L 147.1 44.3871L 147.1 44.5564L 147.186 45.4692L 147.121 45.7256L 146.95 46.0012L 146.558 46.5131L 146.364 46.7465L 146.213 46.8738L 146.128 46.8948L 145.525 46.98L 144.277 47.2976L 143.928 47.3407L 143.778 47.3407L 143.649 47.2976L 143.52 47.2345L 143.304 47.0642L 143.154 47.0431L 142.96 47.0642L 142.616 47.2345L 142.444 47.3617L 142.315 47.489L 141.949 47.9367L 141.729 48.3185L 141.622 48.5969L 141.578 48.7242L 141.578 48.9576L 141.622 49.9336L 141.686 50.9985L 141.772 52.5924L 141.836 53.952L 141.928 55.2915L 139.836 55.4819L 137.594 55.6752L 135.91 55.8245L 135.739 55.7814L 134.921 55.8876L 131.943 56.3124L 128.991 56.7152L 126.017 57.119L 123.043 57.5237L 120.087 57.9055L 117.113 58.2901L 114.139 58.6929L 111.187 59.0747L 107.434 59.4995L 103.707 59.9262L 99.9757 60.352L 96.2491 60.7768L 92.5175 61.2016L 88.7695 61.6044L 85.038 62.0072L 81.3065 62.4129L 77.5798 62.7965L 73.827 63.1783L 70.1003 63.561L 66.3688 63.9428L 62.6208 64.3245L 58.8893 64.6871L 55.1413 65.0507L 51.4097 65.4114L 50.5928 65.4746L 50.3124 65.4956L 50.6568 66.217L 50.4414 66.2381L 49.577 66.3232L 46.5169 66.6419L 43.4354 66.9624L 40.3501 67.28L 37.2472 67.6005L 34.1658 67.8981L 31.0843 68.1947L 27.999 68.4923L 24.9175 68.7889L 21.8361 69.0654L 18.7507 69.3639L 15.6693 69.6404L 12.5665 69.9179L 9.485 70.1934L 6.39966 70.4699L 3.31723 70.7455L 0.214422 71L 0 70.6824L 0.236737 70.4489L 0.687895 70.3216L 1.22637 70.0451L 2.04816 69.4701L 2.37125 69.0864L 2.58567 68.6195L 2.69337 68.1316L 2.69337 67.5584L 2.88741 67.0475L 3.46858 66.9834L 4.11379 67.0896L 4.61346 67.0896L 5.04327 66.3232L 4.95789 65.178L 4.61346 64.0059L 4.00609 62.6253L 3.85571 62.0732L 3.70532 60.7768L 3.74801 60.0955L 4.00609 59.6267L 5.17231 58.4805L 5.4954 58.0346L 5.73214 57.5448L 5.81849 57.0549L 5.75348 56.3335L 5.81849 55.8455L 6.07657 55.525L 6.63542 55.3126L 7.22144 55.1853L 7.73761 54.994L 7.953 54.6103L 7.56491 53.952L 7.15644 53.443L 7.0274 53.1225L 7.15644 52.847L 7.52222 52.4843L 7.88799 51.9964L 7.86665 51.6357L 7.13509 50.8501L 6.72663 50.2091L 6.67908 49.7001L 6.98471 49.2973L 10.431 47.4249L 11.8126 46.0653L 11.5545 45.5773L 10.8831 45.1716L 10.2379 44.9382L 10.4096 44.4081L 10.7327 44.0044L 11.1412 43.7479L 11.6622 43.6417L 12.3938 44.1106L 12.7595 44.1747L 12.8886 43.6207L 12.4801 42.7912L 11.8126 42.2181L 11.2925 41.5387L 11.3139 41.3244L 11.4216 40.3255L 12.028 39.0942L 12.0716 38.6043L 12.222 38.3268L 12.5665 38.0082L 12.9963 37.7327L 13.3621 37.6264L 13.5134 37.0744L 12.7809 35.9884L 11.3352 34.2672L 11.7486 34.0758L 13.9219 33.8003L 14.2062 33.6941L 14.4206 33.5008L 14.4856 33.1832L 14.2275 33.0128L 13.6201 32.8645L 13.1476 32.5038L 12.7382 31.9518L 12.6305 31.4408L 13.0613 31.1624L 13.6638 31.1203L 14.2275 30.9931L 14.6146 30.6745L 14.8087 30.0172L 14.6796 29.3991L 14.0548 28.2729L 14.0335 27.8271L 14.1411 27.275L 13.9219 26.8703L 13.8142 26.7851L 15.3248 26.5919L 15.2812 26.8492L 15.1308 27.4233L 15.1958 27.8481L 15.8196 27.9543L 16.1204 27.763L 16.4697 27.3602L 16.9209 26.6789L 16.9645 26.5077L 20.9929 26.125L 25.0466 25.7432L 29.0575 25.3404L 33.1073 24.9366L 37.1182 24.5319L 41.1505 24.1262L 45.1789 23.7024L 49.2112 23.2776L 49.2112 22.5983L 49.1248 21.5755L 49.0385 21.1306L 48.566 19.7059L 48.0062 18.4095L 47.9198 18.1339L 47.8985 17.9856L 47.9412 17.9426L 48.0489 17.9215L 49.3189 17.9005L 51.4321 17.8794L 52.7273 17.8584L 52.9204 17.9005L 53.0494 18.0488L 53.2435 18.4315L 53.3725 18.5798L 53.5016 18.664L 53.6306 18.6219L 54.5775 18.5157L 54.9006 18.4736L 55.7865 18.3674L 57.1419 18.198L 58.9329 17.9856L 61.0461 17.7072L 63.3737 17.4316L 65.8963 17.1111L 68.482 16.7715L 71.0899 16.4528L 73.5902 16.1352L 75.9401 15.8166L 78.0533 15.541L 79.822 15.3267L 81.1998 15.1354L 82.0856 15.0291L 82.3873 14.9871L 83.3983 14.8387L 84.1988 14.5603L 84.4142 14.5182L 85.4251 14.4331L 86.114 14.3699L 88.1195 14.1996L 91.2048 13.9241L 95.2119 13.5634L 99.9544 13.1385L 105.234 12.6487L 110.906 12.1157L 116.747 11.5436L 122.591 10.9485L 128.238 10.3744L 133.518 9.82042L 138.26 9.33246L 142.271 8.8866L 145.353 8.54694L 147.337 8.33454L 148.047 8.26852L 149.17 8.12022L 149.966 7.78056L 150.547 7.39689Z"/>
</defs>
</svg>
